M48
; DRILL file {KiCad 9.0.5} date 2025-10-19T21:09:36-0500
; FORMAT={-:-/ absolute / metric / decimal}
; #@! TF.CreationDate,2025-10-19T21:09:36-05:00
; #@! TF.GenerationSoftware,Kicad,Pcbnew,9.0.5
; #@! TF.FileFunction,Plated,1,2,PTH
FMAT,2
METRIC
; #@! TA.AperFunction,Plated,PTH,ViaDrill
T1C0.300
; #@! TA.AperFunction,Plated,PTH,ComponentDrill
T2C0.800
; #@! TA.AperFunction,Plated,PTH,ComponentDrill
T3C1.000
%
G90
G05
T1
X62.455Y-118.72
X62.856Y-117.51
X63.158Y-112.32
X63.257Y-116.23
X63.854Y-121.316
X66.146Y-130.33
X67.71Y-124.62
X67.73Y-127.17
X67.747Y-129.75
X68.3Y-131.64
X68.52Y-127.18
X68.55Y-129.72
X68.59Y-124.64
X68.66Y-122.63
X69.29Y-127.21
X69.35Y-124.61
X69.35Y-129.71
X69.564Y-122.686
X75.59Y-51.878
X76.87Y-57.98
X78.13Y-57.38
X79.43Y-56.979
X81.46Y-51.059
X82.942Y-53.132
X83.099Y-53.917
X83.43Y-52.499
X83.47Y-54.63
X85.19Y-57.44
X85.29Y-54.59
X85.31Y-55.48
X85.31Y-58.31
X85.33Y-52.57
X86.1Y-52.57
X86.7Y-54.86
X86.89Y-52.56
X86.971Y-57.36
X86.971Y-58.259
X87.78Y-52.62
X87.78Y-54.84
X89.97Y-49.52
X90.478Y-50.138
X91.287Y-50.521
X91.54Y-52.123
X113.38Y-51.12
X114.581Y-51.323
X121.95Y-54.69
X127.67Y-144.36
X128.32Y-51.53
X129.12Y-51.541
X129.39Y-137.53
X129.96Y-51.53
X129.99Y-138.74
X130.13Y-52.312
X130.49Y-57.45
X130.926Y-52.39
X131.422Y-53.018
X131.737Y-59.868
X132.24Y-144.36
X132.349Y-62.59
X132.68Y-57.44
X133.18Y-62.58
X133.339Y-59.95
X133.75Y-132.44
X134.14Y-62.52
X134.42Y-57.51
X134.54Y-59.93
X135.03Y-132.44
X135.07Y-62.58
X135.38Y-57.51
X135.47Y-59.92
X136.3Y-132.38
X136.84Y-112.89
X136.85Y-110.44
X136.87Y-115.5
X137.21Y-144.36
X137.59Y-132.35
X137.64Y-112.89
X137.649Y-115.52
X137.66Y-110.45
X139.33Y-115.49
X139.39Y-110.45
X139.52Y-112.83
X141.35Y-118.24
X141.382Y-92.715
X141.933Y-91.418
X142.022Y-92.236
X142.06Y-144.36
X142.669Y-91.103
X143.436Y-90.876
X143.451Y-90.026
X144.238Y-89.881
X144.459Y-89.084
X144.975Y-88.468
X145.77Y-88.38
X146.12Y-132.66
X146.173Y-133.458
X147.09Y-144.37
X147.43Y-102.44
X147.624Y-115.249
X147.68Y-109.99
X148.433Y-115.627
X148.71Y-120.06
X149.208Y-115.826
X149.29Y-121.14
X150.02Y-115.189
X150.083Y-115.987
X150.5Y-104.92
X150.651Y-103.921
X150.91Y-116.02
X151.216Y-103.355
X151.71Y-115.998
X151.773Y-102.781
X151.998Y-144.392
X152.174Y-102.066
X152.487Y-101.282
X152.941Y-118.271
X152.944Y-100.56
X153.377Y-99.888
X153.551Y-99.107
X153.863Y-98.37
X153.905Y-97.572
X154.153Y-116.743
T2
X118.18Y-145.03
X120.72Y-145.03
X123.26Y-145.03
X152.19Y-120.405
X154.115Y-120.405
T3
X138.65Y-56.24
X138.65Y-58.78
X138.65Y-61.32
X138.65Y-63.86
X138.65Y-66.4
X138.65Y-68.94
X138.65Y-71.48
X138.65Y-74.02
X138.65Y-76.56
X138.65Y-79.1
X138.65Y-81.64
X138.65Y-84.18
X138.65Y-86.72
X138.65Y-89.26
X138.65Y-91.8
X153.89Y-56.24
X153.89Y-58.78
X153.89Y-61.32
X153.89Y-63.86
X153.89Y-66.4
X153.89Y-68.94
X153.89Y-71.48
X153.89Y-74.02
X153.89Y-76.56
X153.89Y-79.1
X153.89Y-81.64
X153.89Y-84.18
X153.89Y-86.72
X153.89Y-89.26
X153.89Y-91.8
M30
