G04 #@! TF.GenerationSoftware,KiCad,Pcbnew,9.0.5*
G04 #@! TF.CreationDate,2025-11-18T13:53:27-06:00*
G04 #@! TF.ProjectId,slu,736c752e-6b69-4636-9164-5f7063625858,rev?*
G04 #@! TF.SameCoordinates,Original*
G04 #@! TF.FileFunction,Legend,Bot*
G04 #@! TF.FilePolarity,Positive*
%FSLAX46Y46*%
G04 Gerber Fmt 4.6, Leading zero omitted, Abs format (unit mm)*
G04 Created by KiCad (PCBNEW 9.0.5) date 2025-11-18 13:53:27*
%MOMM*%
%LPD*%
G01*
G04 APERTURE LIST*
%ADD10C,0.150000*%
%ADD11C,0.120000*%
%ADD12O,1.600000X1.600000*%
%ADD13R,1.600000X1.600000*%
%ADD14C,1.600000*%
%ADD15O,1.500000X1.500000*%
G04 APERTURE END LIST*
D10*
X145008095Y-56785180D02*
X145008095Y-55975657D01*
X145008095Y-55975657D02*
X145055714Y-55880419D01*
X145055714Y-55880419D02*
X145103333Y-55832800D01*
X145103333Y-55832800D02*
X145198571Y-55785180D01*
X145198571Y-55785180D02*
X145389047Y-55785180D01*
X145389047Y-55785180D02*
X145484285Y-55832800D01*
X145484285Y-55832800D02*
X145531904Y-55880419D01*
X145531904Y-55880419D02*
X145579523Y-55975657D01*
X145579523Y-55975657D02*
X145579523Y-56785180D01*
X146008095Y-55832800D02*
X146150952Y-55785180D01*
X146150952Y-55785180D02*
X146389047Y-55785180D01*
X146389047Y-55785180D02*
X146484285Y-55832800D01*
X146484285Y-55832800D02*
X146531904Y-55880419D01*
X146531904Y-55880419D02*
X146579523Y-55975657D01*
X146579523Y-55975657D02*
X146579523Y-56070895D01*
X146579523Y-56070895D02*
X146531904Y-56166133D01*
X146531904Y-56166133D02*
X146484285Y-56213752D01*
X146484285Y-56213752D02*
X146389047Y-56261371D01*
X146389047Y-56261371D02*
X146198571Y-56308990D01*
X146198571Y-56308990D02*
X146103333Y-56356609D01*
X146103333Y-56356609D02*
X146055714Y-56404228D01*
X146055714Y-56404228D02*
X146008095Y-56499466D01*
X146008095Y-56499466D02*
X146008095Y-56594704D01*
X146008095Y-56594704D02*
X146055714Y-56689942D01*
X146055714Y-56689942D02*
X146103333Y-56737561D01*
X146103333Y-56737561D02*
X146198571Y-56785180D01*
X146198571Y-56785180D02*
X146436666Y-56785180D01*
X146436666Y-56785180D02*
X146579523Y-56737561D01*
X147341428Y-56308990D02*
X147484285Y-56261371D01*
X147484285Y-56261371D02*
X147531904Y-56213752D01*
X147531904Y-56213752D02*
X147579523Y-56118514D01*
X147579523Y-56118514D02*
X147579523Y-55975657D01*
X147579523Y-55975657D02*
X147531904Y-55880419D01*
X147531904Y-55880419D02*
X147484285Y-55832800D01*
X147484285Y-55832800D02*
X147389047Y-55785180D01*
X147389047Y-55785180D02*
X147008095Y-55785180D01*
X147008095Y-55785180D02*
X147008095Y-56785180D01*
X147008095Y-56785180D02*
X147341428Y-56785180D01*
X147341428Y-56785180D02*
X147436666Y-56737561D01*
X147436666Y-56737561D02*
X147484285Y-56689942D01*
X147484285Y-56689942D02*
X147531904Y-56594704D01*
X147531904Y-56594704D02*
X147531904Y-56499466D01*
X147531904Y-56499466D02*
X147484285Y-56404228D01*
X147484285Y-56404228D02*
X147436666Y-56356609D01*
X147436666Y-56356609D02*
X147341428Y-56308990D01*
X147341428Y-56308990D02*
X147008095Y-56308990D01*
D11*
G04 #@! TO.C,a1*
X137250000Y-52300000D02*
X142330000Y-52300000D01*
X137250000Y-90530000D02*
X137250000Y-52300000D01*
X137250000Y-95740000D02*
X137250000Y-93070000D01*
X139920000Y-54970000D02*
X137250000Y-54970000D01*
X139920000Y-90530000D02*
X137250000Y-90530000D01*
X139920000Y-90530000D02*
X139920000Y-54970000D01*
X139920000Y-90530000D02*
X139920000Y-93070000D01*
X139920000Y-93070000D02*
X137250000Y-93070000D01*
X142330000Y-49760000D02*
X142330000Y-60180000D01*
X142330000Y-60180000D02*
X150210000Y-60180000D01*
X150210000Y-49760000D02*
X142330000Y-49760000D01*
X150210000Y-60180000D02*
X150210000Y-49760000D01*
X152620000Y-54970000D02*
X155290000Y-54970000D01*
X152620000Y-93070000D02*
X152620000Y-54970000D01*
X152620000Y-93070000D02*
X155290000Y-93070000D01*
X155290000Y-52300000D02*
X150210000Y-52300000D01*
X155290000Y-52300000D02*
X155290000Y-95740000D01*
X155290000Y-95740000D02*
X137250000Y-95740000D01*
G04 #@! TD*
%LPC*%
D12*
G04 #@! TO.C,a1*
X138650000Y-91800000D03*
X138650000Y-89260000D03*
X138650000Y-86720000D03*
D13*
X138650000Y-84180000D03*
D12*
X138650000Y-81640000D03*
X138650000Y-79100000D03*
X138650000Y-76560000D03*
X138650000Y-74020000D03*
X138650000Y-71480000D03*
X138650000Y-68940000D03*
X138650000Y-66400000D03*
X138650000Y-63860000D03*
X138650000Y-61320000D03*
X138650000Y-58780000D03*
X138650000Y-56240000D03*
X153890000Y-56240000D03*
X153890000Y-58780000D03*
X153890000Y-61320000D03*
X153890000Y-63860000D03*
X153890000Y-66400000D03*
X153890000Y-68940000D03*
X153890000Y-71480000D03*
X153890000Y-74020000D03*
X153890000Y-76560000D03*
X153890000Y-79100000D03*
X153890000Y-81640000D03*
X153890000Y-84180000D03*
X153890000Y-86720000D03*
D13*
X153890000Y-89260000D03*
D12*
X153890000Y-91800000D03*
G04 #@! TD*
D13*
G04 #@! TO.C,J1*
X141260000Y-53600000D03*
D14*
X143800000Y-53600000D03*
X146340000Y-53600000D03*
X148880000Y-53600000D03*
X151420000Y-53600000D03*
G04 #@! TD*
G04 #@! TO.C,sw1*
X123260000Y-145030000D03*
D15*
X120720000Y-145030000D03*
D13*
X118180000Y-145030000D03*
G04 #@! TD*
%LPD*%
M02*
