G04 #@! TF.GenerationSoftware,KiCad,Pcbnew,9.0.5*
G04 #@! TF.CreationDate,2025-11-18T13:53:27-06:00*
G04 #@! TF.ProjectId,slu,736c752e-6b69-4636-9164-5f7063625858,rev?*
G04 #@! TF.SameCoordinates,Original*
G04 #@! TF.FileFunction,Copper,L2,Bot*
G04 #@! TF.FilePolarity,Positive*
%FSLAX46Y46*%
G04 Gerber Fmt 4.6, Leading zero omitted, Abs format (unit mm)*
G04 Created by KiCad (PCBNEW 9.0.5) date 2025-11-18 13:53:27*
%MOMM*%
%LPD*%
G01*
G04 APERTURE LIST*
G04 #@! TA.AperFunction,ComponentPad*
%ADD10O,1.600000X1.600000*%
G04 #@! TD*
G04 #@! TA.AperFunction,ComponentPad*
%ADD11R,1.600000X1.600000*%
G04 #@! TD*
G04 #@! TA.AperFunction,ComponentPad*
%ADD12C,1.600000*%
G04 #@! TD*
G04 #@! TA.AperFunction,ComponentPad*
%ADD13O,1.500000X1.500000*%
G04 #@! TD*
G04 #@! TA.AperFunction,ViaPad*
%ADD14C,0.600000*%
G04 #@! TD*
G04 #@! TA.AperFunction,Conductor*
%ADD15C,0.200000*%
G04 #@! TD*
G04 APERTURE END LIST*
D10*
G04 #@! TO.P,a1,1,D1/TX*
G04 #@! TO.N,unconnected-(a1-D1{slash}TX-Pad1)*
X138650000Y-91800000D03*
G04 #@! TO.P,a1,2,D0/RX*
G04 #@! TO.N,unconnected-(a1-D0{slash}RX-Pad2)*
X138650000Y-89260000D03*
G04 #@! TO.P,a1,3,~{RESET}*
G04 #@! TO.N,unconnected-(a1-~{RESET}-Pad3)*
X138650000Y-86720000D03*
D11*
G04 #@! TO.P,a1,4,GND*
G04 #@! TO.N,GND*
X138650000Y-84180000D03*
D10*
G04 #@! TO.P,a1,5,D2*
G04 #@! TO.N,/SERIAL*
X138650000Y-81640000D03*
G04 #@! TO.P,a1,6,D3*
G04 #@! TO.N,/OE*
X138650000Y-79100000D03*
G04 #@! TO.P,a1,7,D4*
G04 #@! TO.N,/LATCH*
X138650000Y-76560000D03*
G04 #@! TO.P,a1,8,D5*
G04 #@! TO.N,/CLOCK*
X138650000Y-74020000D03*
G04 #@! TO.P,a1,9,D6*
G04 #@! TO.N,/LOAD(PL)*
X138650000Y-71480000D03*
G04 #@! TO.P,a1,10,D7*
G04 #@! TO.N,/SCK(CP)*
X138650000Y-68940000D03*
G04 #@! TO.P,a1,11,D8*
G04 #@! TO.N,/SEROUT*
X138650000Y-66400000D03*
G04 #@! TO.P,a1,12,D9*
G04 #@! TO.N,/CE*
X138650000Y-63860000D03*
G04 #@! TO.P,a1,13,D10*
G04 #@! TO.N,/LCD_LATCH*
X138650000Y-61320000D03*
G04 #@! TO.P,a1,14,D11*
G04 #@! TO.N,/LCD_CLOCK*
X138650000Y-58780000D03*
G04 #@! TO.P,a1,15,D12*
G04 #@! TO.N,/LCD_SERIAL*
X138650000Y-56240000D03*
G04 #@! TO.P,a1,16,D13*
G04 #@! TO.N,Net-(a1-D13)*
X153890000Y-56240000D03*
G04 #@! TO.P,a1,17,3V3*
G04 #@! TO.N,unconnected-(a1-3V3-Pad17)*
X153890000Y-58780000D03*
G04 #@! TO.P,a1,18,AREF*
G04 #@! TO.N,unconnected-(a1-AREF-Pad18)*
X153890000Y-61320000D03*
G04 #@! TO.P,a1,19,A0*
G04 #@! TO.N,unconnected-(a1-A0-Pad19)*
X153890000Y-63860000D03*
G04 #@! TO.P,a1,20,A1*
G04 #@! TO.N,unconnected-(a1-A1-Pad20)*
X153890000Y-66400000D03*
G04 #@! TO.P,a1,21,A2*
G04 #@! TO.N,unconnected-(a1-A2-Pad21)*
X153890000Y-68940000D03*
G04 #@! TO.P,a1,22,A3*
G04 #@! TO.N,unconnected-(a1-A3-Pad22)*
X153890000Y-71480000D03*
G04 #@! TO.P,a1,23,A4*
G04 #@! TO.N,unconnected-(a1-A4-Pad23)*
X153890000Y-74020000D03*
G04 #@! TO.P,a1,24,A5*
G04 #@! TO.N,unconnected-(a1-A5-Pad24)*
X153890000Y-76560000D03*
G04 #@! TO.P,a1,25,A6*
G04 #@! TO.N,unconnected-(a1-A6-Pad25)*
X153890000Y-79100000D03*
G04 #@! TO.P,a1,26,A7*
G04 #@! TO.N,unconnected-(a1-A7-Pad26)*
X153890000Y-81640000D03*
G04 #@! TO.P,a1,27,+5V*
G04 #@! TO.N,+5V*
X153890000Y-84180000D03*
G04 #@! TO.P,a1,28,~{RESET}*
G04 #@! TO.N,unconnected-(a1-~{RESET}-Pad28)*
X153890000Y-86720000D03*
D11*
G04 #@! TO.P,a1,29,GND*
G04 #@! TO.N,GND*
X153890000Y-89260000D03*
D10*
G04 #@! TO.P,a1,30,VIN*
G04 #@! TO.N,unconnected-(a1-VIN-Pad30)*
X153890000Y-91800000D03*
G04 #@! TD*
D11*
G04 #@! TO.P,J1,1,Pin_1*
G04 #@! TO.N,GND*
X141260000Y-53600000D03*
D12*
G04 #@! TO.P,J1,2,Pin_2*
G04 #@! TO.N,/LCD_SERIAL*
X143800000Y-53600000D03*
G04 #@! TO.P,J1,3,Pin_3*
G04 #@! TO.N,/LCD_CLOCK*
X146340000Y-53600000D03*
G04 #@! TO.P,J1,4,Pin_4*
G04 #@! TO.N,/LCD_LATCH*
X148880000Y-53600000D03*
G04 #@! TO.P,J1,5,Pin_5*
G04 #@! TO.N,+5V*
X151420000Y-53600000D03*
G04 #@! TD*
G04 #@! TO.P,sw1,1,A*
G04 #@! TO.N,+5V*
X123260000Y-145030000D03*
D13*
G04 #@! TO.P,sw1,2,B*
G04 #@! TO.N,Net-(a1-D13)*
X120720000Y-145030000D03*
D11*
G04 #@! TO.P,sw1,3,C*
G04 #@! TO.N,GND*
X118180000Y-145030000D03*
G04 #@! TD*
D14*
G04 #@! TO.N,/ICD12*
X119600321Y-61673851D03*
X118572500Y-64225000D03*
G04 #@! TO.N,Net-(a1-D13)*
X126800000Y-142500000D03*
G04 #@! TO.N,+5V*
X148600000Y-85000000D03*
X135710000Y-78210000D03*
X134200000Y-87930000D03*
X149200000Y-85750000D03*
G04 #@! TO.N,/ICD32*
X92350000Y-53750000D03*
G04 #@! TO.N,/SER6-7*
X87092000Y-61508060D03*
X91530380Y-53721090D03*
G04 #@! TO.N,/OE*
X90907200Y-53219442D03*
G04 #@! TO.N,/LATCH*
X90277131Y-52726474D03*
G04 #@! TO.N,/CLOCK*
X89958114Y-51869026D03*
G04 #@! TO.N,+5V*
X149200000Y-63850000D03*
G04 #@! TO.N,Net-(d33-A)*
X80550000Y-145820000D03*
G04 #@! TO.N,/ICD18*
X73804765Y-134126235D03*
X81640085Y-132040085D03*
G04 #@! TO.N,/ICD53*
X83602428Y-81160296D03*
G04 #@! TO.N,/ICD18*
X69160000Y-131460000D03*
G04 #@! TO.N,/ICD28*
X80525000Y-64071000D03*
X75655000Y-62695000D03*
G04 #@! TO.N,+5V*
X65650000Y-87450000D03*
G04 #@! TO.N,/SERIAL*
X150019810Y-115189138D03*
X141350000Y-118240000D03*
X150650557Y-103920913D03*
X142261883Y-93043012D03*
G04 #@! TO.N,/LOAD(PL)*
X152487269Y-101282203D03*
X150853770Y-127109741D03*
X143436000Y-90295595D03*
X134800000Y-134130000D03*
G04 #@! TO.N,/LATCH*
X151773000Y-102780746D03*
X125020028Y-65998400D03*
X85200000Y-69948438D03*
X129960000Y-51530000D03*
X86700000Y-54860000D03*
X80596785Y-78051769D03*
X62856000Y-117510000D03*
X136840000Y-112890000D03*
X85070000Y-54480000D03*
X148830000Y-115650000D03*
X139520000Y-112830000D03*
X68869265Y-123050735D03*
X134540000Y-59930000D03*
X85069000Y-55480000D03*
X68520000Y-127180000D03*
X93791214Y-50937750D03*
X133339000Y-59950000D03*
X83359437Y-53124933D03*
X142634000Y-91715720D03*
X69290000Y-127210000D03*
X150910000Y-116020000D03*
X135470000Y-59920000D03*
X67730000Y-127170000D03*
X131737000Y-59867935D03*
X123356998Y-69902031D03*
X87780000Y-54840000D03*
X137640000Y-112890000D03*
X78130000Y-56530000D03*
G04 #@! TO.N,/CE*
X153716508Y-117413897D03*
X132490000Y-131709000D03*
X144512594Y-87628222D03*
X149829000Y-119042000D03*
X150176105Y-126657535D03*
X153551256Y-99107230D03*
G04 #@! TO.N,+5V*
X61845000Y-134245000D03*
X82600000Y-87550000D03*
X81480000Y-87490000D03*
X128840000Y-130110000D03*
X140850000Y-98450000D03*
X113190000Y-73790000D03*
X150780000Y-136890000D03*
X80930000Y-82367735D03*
X150890000Y-85870000D03*
X123430000Y-147240000D03*
X133350000Y-120500000D03*
X68305000Y-55345000D03*
X127880000Y-130130000D03*
X110350000Y-144680000D03*
X145941000Y-104367815D03*
X114900000Y-82750000D03*
X114840000Y-57640000D03*
X61730000Y-135610000D03*
X114310000Y-55990000D03*
X114610000Y-54830000D03*
X68260000Y-57620000D03*
X58340000Y-123540000D03*
X114250000Y-57070000D03*
X59780000Y-126650000D03*
X66200000Y-107275000D03*
X117690000Y-89850000D03*
X123800000Y-129750000D03*
X83200000Y-88250000D03*
X139875000Y-98425000D03*
X141900000Y-98450000D03*
X108500000Y-87350000D03*
X117110000Y-86620000D03*
X68240000Y-56580000D03*
X115120000Y-86540000D03*
X126399358Y-54234556D03*
X69610000Y-66120000D03*
X126800000Y-126397000D03*
X134420000Y-90710000D03*
X61700000Y-136610000D03*
X72265000Y-62211923D03*
X66100000Y-108150000D03*
X133350000Y-121500000D03*
X59820000Y-127620000D03*
X78170000Y-75255000D03*
X61750000Y-137690000D03*
X116430000Y-87330000D03*
X150810000Y-146930000D03*
X63975000Y-133365000D03*
X59740000Y-124530000D03*
X59760000Y-125510000D03*
X147680000Y-109990000D03*
X133350000Y-123300000D03*
X122103794Y-55220296D03*
X123700000Y-131150000D03*
X68210000Y-58750000D03*
X115980000Y-86550000D03*
X148800000Y-102825000D03*
X139050000Y-98450000D03*
X133350000Y-122400000D03*
X129790000Y-130050000D03*
X73892813Y-66505000D03*
X116400000Y-61800000D03*
G04 #@! TO.N,/SEROUT*
X153377000Y-99888023D03*
X144238000Y-88696271D03*
X138800000Y-135110000D03*
X152450000Y-127000000D03*
G04 #@! TO.N,/OE*
X149430000Y-116250000D03*
X69350000Y-129710000D03*
X124050000Y-69454246D03*
X125818893Y-66041036D03*
X62455000Y-118720000D03*
X86691000Y-57330000D03*
X137649000Y-115520000D03*
X84920000Y-58480000D03*
X134140000Y-62520000D03*
X133180000Y-62580000D03*
X136870000Y-115500000D03*
X151216246Y-103355227D03*
X69780370Y-122901842D03*
X135070000Y-62580000D03*
X93103815Y-51347000D03*
X83099000Y-53916664D03*
X132349000Y-62590000D03*
X67747000Y-129750000D03*
X86691000Y-58130000D03*
X129119932Y-51540666D03*
X85200000Y-70748441D03*
X139330000Y-115490000D03*
X80650000Y-78850000D03*
X68550000Y-129720000D03*
X84950000Y-57390000D03*
X142022297Y-92236327D03*
X76860000Y-56560000D03*
X150083390Y-115986610D03*
G04 #@! TO.N,/CLOCK*
X148230000Y-115052988D03*
X130130007Y-52311730D03*
X68590000Y-124640000D03*
X85200000Y-52550000D03*
X87700000Y-52550000D03*
X151709694Y-115997786D03*
X130490000Y-57450000D03*
X143035000Y-91011968D03*
X137660000Y-110450000D03*
X135380000Y-57510000D03*
X79400000Y-56530000D03*
X136850000Y-110440000D03*
X85150000Y-69150000D03*
X94486431Y-50541926D03*
X83550000Y-52347961D03*
X134420000Y-57510000D03*
X69350000Y-124610000D03*
X62756000Y-116225000D03*
X122801999Y-69201126D03*
X80600000Y-76850000D03*
X67710000Y-124620000D03*
X132680000Y-57440000D03*
X152174000Y-102066463D03*
X139390000Y-110450000D03*
X124565999Y-65314429D03*
X86050000Y-52500000D03*
X86850000Y-52550000D03*
G04 #@! TO.N,/SCK(CP)*
X143837000Y-89496274D03*
X132475000Y-135255745D03*
X151651721Y-127052488D03*
X152943508Y-100560398D03*
G04 #@! TO.N,Net-(d33-A)*
X64032500Y-144187500D03*
G04 #@! TO.N,Net-(d35-A)*
X103175000Y-132651481D03*
X99019000Y-140180000D03*
G04 #@! TO.N,Net-(d40-A)*
X100610000Y-114270000D03*
X101820000Y-118920000D03*
G04 #@! TO.N,/SER1-2*
X147750000Y-118750000D03*
X154153000Y-116743465D03*
X131422313Y-53017900D03*
X153863009Y-98370470D03*
X122084865Y-54420517D03*
X145361830Y-87910359D03*
G04 #@! TO.N,/SER2-3*
X128320000Y-51530000D03*
X63853636Y-121316364D03*
G04 #@! TO.N,/SER3-4*
X63157000Y-111330227D03*
X75590000Y-51878000D03*
G04 #@! TO.N,/SER4-5*
X68300000Y-131640000D03*
X81300000Y-51060000D03*
G04 #@! TO.N,/SER5-6*
X66146000Y-130330000D03*
X113380000Y-51120000D03*
X113380000Y-75730000D03*
X112500000Y-54650000D03*
G04 #@! TO.N,/SER6-7*
X114581000Y-51323000D03*
X85200000Y-71548444D03*
X81350000Y-79319000D03*
X91950000Y-52458755D03*
X113150000Y-55150000D03*
X114965000Y-72655000D03*
G04 #@! TO.N,/SER7-8*
X80700000Y-74100000D03*
X85090000Y-68350000D03*
X130926136Y-52390359D03*
X83470000Y-54630000D03*
X153905197Y-97571581D03*
X145290715Y-86709285D03*
X150500000Y-104920000D03*
G04 #@! TO.N,Net-(a1-D13)*
X152900000Y-80400000D03*
X131150003Y-139650000D03*
X153325017Y-97020767D03*
X152736731Y-126253147D03*
G04 #@! TO.N,/btn1*
X137590000Y-131800000D03*
X145337000Y-132340453D03*
G04 #@! TO.N,/btn2*
X144870000Y-132990000D03*
X136300000Y-131810000D03*
G04 #@! TO.N,/btn3*
X134500000Y-132090000D03*
X130350000Y-139650000D03*
G04 #@! TO.N,/btn4*
X135850000Y-140050000D03*
X133630000Y-132110000D03*
G04 #@! TO.N,/btn5*
X139270000Y-139552000D03*
X133730000Y-137950000D03*
G04 #@! TO.N,/btn6*
X141870000Y-142740000D03*
X135040000Y-137940000D03*
G04 #@! TO.N,/btn7*
X146820000Y-142770000D03*
X136250000Y-137920000D03*
G04 #@! TO.N,/btn8*
X137049412Y-137889253D03*
X151790000Y-142740000D03*
G04 #@! TO.N,/ICD3*
X137909144Y-126844802D03*
X118550000Y-126989000D03*
G04 #@! TO.N,/ICD7*
X145640147Y-125050255D03*
X145750000Y-118641000D03*
X138418615Y-108822855D03*
X126060000Y-100860000D03*
G04 #@! TO.N,/ICD6*
X131090000Y-114320000D03*
X137888922Y-124162551D03*
G04 #@! TO.N,/ICD1*
X139495403Y-121193683D03*
X107460000Y-137120000D03*
G04 #@! TO.N,/ICD4*
X125999997Y-126397000D03*
X123750000Y-121200000D03*
X124095707Y-128189000D03*
X141300000Y-127600000D03*
G04 #@! TO.N,/ICD2*
X112944531Y-131284531D03*
X138124265Y-126074265D03*
X139242500Y-126751314D03*
G04 #@! TO.N,/ICD8*
X139265735Y-108824265D03*
X146400000Y-124800000D03*
X126064000Y-97992000D03*
X146950004Y-118752946D03*
G04 #@! TO.N,/ICD5*
X140016026Y-118240000D03*
X129830000Y-115010000D03*
X139434133Y-125006948D03*
X134864285Y-119185715D03*
G04 #@! TO.N,/ICD16*
X125400000Y-62169000D03*
X107650000Y-53750000D03*
G04 #@! TO.N,/ICD9*
X128900000Y-63220000D03*
X120492546Y-54803796D03*
G04 #@! TO.N,/ICD15*
X115375000Y-58500000D03*
X124268000Y-64572000D03*
G04 #@! TO.N,/ICD14*
X122998250Y-65195999D03*
X123010000Y-61480000D03*
X124560000Y-60620000D03*
X121908672Y-68359578D03*
G04 #@! TO.N,/ICD10*
X119430000Y-60200000D03*
X128133033Y-63532086D03*
G04 #@! TO.N,/ICD11*
X127360000Y-63170000D03*
X120700000Y-60200000D03*
G04 #@! TO.N,/ICD13*
X123770942Y-65403246D03*
X122750000Y-68400000D03*
G04 #@! TO.N,/ICD19*
X78303040Y-119931208D03*
X78200000Y-118640000D03*
X82830000Y-125550000D03*
X78519280Y-121214135D03*
X67848670Y-120858384D03*
X74100000Y-118450000D03*
G04 #@! TO.N,/ICD23*
X69710000Y-109900000D03*
X69745515Y-104400000D03*
G04 #@! TO.N,/ICD18*
X71152000Y-124468313D03*
X86530000Y-131880000D03*
G04 #@! TO.N,/ICD17*
X61154185Y-111595815D03*
X60150000Y-121000000D03*
X63678305Y-108453175D03*
X84720000Y-127610205D03*
X65211476Y-114572949D03*
X87050000Y-128850000D03*
X78931310Y-120500000D03*
X93630000Y-137050000D03*
X74155000Y-119264363D03*
X71600000Y-120050000D03*
G04 #@! TO.N,/ICD20*
X70086999Y-121510000D03*
X68639591Y-120738184D03*
G04 #@! TO.N,/ICD24*
X62270000Y-93760000D03*
X67950000Y-114955000D03*
G04 #@! TO.N,/ICD26*
X72605735Y-62935735D03*
X62671000Y-75800589D03*
G04 #@! TO.N,/ICD31*
X88794554Y-61502562D03*
X80040000Y-62440000D03*
G04 #@! TO.N,/ICD30*
X78160000Y-63070000D03*
X88512417Y-62351800D03*
G04 #@! TO.N,/ICD25*
X62270000Y-76540000D03*
X73738490Y-53880000D03*
G04 #@! TO.N,/ICD29*
X76884265Y-63075735D03*
X86750000Y-71400000D03*
X96520000Y-77510000D03*
X88356428Y-63136447D03*
G04 #@! TO.N,/ICD32*
X81123568Y-62068168D03*
G04 #@! TO.N,/ICD38*
X105910000Y-122050000D03*
X85800000Y-128262904D03*
G04 #@! TO.N,/ICD40*
X98240000Y-119770000D03*
X98930000Y-121230000D03*
X84487253Y-129626498D03*
X97740000Y-114290000D03*
G04 #@! TO.N,/ICD37*
X89960000Y-125550000D03*
X86400000Y-127680000D03*
G04 #@! TO.N,/ICD39*
X97290000Y-128920000D03*
X85200000Y-129263187D03*
G04 #@! TO.N,/ICD47*
X118950000Y-97530000D03*
X123831914Y-97533284D03*
G04 #@! TO.N,/ICD43*
X105313352Y-121450000D03*
X120810000Y-81360000D03*
X116377500Y-82180507D03*
X107161104Y-111610551D03*
X95370000Y-121050000D03*
X109050000Y-111040000D03*
G04 #@! TO.N,/ICD42*
X116040129Y-83041601D03*
X120123000Y-82300000D03*
X109770000Y-107800000D03*
X121920000Y-110290000D03*
G04 #@! TO.N,/ICD45*
X115150000Y-107150000D03*
X117850000Y-94726000D03*
X117050000Y-98450000D03*
X122725000Y-91975000D03*
G04 #@! TO.N,/ICD44*
X84190000Y-113560000D03*
X116377500Y-81139922D03*
X121100000Y-80150000D03*
X107599101Y-112280000D03*
G04 #@! TO.N,/ICD46*
X122243531Y-98842060D03*
X120460000Y-101760000D03*
G04 #@! TO.N,/ICD48*
X116700000Y-94500000D03*
X124382815Y-95127000D03*
G04 #@! TO.N,/ICD51*
X83049302Y-97264932D03*
X94150000Y-107190000D03*
X79179132Y-91906666D03*
X84967065Y-81948425D03*
X87433264Y-97580000D03*
X81799995Y-82367735D03*
G04 #@! TO.N,/ICD53*
X77017000Y-84141010D03*
X77600000Y-107960000D03*
X77772723Y-91350000D03*
G04 #@! TO.N,/ICD56*
X84100000Y-98382000D03*
X76882985Y-89817015D03*
X84548866Y-78474305D03*
X76215000Y-85678980D03*
G04 #@! TO.N,/ICD49*
X109710000Y-106920000D03*
X80400000Y-92048527D03*
X81900000Y-93600173D03*
X88125507Y-97179000D03*
G04 #@! TO.N,/ICD50*
X82689031Y-93137561D03*
X105525000Y-105989000D03*
X88894303Y-96957738D03*
X81530000Y-83120800D03*
X84800000Y-83050000D03*
X80212432Y-90985462D03*
G04 #@! TO.N,/ICD52*
X83408469Y-97979775D03*
X89380000Y-106210000D03*
X84999478Y-80781769D03*
X78571924Y-91385798D03*
X86741021Y-97980999D03*
X77418000Y-83350000D03*
G04 #@! TO.N,/ICD55*
X79450000Y-84400000D03*
X76700000Y-80600000D03*
X77900000Y-80035329D03*
X84760001Y-76660001D03*
X83816740Y-95768210D03*
X80954271Y-90564372D03*
G04 #@! TO.N,/ICD54*
X76616000Y-84938299D03*
X84750000Y-77700000D03*
G04 #@! TO.N,/ICD64*
X103040000Y-58380000D03*
X126912527Y-97992000D03*
X115564872Y-72125701D03*
X141525000Y-109925000D03*
X122975000Y-76650000D03*
X113269000Y-72520000D03*
X127503870Y-93929000D03*
X125288728Y-94992743D03*
G04 #@! TO.N,/ICD58*
X105302144Y-103696572D03*
X111060000Y-98000000D03*
X108742000Y-102304825D03*
X126184265Y-95984265D03*
X124705000Y-99207027D03*
X145051000Y-102190735D03*
G04 #@! TO.N,/ICD59*
X103310000Y-94880000D03*
X144920000Y-103000000D03*
G04 #@! TO.N,/ICD57*
X150015246Y-103146104D03*
X108742000Y-101410000D03*
X126626985Y-95273015D03*
X110996418Y-97202528D03*
X106010000Y-102940000D03*
X123884265Y-99184265D03*
G04 #@! TO.N,/ICD63*
X122198247Y-65195999D03*
X145554000Y-97690628D03*
X131350000Y-62830000D03*
X121789390Y-67562081D03*
X144290000Y-108740000D03*
X111795476Y-70286537D03*
X121826470Y-63994999D03*
X102750000Y-67990000D03*
G04 #@! TO.N,/ICD61*
X144220966Y-104702361D03*
X97510000Y-83160000D03*
G04 #@! TO.N,/ICD62*
X106067952Y-86312048D03*
X145554000Y-96700000D03*
X144890000Y-107440000D03*
X142970000Y-94330000D03*
G04 #@! TO.N,/ICD60*
X98870000Y-92770000D03*
X144250000Y-103606000D03*
G04 #@! TD*
D15*
G04 #@! TO.N,Net-(d35-A)*
X103086481Y-132740000D02*
X101790000Y-132740000D01*
X103175000Y-132651481D02*
X103086481Y-132740000D01*
X101790000Y-132740000D02*
X101600000Y-132930000D01*
X101600000Y-132930000D02*
X101600000Y-137599000D01*
X101600000Y-137599000D02*
X99019000Y-140180000D01*
G04 #@! TO.N,/ICD29*
X80542257Y-63471000D02*
X78608943Y-63471000D01*
X88013440Y-63136447D02*
X87678887Y-63471000D01*
X87678887Y-63471000D02*
X81704879Y-63471000D01*
X81704879Y-63471000D02*
X81704711Y-63471168D01*
X81704711Y-63471168D02*
X80542425Y-63471168D01*
X80542425Y-63471168D02*
X80542257Y-63471000D01*
X78608943Y-63471000D02*
X78408943Y-63671000D01*
X88356428Y-63136447D02*
X88013440Y-63136447D01*
X78408943Y-63671000D02*
X77491000Y-63671000D01*
X77491000Y-63671000D02*
X76895735Y-63075735D01*
X76895735Y-63075735D02*
X76884265Y-63075735D01*
G04 #@! TO.N,/ICD30*
X88512417Y-62351800D02*
X88230987Y-62351800D01*
X87512787Y-63070000D02*
X81538779Y-63070000D01*
X88230987Y-62351800D02*
X87512787Y-63070000D01*
X81538611Y-63070168D02*
X80708525Y-63070168D01*
X81538779Y-63070000D02*
X81538611Y-63070168D01*
X80708525Y-63070168D02*
X80708357Y-63070000D01*
X80708357Y-63070000D02*
X78160000Y-63070000D01*
G04 #@! TO.N,/ICD31*
X88794554Y-61502562D02*
X88513125Y-61502562D01*
X88513125Y-61502562D02*
X87346687Y-62669000D01*
X87346687Y-62669000D02*
X81372679Y-62669000D01*
X81372679Y-62669000D02*
X81372511Y-62669168D01*
X81372511Y-62669168D02*
X80874625Y-62669168D01*
X80874625Y-62669168D02*
X80874457Y-62669000D01*
X80874457Y-62669000D02*
X80269000Y-62669000D01*
X80269000Y-62669000D02*
X80040000Y-62440000D01*
G04 #@! TO.N,/ICD64*
X121865936Y-76935936D02*
X117055701Y-72125701D01*
X122689064Y-76935936D02*
X121865936Y-76935936D01*
X122975000Y-76650000D02*
X122689064Y-76935936D01*
X117055701Y-72125701D02*
X115564872Y-72125701D01*
G04 #@! TO.N,/ICD12*
X119600321Y-61673851D02*
X118572500Y-62701672D01*
X118572500Y-62701672D02*
X118572500Y-64225000D01*
G04 #@! TO.N,/ICD15*
X119150000Y-60825000D02*
X118250735Y-59925735D01*
X119600000Y-60825000D02*
X120143550Y-61368550D01*
X119150000Y-60825000D02*
X119600000Y-60825000D01*
X116800735Y-59925735D02*
X115375000Y-58500000D01*
X118250735Y-59925735D02*
X116800735Y-59925735D01*
X120143550Y-61368550D02*
X120746000Y-61971000D01*
X121120000Y-63007100D02*
X121120000Y-64138472D01*
X120746000Y-61971000D02*
X120746000Y-62633100D01*
X120746000Y-62633100D02*
X121120000Y-63007100D01*
X121577527Y-64595999D02*
X124244001Y-64595999D01*
X121120000Y-64138472D02*
X121577527Y-64595999D01*
X124244001Y-64595999D02*
X124268000Y-64572000D01*
G04 #@! TO.N,/ICD10*
X119430000Y-60200000D02*
X119800000Y-60200000D01*
X121147000Y-61547000D02*
X121147000Y-62467000D01*
X121147000Y-62467000D02*
X122251000Y-63571000D01*
X125982143Y-63571000D02*
X126911057Y-63571000D01*
X122251000Y-63571000D02*
X124817857Y-63571000D01*
X119800000Y-60200000D02*
X121147000Y-61547000D01*
X124817857Y-63571000D02*
X124818857Y-63572000D01*
X124818857Y-63572000D02*
X125981143Y-63572000D01*
X127281155Y-63941098D02*
X127724021Y-63941098D01*
X125981143Y-63572000D02*
X125982143Y-63571000D01*
X126911057Y-63571000D02*
X127281155Y-63941098D01*
X127724021Y-63941098D02*
X128133033Y-63532086D01*
G04 #@! TO.N,/ICD11*
X120700000Y-60200000D02*
X120800000Y-60200000D01*
X124983957Y-63170000D02*
X124984957Y-63171000D01*
X124984957Y-63171000D02*
X125815043Y-63171000D01*
X122417100Y-63170000D02*
X124983957Y-63170000D01*
X121548000Y-60948000D02*
X121548000Y-62300900D01*
X121548000Y-62300900D02*
X122417100Y-63170000D01*
X120800000Y-60200000D02*
X121548000Y-60948000D01*
X125815043Y-63171000D02*
X125816043Y-63170000D01*
X125816043Y-63170000D02*
X127360000Y-63170000D01*
G04 #@! TO.N,/ICD9*
X121949000Y-60624000D02*
X121949000Y-62134800D01*
X120492546Y-55472546D02*
X121362100Y-56342100D01*
X125648943Y-62770000D02*
X125649943Y-62769000D01*
X121362100Y-56342100D02*
X121362100Y-60037100D01*
X121362100Y-60037100D02*
X121949000Y-60624000D01*
X120492546Y-54803796D02*
X120492546Y-55472546D01*
X121949000Y-62134800D02*
X122583200Y-62769000D01*
X125151057Y-62770000D02*
X125648943Y-62770000D01*
X128249000Y-62569000D02*
X128900000Y-63220000D01*
X125649943Y-62769000D02*
X126911057Y-62769000D01*
X127111057Y-62569000D02*
X128249000Y-62569000D01*
X122583200Y-62769000D02*
X125150057Y-62769000D01*
X125150057Y-62769000D02*
X125151057Y-62770000D01*
X126911057Y-62769000D02*
X127111057Y-62569000D01*
G04 #@! TO.N,/ICD16*
X121290000Y-54230000D02*
X121180000Y-54340000D01*
X121180000Y-54340000D02*
X121180000Y-55592900D01*
X122350000Y-61968700D02*
X122749300Y-62368000D01*
X121763100Y-56176000D02*
X121763100Y-59763100D01*
X121180000Y-55592900D02*
X121763100Y-56176000D01*
X121763100Y-59763100D02*
X122350000Y-60350000D01*
X122749300Y-62368000D02*
X125201000Y-62368000D01*
X122350000Y-60350000D02*
X122350000Y-61968700D01*
X125201000Y-62368000D02*
X125400000Y-62169000D01*
G04 #@! TO.N,/ICD63*
X122198247Y-65195999D02*
X122198247Y-67201753D01*
X122198247Y-67201753D02*
X121837919Y-67562081D01*
X121837919Y-67562081D02*
X121789390Y-67562081D01*
G04 #@! TO.N,/OE*
X124000000Y-69404246D02*
X124000000Y-69137325D01*
X124000000Y-69137325D02*
X124202000Y-68935325D01*
X124202000Y-67098000D02*
X124700600Y-66599400D01*
X124700600Y-66599400D02*
X125268971Y-66599400D01*
X124050000Y-69454246D02*
X124000000Y-69404246D01*
X124202000Y-68935325D02*
X124202000Y-67098000D01*
X125268971Y-66599400D02*
X125621028Y-66247343D01*
X125621028Y-66238901D02*
X125818893Y-66041036D01*
X125621028Y-66247343D02*
X125621028Y-66238901D01*
G04 #@! TO.N,/ICD45*
X118049000Y-94925000D02*
X117850000Y-94726000D01*
X122725000Y-94693000D02*
X122493000Y-94925000D01*
X122493000Y-94925000D02*
X118049000Y-94925000D01*
X122725000Y-91975000D02*
X122725000Y-94693000D01*
G04 #@! TO.N,/ICD28*
X80271000Y-64071000D02*
X80072000Y-63872000D01*
X78575043Y-64072000D02*
X77030587Y-64072000D01*
X80072000Y-63872000D02*
X78775043Y-63872000D01*
X78775043Y-63872000D02*
X78575043Y-64072000D01*
X77030587Y-64072000D02*
X75655000Y-62696413D01*
X75655000Y-62696413D02*
X75655000Y-62695000D01*
X80525000Y-64071000D02*
X80271000Y-64071000D01*
G04 #@! TO.N,/ICD23*
X69745515Y-104400000D02*
X69710000Y-104435515D01*
X69710000Y-104435515D02*
X69710000Y-109900000D01*
G04 #@! TO.N,+5V*
X117690000Y-89850000D02*
X117690000Y-88590000D01*
X117690000Y-88590000D02*
X116430000Y-87330000D01*
X116400000Y-61800000D02*
X114675000Y-60075000D01*
X114675000Y-60075000D02*
X114675000Y-57805000D01*
X114675000Y-57805000D02*
X114840000Y-57640000D01*
G04 #@! TO.N,Net-(a1-D13)*
X126800000Y-142500000D02*
X123250000Y-142500000D01*
X120720000Y-145030000D02*
X123250000Y-142500000D01*
G04 #@! TO.N,/LCD_LATCH*
X138650000Y-61320000D02*
X139775000Y-60195000D01*
X139775000Y-60195000D02*
X139775000Y-57417100D01*
X147779000Y-54701000D02*
X148880000Y-53600000D01*
X139775000Y-57417100D02*
X140150100Y-57042000D01*
X140150100Y-57042000D02*
X141492200Y-57042000D01*
X141492200Y-57042000D02*
X143383200Y-55151000D01*
X143383200Y-55151000D02*
X145356100Y-55151000D01*
X145356100Y-55151000D02*
X145806100Y-54701000D01*
X145806100Y-54701000D02*
X147779000Y-54701000D01*
G04 #@! TO.N,/LCD_CLOCK*
X138650000Y-58780000D02*
X138650000Y-57975000D01*
X138650000Y-57975000D02*
X139984000Y-56641000D01*
X141326100Y-56641000D02*
X143217100Y-54750000D01*
X139984000Y-56641000D02*
X141326100Y-56641000D01*
X143217100Y-54750000D02*
X145190000Y-54750000D01*
X145190000Y-54750000D02*
X146340000Y-53600000D01*
G04 #@! TO.N,/LCD_SERIAL*
X138650000Y-56240000D02*
X141160000Y-56240000D01*
X141160000Y-56240000D02*
X143800000Y-53600000D01*
G04 #@! TO.N,+5V*
X149200000Y-63850000D02*
X151420000Y-61630000D01*
X151420000Y-61630000D02*
X151420000Y-53600000D01*
X148300000Y-85300000D02*
X137568000Y-85300000D01*
X148600000Y-85000000D02*
X148300000Y-85300000D01*
X137568000Y-85300000D02*
X136900000Y-84632000D01*
X136900000Y-84632000D02*
X136900000Y-79400000D01*
X136900000Y-79400000D02*
X135710000Y-78210000D01*
X139600000Y-87300000D02*
X139900000Y-87000000D01*
X139900000Y-87000000D02*
X139900000Y-86100000D01*
X138997050Y-87930000D02*
X139600000Y-87327050D01*
X139600000Y-87327050D02*
X139600000Y-87300000D01*
X139900000Y-86100000D02*
X140200000Y-85800000D01*
X134200000Y-87930000D02*
X138997050Y-87930000D01*
X140200000Y-85800000D02*
X149150000Y-85800000D01*
X149150000Y-85800000D02*
X149200000Y-85750000D01*
G04 #@! TO.N,/ICD50*
X88235264Y-101161233D02*
X88235264Y-98195043D01*
X105525000Y-105989000D02*
X105326000Y-106188000D01*
X91232200Y-106188000D02*
X91211000Y-106166800D01*
X91211000Y-106166800D02*
X91211000Y-106156800D01*
X90782000Y-105727800D02*
X90782000Y-103707969D01*
X88726507Y-97125534D02*
X88894303Y-96957738D01*
X105326000Y-106188000D02*
X91232200Y-106188000D01*
X88435264Y-97719186D02*
X88726507Y-97427943D01*
X88726507Y-97427943D02*
X88726507Y-97125534D01*
X91211000Y-106156800D02*
X90782000Y-105727800D01*
X90782000Y-103707969D02*
X88235264Y-101161233D01*
X88235264Y-98195043D02*
X88435264Y-97995043D01*
X88435264Y-97995043D02*
X88435264Y-97719186D01*
G04 #@! TO.N,Net-(a1-D13)*
X131150003Y-139650000D02*
X130951000Y-139450997D01*
X130951000Y-139450997D02*
X130951000Y-139401057D01*
X147541000Y-133010300D02*
X152851000Y-127700300D01*
X146006100Y-135331000D02*
X147541000Y-133796100D01*
X130779272Y-139229329D02*
X130779272Y-137800000D01*
X130779272Y-137800000D02*
X133448272Y-135131000D01*
X130951000Y-139401057D02*
X130779272Y-139229329D01*
X133448272Y-135131000D02*
X137931000Y-135131000D01*
X138511000Y-135711000D02*
X139048943Y-135711000D01*
X153051000Y-127424000D02*
X153051000Y-126567416D01*
X137931000Y-135131000D02*
X138511000Y-135711000D01*
X139048943Y-135711000D02*
X139428943Y-135331000D01*
X147541000Y-133796100D02*
X147541000Y-133010300D01*
X139428943Y-135331000D02*
X146006100Y-135331000D01*
X152851000Y-127700300D02*
X152851000Y-127624000D01*
X152851000Y-127624000D02*
X153051000Y-127424000D01*
X153051000Y-126567416D02*
X152736731Y-126253147D01*
G04 #@! TO.N,/ICD62*
X104770000Y-87610000D02*
X104770000Y-94749000D01*
X110249175Y-95398528D02*
X111743661Y-95398528D01*
X126025985Y-95292602D02*
X126025985Y-95024072D01*
X106067952Y-86312048D02*
X104770000Y-87610000D01*
X105748000Y-95727000D02*
X109920703Y-95727000D01*
X109920703Y-95727000D02*
X110249175Y-95398528D01*
X126025985Y-95024072D02*
X126378042Y-94672015D01*
X142771000Y-94529000D02*
X142970000Y-94330000D01*
X111743661Y-95398528D02*
X112072133Y-95727000D01*
X112072133Y-95727000D02*
X125591587Y-95727000D01*
X104770000Y-94749000D02*
X105748000Y-95727000D01*
X125591587Y-95727000D02*
X126025985Y-95292602D01*
X126378042Y-94672015D02*
X126772015Y-94672015D01*
X126772015Y-94672015D02*
X126915030Y-94529000D01*
X126915030Y-94529000D02*
X142771000Y-94529000D01*
G04 #@! TO.N,/LATCH*
X129960000Y-51530000D02*
X128912000Y-50482000D01*
X113162957Y-49920000D02*
X111937957Y-51145000D01*
X121044900Y-50482000D02*
X120483900Y-49921000D01*
X115163143Y-49921000D02*
X115162143Y-49920000D01*
X111937957Y-51145000D02*
X93998464Y-51145000D01*
X93998464Y-51145000D02*
X93791214Y-50937750D01*
X128912000Y-50482000D02*
X121044900Y-50482000D01*
X120483900Y-49921000D02*
X115163143Y-49921000D01*
X115162143Y-49920000D02*
X113162957Y-49920000D01*
G04 #@! TO.N,/SER2-3*
X128320000Y-51530000D02*
X128074000Y-51284000D01*
X128074000Y-51284000D02*
X120712700Y-51284000D01*
X120712700Y-51284000D02*
X120151700Y-50723000D01*
X120151700Y-50723000D02*
X114830943Y-50723000D01*
X114830943Y-50723000D02*
X114829943Y-50722000D01*
X114829943Y-50722000D02*
X114332057Y-50722000D01*
X113981000Y-50929000D02*
X113981000Y-51368943D01*
X114332057Y-50722000D02*
X114331057Y-50723000D01*
X113981000Y-51368943D02*
X113199943Y-52150000D01*
X114331057Y-50723000D02*
X114187000Y-50723000D01*
X114187000Y-50723000D02*
X113981000Y-50929000D01*
X113199943Y-52150000D02*
X113167100Y-52150000D01*
X113167100Y-52150000D02*
X112969100Y-52348000D01*
X112969100Y-52348000D02*
X92689772Y-52348000D01*
G04 #@! TO.N,/CLOCK*
X95041926Y-50541926D02*
X95244000Y-50744000D01*
X111771857Y-50744000D02*
X113015857Y-49500000D01*
X95244000Y-50744000D02*
X111771857Y-50744000D01*
X113015857Y-49500000D02*
X120630000Y-49500000D01*
X129078100Y-50081000D02*
X129926100Y-50929000D01*
X94486431Y-50541926D02*
X95041926Y-50541926D01*
X121211000Y-50081000D02*
X129078100Y-50081000D01*
X129926100Y-50929000D02*
X130208943Y-50929000D01*
X120630000Y-49500000D02*
X121211000Y-50081000D01*
X130561000Y-51281057D02*
X130561000Y-51778943D01*
X130208943Y-50929000D02*
X130561000Y-51281057D01*
X130561000Y-51778943D02*
X130208943Y-52131000D01*
X130130007Y-52131000D02*
X130130007Y-52311730D01*
X130208943Y-52131000D02*
X130130007Y-52131000D01*
X89290463Y-52500000D02*
X87800000Y-52500000D01*
X89958114Y-51869026D02*
X89921437Y-51869026D01*
X89921437Y-51869026D02*
X89290463Y-52500000D01*
X87800000Y-52500000D02*
X87780000Y-52520000D01*
X87780000Y-52520000D02*
X87730000Y-52520000D01*
X87730000Y-52520000D02*
X87700000Y-52550000D01*
X79629000Y-57178000D02*
X79400000Y-56949000D01*
X85200000Y-52700000D02*
X84100000Y-53800000D01*
X85200000Y-52550000D02*
X85200000Y-52700000D01*
X84100000Y-54920000D02*
X83729000Y-55291000D01*
X82803900Y-57178000D02*
X79629000Y-57178000D01*
X84100000Y-53800000D02*
X84100000Y-54920000D01*
X83729000Y-55291000D02*
X83729000Y-56252900D01*
X83729000Y-56252900D02*
X82803900Y-57178000D01*
X79400000Y-56949000D02*
X79400000Y-56530000D01*
G04 #@! TO.N,/SER7-8*
X130926136Y-52390359D02*
X130298595Y-53017900D01*
X119985600Y-51124000D02*
X115376000Y-51124000D01*
X113632900Y-53150000D02*
X92215723Y-53150000D01*
X130298595Y-53017900D02*
X129797900Y-53017900D01*
X127890000Y-52190000D02*
X127385000Y-51685000D01*
X115376000Y-51124000D02*
X115182000Y-51318000D01*
X92215723Y-53150000D02*
X92214875Y-53150848D01*
X84649000Y-51101000D02*
X84150000Y-51600000D01*
X129797900Y-53017900D02*
X128970000Y-52190000D01*
X91350000Y-52783859D02*
X91350000Y-51384200D01*
X127385000Y-51685000D02*
X120546600Y-51685000D01*
X84150000Y-51600000D02*
X84150000Y-53182900D01*
X115182000Y-51600900D02*
X113632900Y-53150000D01*
X128970000Y-52190000D02*
X127890000Y-52190000D01*
X120546600Y-51685000D02*
X119985600Y-51124000D01*
X84150000Y-53182900D02*
X83699000Y-53633900D01*
X115182000Y-51318000D02*
X115182000Y-51600900D01*
X92214875Y-53150848D02*
X91716989Y-53150848D01*
X91350000Y-51384200D02*
X91066800Y-51101000D01*
X91716989Y-53150848D02*
X91350000Y-52783859D01*
X91066800Y-51101000D02*
X84649000Y-51101000D01*
X83699000Y-53633900D02*
X83699000Y-54401000D01*
X83699000Y-54401000D02*
X83470000Y-54630000D01*
G04 #@! TO.N,/SER6-7*
X91950000Y-52458755D02*
X92041093Y-52549848D01*
X114382000Y-51408000D02*
X114467000Y-51323000D01*
X92041093Y-52549848D02*
X92095618Y-52549848D01*
X92095618Y-52549848D02*
X92294770Y-52749000D01*
X92294770Y-52749000D02*
X113168043Y-52749000D01*
X113168043Y-52749000D02*
X114382000Y-51535043D01*
X114382000Y-51535043D02*
X114382000Y-51408000D01*
X114467000Y-51323000D02*
X114581000Y-51323000D01*
G04 #@! TO.N,/SER2-3*
X92688772Y-52349000D02*
X92101815Y-51762043D01*
X92101815Y-51762043D02*
X92101815Y-51568915D01*
G04 #@! TO.N,/SER5-6*
X76271000Y-50769000D02*
X77161000Y-51659000D01*
X93352758Y-51948000D02*
X93353758Y-51947000D01*
X93353758Y-51947000D02*
X112803000Y-51947000D01*
G04 #@! TO.N,/SER2-3*
X60066000Y-56125600D02*
X60066000Y-108524900D01*
X62557000Y-115370000D02*
X62811000Y-115624000D01*
X75838943Y-51277000D02*
X75341057Y-51277000D01*
X63857000Y-117093957D02*
X63858000Y-117094957D01*
G04 #@! TO.N,/SER5-6*
X66146000Y-129293100D02*
X65788000Y-128935100D01*
X74737900Y-51275000D02*
X75243900Y-50769000D01*
G04 #@! TO.N,/SER2-3*
X75341057Y-51277000D02*
X74989000Y-51629057D01*
G04 #@! TO.N,/SER5-6*
X59647000Y-108673000D02*
X59647000Y-57323000D01*
X82626800Y-51659000D02*
X83986800Y-50299000D01*
X62206057Y-118119000D02*
X62156000Y-118119000D01*
G04 #@! TO.N,/SER2-3*
X84152900Y-50700000D02*
X82792900Y-52060000D01*
G04 #@! TO.N,/SER5-6*
X59665000Y-57305000D02*
X59665000Y-55959500D01*
G04 #@! TO.N,/SER2-3*
X62811000Y-115624000D02*
X63004943Y-115624000D01*
G04 #@! TO.N,/SER5-6*
X77161000Y-51659000D02*
X81210057Y-51659000D01*
X75243900Y-50769000D02*
X76271000Y-50769000D01*
G04 #@! TO.N,/SER2-3*
X92101815Y-51568915D02*
X91232900Y-50700000D01*
X91232900Y-50700000D02*
X84152900Y-50700000D01*
X63357000Y-116377000D02*
X63857000Y-116877000D01*
X82792900Y-52060000D02*
X81876043Y-52060000D01*
X81876043Y-52060000D02*
X81875043Y-52061000D01*
X81875043Y-52061000D02*
X81044957Y-52061000D01*
X60066000Y-108524900D02*
X62557000Y-111015900D01*
X63857000Y-117926043D02*
X63857000Y-121038299D01*
X81043957Y-52060000D02*
X76621943Y-52060000D01*
G04 #@! TO.N,/SER5-6*
X65788000Y-124999300D02*
X63931700Y-123143000D01*
G04 #@! TO.N,/SER2-3*
X76621943Y-52060000D02*
X75838943Y-51277000D01*
X74989000Y-51629057D02*
X74989000Y-51676000D01*
X74989000Y-51676000D02*
X64515600Y-51676000D01*
G04 #@! TO.N,/SER5-6*
X62156000Y-111182000D02*
X59647000Y-108673000D01*
G04 #@! TO.N,/SER2-3*
X64515600Y-51676000D02*
X60066000Y-56125600D01*
X62557000Y-111015900D02*
X62557000Y-115370000D01*
X81044957Y-52061000D02*
X81043957Y-52060000D01*
G04 #@! TO.N,/SER5-6*
X64349500Y-51275000D02*
X74737900Y-51275000D01*
G04 #@! TO.N,/SER2-3*
X63357000Y-115976057D02*
X63357000Y-116377000D01*
X63857000Y-116877000D02*
X63857000Y-117093957D01*
X63858000Y-117094957D02*
X63858000Y-117925043D01*
X63004943Y-115624000D02*
X63357000Y-115976057D01*
X63858000Y-117925043D02*
X63857000Y-117926043D01*
X63857000Y-121038299D02*
X63994350Y-121175650D01*
X63994350Y-121175650D02*
X63853636Y-121316364D01*
G04 #@! TO.N,/SER5-6*
X66146000Y-130330000D02*
X66146000Y-129293100D01*
X65788000Y-128935100D02*
X65788000Y-124999300D01*
X61854000Y-118471057D02*
X62206057Y-118119000D01*
X63129029Y-123143000D02*
X62049636Y-122063607D01*
X62049636Y-122063607D02*
X62049636Y-119164579D01*
X63931700Y-123143000D02*
X63129029Y-123143000D01*
X62049636Y-119164579D02*
X61854000Y-118968943D01*
X61854000Y-118968943D02*
X61854000Y-118471057D01*
X62156000Y-118119000D02*
X62156000Y-111182000D01*
X59647000Y-57323000D02*
X59665000Y-57305000D01*
X59665000Y-55959500D02*
X64349500Y-51275000D01*
X81210057Y-51659000D02*
X81211057Y-51660000D01*
X81211057Y-51660000D02*
X81708943Y-51660000D01*
X81708943Y-51660000D02*
X81709943Y-51659000D01*
X92502815Y-51595943D02*
X92854872Y-51948000D01*
X81709943Y-51659000D02*
X82626800Y-51659000D01*
X83986800Y-50299000D02*
X91399000Y-50299000D01*
X91399000Y-50299000D02*
X92502815Y-51402815D01*
X92502815Y-51402815D02*
X92502815Y-51595943D01*
X92854872Y-51948000D02*
X93352758Y-51948000D01*
X112803000Y-51947000D02*
X113380000Y-51370000D01*
X113380000Y-51370000D02*
X113380000Y-51120000D01*
G04 #@! TO.N,/LATCH*
X90277131Y-52726474D02*
X90300000Y-52749343D01*
X90300000Y-52749343D02*
X90300000Y-54032900D01*
X89492900Y-54840000D02*
X87780000Y-54840000D01*
X90300000Y-54032900D02*
X89492900Y-54840000D01*
G04 #@! TO.N,/OE*
X90907200Y-53219442D02*
X90850000Y-53276642D01*
X87570000Y-57330000D02*
X86691000Y-57330000D01*
X90850000Y-53276642D02*
X90850000Y-54050000D01*
X90850000Y-54050000D02*
X87570000Y-57330000D01*
G04 #@! TO.N,/SER6-7*
X91530380Y-53721090D02*
X91530380Y-54002520D01*
X91530380Y-54002520D02*
X88800000Y-56732900D01*
X88800000Y-56732900D02*
X88800000Y-60000000D01*
X88800000Y-60000000D02*
X87291940Y-61508060D01*
X87291940Y-61508060D02*
X87092000Y-61508060D01*
G04 #@! TO.N,/ICD32*
X92350000Y-53750000D02*
X89201000Y-56899000D01*
X89201000Y-56899000D02*
X89201000Y-60247587D01*
G04 #@! TO.N,/OE*
X113329057Y-50321000D02*
X114996043Y-50321000D01*
X112636900Y-51546000D02*
X112741450Y-51441450D01*
X93302815Y-51546000D02*
X112636900Y-51546000D01*
X114996043Y-50321000D02*
X114997043Y-50322000D01*
X93103815Y-51347000D02*
X93302815Y-51546000D01*
X112741450Y-51441450D02*
X112741450Y-50908607D01*
X112741450Y-50908607D02*
X113329057Y-50321000D01*
X114997043Y-50322000D02*
X120317800Y-50322000D01*
X120317800Y-50322000D02*
X120878800Y-50883000D01*
X120878800Y-50883000D02*
X128613000Y-50883000D01*
X129119932Y-51389932D02*
X129119932Y-51540666D01*
X128613000Y-50883000D02*
X129119932Y-51389932D01*
G04 #@! TO.N,/ICD16*
X115825000Y-51525000D02*
X119819500Y-51525000D01*
X119819500Y-51525000D02*
X121290000Y-52995500D01*
X107650000Y-53750000D02*
X107849000Y-53551000D01*
X107849000Y-53551000D02*
X113799000Y-53551000D01*
X113799000Y-53551000D02*
X115825000Y-51525000D01*
X121290000Y-52995500D02*
X121290000Y-54230000D01*
G04 #@! TO.N,/SER5-6*
X113449943Y-73189000D02*
X112941057Y-73189000D01*
X113869000Y-59881900D02*
X113869000Y-72270057D01*
X112941057Y-73189000D02*
X112500000Y-73630057D01*
X112549000Y-55398943D02*
X112749000Y-55598943D01*
X112749000Y-55598943D02*
X112749000Y-58761900D01*
X112500000Y-54650000D02*
X112650029Y-54800029D01*
X113869000Y-72270057D02*
X113870000Y-72271057D01*
X113870000Y-72271057D02*
X113870000Y-72768943D01*
X112549000Y-54901057D02*
X112549000Y-55398943D01*
X112749000Y-58761900D02*
X113869000Y-59881900D01*
X112500000Y-73630057D02*
X112500000Y-74850000D01*
X113870000Y-72768943D02*
X113449943Y-73189000D01*
X112650029Y-54800029D02*
X112549000Y-54901057D01*
X112500000Y-74850000D02*
X113380000Y-75730000D01*
G04 #@! TO.N,/SER6-7*
X113150000Y-55150000D02*
X113150000Y-58595800D01*
X114270000Y-59715800D02*
X114270000Y-71960000D01*
X113150000Y-58595800D02*
X114270000Y-59715800D01*
X114270000Y-71960000D02*
X114965000Y-72655000D01*
G04 #@! TO.N,/LATCH*
X64159000Y-110916600D02*
X64159000Y-112113900D01*
X61269000Y-56623900D02*
X61269000Y-108026600D01*
X64159000Y-115643857D02*
X64159000Y-115951900D01*
X82356100Y-52879000D02*
X65013900Y-52879000D01*
X83352057Y-53132313D02*
X82609413Y-53132313D01*
X64159000Y-115951900D02*
X64160000Y-115952900D01*
X63359000Y-114843857D02*
X64159000Y-115643857D01*
X83359437Y-53124933D02*
X83352057Y-53132313D01*
X65013900Y-52879000D02*
X61269000Y-56623900D01*
X64160000Y-115952904D02*
X64659000Y-116451904D01*
X64659000Y-119726100D02*
X67084900Y-122152000D01*
X82609413Y-53132313D02*
X82356100Y-52879000D01*
X61269000Y-108026600D02*
X64159000Y-110916600D01*
X64159000Y-112113900D02*
X63359000Y-112913900D01*
X63359000Y-112913900D02*
X63359000Y-114843857D01*
X68122000Y-122152000D02*
X68620000Y-122650000D01*
X64160000Y-115952900D02*
X64160000Y-115952904D01*
X64659000Y-116451904D02*
X64659000Y-119726100D01*
X67084900Y-122152000D02*
X68122000Y-122152000D01*
X68620000Y-122650000D02*
X68640000Y-122650000D01*
X68640000Y-122650000D02*
X68869265Y-122879265D01*
X68869265Y-122879265D02*
X68869265Y-123050735D01*
G04 #@! TO.N,/CLOCK*
X83550000Y-52347961D02*
X83547191Y-52345152D01*
X63758000Y-111082700D02*
X63758000Y-111579170D01*
X64258000Y-119892200D02*
X67745802Y-123380000D01*
X63758000Y-111579170D02*
X62958000Y-112379170D01*
X60868000Y-56457800D02*
X60868000Y-108192700D01*
X63758000Y-116118000D02*
X63759000Y-116119000D01*
X83409248Y-52478000D02*
X64847800Y-52478000D01*
X67745802Y-123380000D02*
X68348587Y-123380000D01*
X83539287Y-52347961D02*
X83409248Y-52478000D01*
X83550000Y-52347961D02*
X83539287Y-52347961D01*
X60868000Y-108192700D02*
X63758000Y-111082700D01*
X63759000Y-116119004D02*
X64258000Y-116618004D01*
X64258000Y-116618004D02*
X64258000Y-119892200D01*
X62958000Y-112379170D02*
X62958000Y-115009957D01*
X62958000Y-115009957D02*
X63758000Y-115809957D01*
X63758000Y-115809957D02*
X63758000Y-116118000D01*
X64847800Y-52478000D02*
X60868000Y-56457800D01*
X63759000Y-116119000D02*
X63759000Y-116119004D01*
X68621735Y-123651735D02*
X69350000Y-124380000D01*
X68348587Y-123380000D02*
X68620322Y-123651735D01*
X68620322Y-123651735D02*
X68621735Y-123651735D01*
X69350000Y-124380000D02*
X69350000Y-124610000D01*
X83547191Y-52345152D02*
X83430000Y-52345152D01*
G04 #@! TO.N,/SER4-5*
X65290000Y-130490000D02*
X66440000Y-131640000D01*
X77129100Y-51060000D02*
X76437100Y-50368000D01*
X75077800Y-50368000D02*
X74571800Y-50874000D01*
X76437100Y-50368000D02*
X75077800Y-50368000D01*
X74571800Y-50874000D02*
X64183400Y-50874000D01*
X63765600Y-123544000D02*
X65290000Y-125068400D01*
X64183400Y-50874000D02*
X59264000Y-55793400D01*
X81300000Y-51060000D02*
X77129100Y-51060000D01*
X59264000Y-55793400D02*
X59264000Y-57138900D01*
X62962929Y-123544000D02*
X63765600Y-123544000D01*
X59246000Y-57156900D02*
X59246000Y-108839100D01*
X61755000Y-111348100D02*
X61755000Y-118002957D01*
X61755000Y-118002957D02*
X61453000Y-118304957D01*
X61453000Y-118304957D02*
X61453000Y-119135043D01*
X61453000Y-119135043D02*
X61648636Y-119330679D01*
X61648636Y-122229707D02*
X62962929Y-123544000D01*
X61648636Y-119330679D02*
X61648636Y-122229707D01*
X65290000Y-125068400D02*
X65290000Y-130490000D01*
X59246000Y-108839100D02*
X61755000Y-111348100D01*
X59264000Y-57138900D02*
X59246000Y-57156900D01*
X66440000Y-131640000D02*
X68300000Y-131640000D01*
G04 #@! TO.N,/ICD32*
X81123568Y-62068168D02*
X81323400Y-62268000D01*
X81323400Y-62268000D02*
X87180587Y-62268000D01*
G04 #@! TO.N,+5V*
X73847813Y-66460000D02*
X69950000Y-66460000D01*
X73892813Y-66505000D02*
X73847813Y-66460000D01*
X69950000Y-66460000D02*
X69610000Y-66120000D01*
G04 #@! TO.N,/SER7-8*
X153442767Y-97621767D02*
X153491000Y-97670000D01*
X145962830Y-87661416D02*
X145962830Y-88159302D01*
X152049000Y-96733900D02*
X152032550Y-96750350D01*
X145642000Y-89874957D02*
X145642000Y-90705043D01*
X145700000Y-87098285D02*
X145700000Y-87398586D01*
X145640000Y-89872957D02*
X145642000Y-89874957D01*
X153491000Y-97670000D02*
X153806778Y-97670000D01*
X145311000Y-86709285D02*
X145700000Y-87098285D01*
X145721000Y-88401132D02*
X145721000Y-88429000D01*
X145962830Y-88159302D02*
X145721000Y-88401132D01*
X145700000Y-87398586D02*
X145962830Y-87661416D01*
X145721000Y-88429000D02*
X145640000Y-88510000D01*
X145640000Y-88510000D02*
X145640000Y-89872957D01*
X145290715Y-86709285D02*
X145311000Y-86709285D01*
X145642000Y-90705043D02*
X145640000Y-90707043D01*
X153242884Y-97670000D02*
X153291117Y-97621767D01*
X145640000Y-90707043D02*
X146528043Y-90707043D01*
X146528043Y-90707043D02*
X152049000Y-96228000D01*
X152049000Y-96228000D02*
X152049000Y-96733900D01*
X152032550Y-96750350D02*
X152032550Y-97082550D01*
X152032550Y-97082550D02*
X152620000Y-97670000D01*
X152620000Y-97670000D02*
X153242884Y-97670000D01*
X153291117Y-97621767D02*
X153442767Y-97621767D01*
X153806778Y-97670000D02*
X153905197Y-97571581D01*
G04 #@! TO.N,Net-(d33-A)*
X80550000Y-145820000D02*
X79762510Y-145820000D01*
X79762510Y-145820000D02*
X79588303Y-145994207D01*
G04 #@! TO.N,/ICD18*
X73659530Y-134050000D02*
X73450000Y-134050000D01*
X73450000Y-134050000D02*
X70860000Y-131460000D01*
X70860000Y-131460000D02*
X69160000Y-131460000D01*
G04 #@! TO.N,/ICD19*
X78200000Y-118640000D02*
X78000000Y-118840000D01*
X78300000Y-119700000D02*
X78300000Y-119928168D01*
X78300000Y-119928168D02*
X78303040Y-119931208D01*
X78000000Y-119400000D02*
X78300000Y-119700000D01*
X78000000Y-118840000D02*
X78000000Y-119400000D01*
G04 #@! TO.N,/btn3*
X134500000Y-132090000D02*
X134500000Y-132590000D01*
X134500000Y-132590000D02*
X134380000Y-132710000D01*
X134380000Y-132710000D02*
X132317100Y-132710000D01*
X129990000Y-139290000D02*
X130350000Y-139650000D01*
X129990000Y-135037100D02*
X129990000Y-139290000D01*
X132317100Y-132710000D02*
X129990000Y-135037100D01*
G04 #@! TO.N,/LOAD(PL)*
X138163957Y-134329000D02*
X138384957Y-134108000D01*
X150853770Y-127996230D02*
X150853770Y-127109741D01*
X134800000Y-134130000D02*
X134999000Y-134329000D01*
X138384957Y-134108000D02*
X145514900Y-134108000D01*
X134999000Y-134329000D02*
X138163957Y-134329000D01*
X145514900Y-134108000D02*
X146338000Y-133284900D01*
X146338000Y-133284900D02*
X146338000Y-132512000D01*
X146338000Y-132512000D02*
X150853770Y-127996230D01*
G04 #@! TO.N,/SCK(CP)*
X132756427Y-135255745D02*
X133282172Y-134730000D01*
X146739000Y-133451000D02*
X146739000Y-132678100D01*
X138330057Y-134730000D02*
X138551057Y-134509000D01*
X139048943Y-134509000D02*
X139068943Y-134529000D01*
X139068943Y-134529000D02*
X145671000Y-134529000D01*
X146410000Y-133790000D02*
X146410000Y-133780000D01*
X132475000Y-135255745D02*
X132756427Y-135255745D01*
X133282172Y-134730000D02*
X138330057Y-134730000D01*
X138551057Y-134509000D02*
X139048943Y-134509000D01*
X145671000Y-134529000D02*
X146410000Y-133790000D01*
X146410000Y-133780000D02*
X146739000Y-133451000D01*
X151591771Y-127112438D02*
X151651721Y-127052488D01*
X146739000Y-132678100D02*
X151591771Y-127825329D01*
X151591771Y-127825329D02*
X151591771Y-127112438D01*
G04 #@! TO.N,/ICD52*
X84999478Y-80781769D02*
X84013512Y-81767735D01*
X78717422Y-81767735D02*
X77418000Y-83067157D01*
X84013512Y-81767735D02*
X78717422Y-81767735D01*
X77418000Y-83067157D02*
X77418000Y-83350000D01*
G04 #@! TO.N,/ICD51*
X84967065Y-81948425D02*
X84415490Y-82500000D01*
X81932260Y-82500000D02*
X81799995Y-82367735D01*
X84415490Y-82500000D02*
X81932260Y-82500000D01*
G04 #@! TO.N,/ICD18*
X81850000Y-131950000D02*
X86460000Y-131950000D01*
G04 #@! TO.N,/btn4*
X135850000Y-140050000D02*
X133720000Y-140050000D01*
X129930000Y-140580000D02*
X129389000Y-140039000D01*
X133720000Y-140050000D02*
X133190000Y-140580000D01*
X133190000Y-140580000D02*
X129930000Y-140580000D01*
X129389000Y-140039000D02*
X129389000Y-138491057D01*
X129389000Y-138491057D02*
X129400000Y-138480057D01*
X132151000Y-132309000D02*
X133431000Y-132309000D01*
X129400000Y-138480057D02*
X129400000Y-135060000D01*
X129400000Y-135060000D02*
X132151000Y-132309000D01*
X133431000Y-132309000D02*
X133630000Y-132110000D01*
G04 #@! TO.N,/ICD51*
X79178477Y-92294277D02*
X82750000Y-95865800D01*
X82750000Y-96750587D02*
X83049302Y-97049889D01*
X79179132Y-91906666D02*
X79178477Y-91907321D01*
X83049302Y-97049889D02*
X83049302Y-97264932D01*
X79178477Y-91907321D02*
X79178477Y-92294277D01*
X82750000Y-95865800D02*
X82750000Y-96750587D01*
G04 #@! TO.N,/ICD53*
X80695614Y-101007213D02*
X80695614Y-103854386D01*
X77586221Y-91536502D02*
X77586221Y-91836221D01*
X81948000Y-96198000D02*
X81948000Y-97580673D01*
X81948000Y-97580673D02*
X82400000Y-98032673D01*
X77772723Y-91350000D02*
X77586221Y-91536502D01*
X77586221Y-91836221D02*
X81948000Y-96198000D01*
X82400000Y-98032673D02*
X82400000Y-99302827D01*
X82400000Y-99302827D02*
X80695614Y-101007213D01*
X80695614Y-103854386D02*
X77600000Y-106950000D01*
X77600000Y-106950000D02*
X77600000Y-107960000D01*
G04 #@! TO.N,/ICD56*
X76882985Y-89817015D02*
X76882985Y-89875000D01*
X79800000Y-92348700D02*
X83150000Y-95698700D01*
X83150000Y-96500000D02*
X84100000Y-97450000D01*
X76882985Y-89875000D02*
X77757985Y-90750000D01*
X78870993Y-90750000D02*
X79800000Y-91679007D01*
X84100000Y-97450000D02*
X84100000Y-98382000D01*
X77757985Y-90750000D02*
X78870993Y-90750000D01*
X79800000Y-91679007D02*
X79800000Y-92348700D01*
X83150000Y-95698700D02*
X83150000Y-96500000D01*
G04 #@! TO.N,/ICD49*
X80400000Y-92048527D02*
X80400000Y-92100171D01*
X80400000Y-92100171D02*
X81900000Y-93600171D01*
X81900000Y-93600171D02*
X81900000Y-93600173D01*
G04 #@! TO.N,/ICD50*
X80212432Y-90985462D02*
X80212432Y-91012432D01*
X82364531Y-93137561D02*
X82689031Y-93137561D01*
X80212432Y-91012432D02*
X82137561Y-92937561D01*
X82164531Y-92937561D02*
X82364531Y-93137561D01*
X82137561Y-92937561D02*
X82164531Y-92937561D01*
G04 #@! TO.N,/ICD17*
X84720000Y-127610205D02*
X83431000Y-126321205D01*
X80379000Y-120729000D02*
X79160310Y-120729000D01*
X83431000Y-125301057D02*
X83121000Y-124991057D01*
X83121000Y-124991057D02*
X83121000Y-123471000D01*
X83431000Y-126321205D02*
X83431000Y-125301057D01*
X83121000Y-123471000D02*
X80379000Y-120729000D01*
X79160310Y-120729000D02*
X78931310Y-120500000D01*
X87050000Y-129100000D02*
X88189660Y-130239660D01*
X88189660Y-130239660D02*
X88189660Y-130689660D01*
X88189660Y-130689660D02*
X93130000Y-135630000D01*
X93130000Y-136550000D02*
X93630000Y-137050000D01*
X93130000Y-135630000D02*
X93130000Y-136550000D01*
X87050000Y-128850000D02*
X87050000Y-129100000D01*
G04 #@! TO.N,+5V*
X65690000Y-87490000D02*
X65650000Y-87450000D01*
X81480000Y-87490000D02*
X65690000Y-87490000D01*
G04 #@! TO.N,/ICD17*
X73940637Y-119050000D02*
X73020000Y-119050000D01*
X74155000Y-119264363D02*
X73940637Y-119050000D01*
X73020000Y-119050000D02*
X72020000Y-120050000D01*
X72020000Y-120050000D02*
X71600000Y-120050000D01*
G04 #@! TO.N,/ICD19*
X72210000Y-118640000D02*
X71420000Y-119430000D01*
X69300000Y-120400000D02*
X68899000Y-119999000D01*
X73910000Y-118640000D02*
X72210000Y-118640000D01*
X70200000Y-120400000D02*
X69300000Y-120400000D01*
X68451000Y-119999000D02*
X67959000Y-120491000D01*
X74100000Y-118450000D02*
X73910000Y-118640000D01*
X67959000Y-120748054D02*
X67848670Y-120858384D01*
X71420000Y-119430000D02*
X71170000Y-119430000D01*
X71170000Y-119430000D02*
X70200000Y-120400000D01*
X68899000Y-119999000D02*
X68451000Y-119999000D01*
X67959000Y-120491000D02*
X67959000Y-120748054D01*
G04 #@! TO.N,+5V*
X123700000Y-131150000D02*
X123700000Y-130900000D01*
X124450000Y-130150000D02*
X127860000Y-130150000D01*
X123700000Y-130900000D02*
X124450000Y-130150000D01*
X127860000Y-130150000D02*
X127880000Y-130130000D01*
X108500000Y-87350000D02*
X116410000Y-87350000D01*
X116410000Y-87350000D02*
X116430000Y-87330000D01*
G04 #@! TO.N,/SERIAL*
X141489000Y-118041000D02*
X141350000Y-118180000D01*
X144145100Y-94316043D02*
X145033143Y-94316043D01*
X150615246Y-100769146D02*
X150615246Y-103885602D01*
X150227458Y-115396786D02*
X151958637Y-115396786D01*
X150599000Y-118041000D02*
X141489000Y-118041000D01*
X142872069Y-93043012D02*
X144145100Y-94316043D01*
X150019810Y-115189138D02*
X150227458Y-115396786D01*
X141350000Y-118180000D02*
X141350000Y-118240000D01*
X152310694Y-115748843D02*
X152310694Y-116329306D01*
X152310694Y-116329306D02*
X150599000Y-118041000D01*
X148423550Y-98577450D02*
X150615246Y-100769146D01*
X148423550Y-97706452D02*
X148423550Y-98577450D01*
X151958637Y-115396786D02*
X152310694Y-115748843D01*
X145033143Y-94316043D02*
X148423550Y-97706452D01*
X150615246Y-103885602D02*
X150650557Y-103920913D01*
X142261883Y-93043012D02*
X142872069Y-93043012D01*
G04 #@! TO.N,/LOAD(PL)*
X152342508Y-99905322D02*
X152342508Y-100809341D01*
X143635000Y-91537543D02*
X144809500Y-92712043D01*
X152487269Y-100954102D02*
X152487269Y-101282203D01*
X143635000Y-90494595D02*
X143635000Y-91537543D01*
X152195486Y-99758300D02*
X152342508Y-99905322D01*
X150027550Y-97042050D02*
X150027550Y-97913050D01*
X152342508Y-100809341D02*
X152487269Y-100954102D01*
X152148256Y-99688373D02*
X152195486Y-99735603D01*
X152195486Y-99735603D02*
X152195486Y-99758300D01*
X152148256Y-99675000D02*
X152148256Y-99688373D01*
X150027550Y-97913050D02*
X151789500Y-99675000D01*
X151789500Y-99675000D02*
X152148256Y-99675000D01*
X144809500Y-92712043D02*
X145697543Y-92712043D01*
X143436000Y-90295595D02*
X143635000Y-90494595D01*
X145697543Y-92712043D02*
X150027550Y-97042050D01*
G04 #@! TO.N,/LATCH*
X123802247Y-67416153D02*
X123801000Y-67417400D01*
X78130000Y-57380000D02*
X78329000Y-57579000D01*
X79679943Y-57579000D02*
X82970000Y-57579000D01*
X123802247Y-66788984D02*
X123802247Y-67416153D01*
X149225550Y-97374252D02*
X149225550Y-98245250D01*
X151486269Y-102494015D02*
X151773000Y-102780746D01*
X142696022Y-91715720D02*
X142833000Y-91852698D01*
X80734769Y-78051769D02*
X81000000Y-78317000D01*
X124592831Y-65998400D02*
X123802247Y-66788984D01*
X62851636Y-121731407D02*
X63461229Y-122341000D01*
X150910000Y-116490000D02*
X150910000Y-116020000D01*
X68520000Y-127180000D02*
X68440000Y-127100000D01*
X63055000Y-120697957D02*
X62851636Y-120901321D01*
X142833000Y-91869743D02*
X144477300Y-93514043D01*
X147873970Y-115849000D02*
X147872970Y-115850000D01*
X135791000Y-116673900D02*
X136337100Y-117220000D01*
X82799451Y-72531950D02*
X84599000Y-70732401D01*
X151486269Y-100866160D02*
X151485269Y-100867160D01*
X147375084Y-115850000D02*
X147374084Y-115849000D01*
X63055000Y-118470057D02*
X63056000Y-118471057D01*
X136830000Y-112880000D02*
X136430000Y-112880000D01*
X151485269Y-100867160D02*
X151485269Y-101697246D01*
X148409846Y-115650000D02*
X148210846Y-115849000D01*
X149225550Y-98245250D02*
X151457300Y-100477000D01*
X82799451Y-76919251D02*
X82799451Y-72531950D01*
X85200000Y-70131401D02*
X85200000Y-69948438D01*
X140779000Y-115549000D02*
X140779000Y-114089000D01*
X150180000Y-117220000D02*
X150910000Y-116490000D01*
X80596785Y-78051769D02*
X80734769Y-78051769D01*
X151486269Y-100477000D02*
X151486269Y-100866160D01*
X63461229Y-122341000D02*
X64263900Y-122341000D01*
X123450000Y-69120225D02*
X123450000Y-69809029D01*
X136430000Y-112880000D02*
X135791000Y-113519000D01*
X147374084Y-115849000D02*
X141079000Y-115849000D01*
X141079000Y-115849000D02*
X140779000Y-115549000D01*
X123801000Y-67417400D02*
X123801000Y-68769225D01*
X140779000Y-114089000D02*
X139520000Y-112830000D01*
X136337100Y-117220000D02*
X150180000Y-117220000D01*
X123801000Y-68769225D02*
X123450000Y-69120225D01*
X136840000Y-112890000D02*
X136830000Y-112880000D01*
X142833000Y-91852698D02*
X142833000Y-91869743D01*
X79180057Y-57579000D02*
X79181057Y-57580000D01*
X79181057Y-57580000D02*
X79678943Y-57580000D01*
X82970000Y-57579000D02*
X85069000Y-55480000D01*
X148210846Y-115849000D02*
X147873970Y-115849000D01*
X151486269Y-101698246D02*
X151486269Y-102494015D01*
X147872970Y-115850000D02*
X147375084Y-115850000D01*
X144477300Y-93514043D02*
X145365341Y-93514043D01*
X62856000Y-117510000D02*
X63055000Y-117709000D01*
X66590000Y-124667100D02*
X66590000Y-126030000D01*
X84951057Y-70147441D02*
X85183960Y-70147441D01*
X84599000Y-70732401D02*
X84599000Y-70499498D01*
X62851636Y-120901321D02*
X62851636Y-121731407D01*
X63056000Y-118471057D02*
X63056000Y-118968943D01*
X151485269Y-101697246D02*
X151486269Y-101698246D01*
X81401702Y-78317000D02*
X82799451Y-76919251D01*
X78329000Y-57579000D02*
X79180057Y-57579000D01*
X63055000Y-118969943D02*
X63055000Y-120697957D01*
X84599000Y-70499498D02*
X84951057Y-70147441D01*
X148830000Y-115650000D02*
X148409846Y-115650000D01*
X135791000Y-113519000D02*
X135791000Y-116673900D01*
X151457300Y-100477000D02*
X151486269Y-100477000D01*
X125020028Y-65998400D02*
X124592831Y-65998400D01*
X145365341Y-93514043D02*
X149225550Y-97374252D01*
X85183960Y-70147441D02*
X85200000Y-70131401D01*
X142634000Y-91715720D02*
X142696022Y-91715720D01*
X63055000Y-117709000D02*
X63055000Y-118470057D01*
X138650000Y-76560000D02*
X138254200Y-76560000D01*
X81000000Y-78317000D02*
X81401702Y-78317000D01*
X63056000Y-118968943D02*
X63055000Y-118969943D01*
X64263900Y-122341000D02*
X66590000Y-124667100D01*
X123450000Y-69809029D02*
X123356998Y-69902031D01*
X66590000Y-126030000D02*
X67730000Y-127170000D01*
X79678943Y-57580000D02*
X79679943Y-57579000D01*
X78130000Y-56530000D02*
X78130000Y-57380000D01*
G04 #@! TO.N,/CE*
X145307800Y-91509043D02*
X146195843Y-91509043D01*
X144130000Y-132960000D02*
X144130000Y-133099943D01*
X132490000Y-131709000D02*
X132709000Y-131490000D01*
X152287800Y-98472000D02*
X152897543Y-98472000D01*
X153398486Y-99260000D02*
X153551256Y-99107230D01*
X144838000Y-91039243D02*
X145307800Y-91509043D01*
X145937000Y-132345900D02*
X150253770Y-128029130D01*
X152897543Y-98472000D02*
X152897543Y-98676100D01*
X144838000Y-90374843D02*
X144838000Y-91039243D01*
X146195843Y-91509043D02*
X151230550Y-96543750D01*
X145937000Y-132833000D02*
X145937000Y-132345900D01*
X150931200Y-118843000D02*
X150028000Y-118843000D01*
X145179000Y-133591000D02*
X145937000Y-132833000D01*
X151230550Y-96543750D02*
X151230550Y-97414750D01*
X144838000Y-88236472D02*
X144838000Y-90284100D01*
X150028000Y-118843000D02*
X149829000Y-119042000D01*
X153716508Y-117413897D02*
X153702611Y-117400000D01*
X144840000Y-90286100D02*
X144840000Y-90372843D01*
X144512594Y-87628222D02*
X144512594Y-87911066D01*
X153702611Y-117400000D02*
X152374200Y-117400000D01*
X135062900Y-131490000D02*
X136374900Y-132802000D01*
X152374200Y-117400000D02*
X150931200Y-118843000D01*
X144621057Y-133591000D02*
X145179000Y-133591000D01*
X144130000Y-133099943D02*
X144621057Y-133591000D01*
X150253770Y-128029130D02*
X150253770Y-126735200D01*
X136374900Y-132802000D02*
X138005043Y-132802000D01*
X144512594Y-87911066D02*
X144838000Y-88236472D01*
X153398486Y-98911000D02*
X153398486Y-99260000D01*
X138005043Y-132802000D02*
X138145043Y-132662000D01*
X144840000Y-90372843D02*
X144838000Y-90374843D01*
X143832000Y-132662000D02*
X144130000Y-132960000D01*
X150253770Y-126735200D02*
X150176105Y-126657535D01*
X151230550Y-97414750D02*
X152287800Y-98472000D01*
X144838000Y-90284100D02*
X144840000Y-90286100D01*
X152897543Y-98676100D02*
X153132443Y-98911000D01*
X153132443Y-98911000D02*
X153398486Y-98911000D01*
X132709000Y-131490000D02*
X135062900Y-131490000D01*
X138145043Y-132662000D02*
X143832000Y-132662000D01*
G04 #@! TO.N,+5V*
X62809579Y-123957750D02*
X62391829Y-123540000D01*
X77217000Y-85213000D02*
X76880000Y-85550000D01*
X143619966Y-105530966D02*
X143619966Y-104668461D01*
X77300000Y-80916757D02*
X77300000Y-80849943D01*
X122685865Y-54465679D02*
X122685865Y-54669460D01*
X122135029Y-55220296D02*
X122103794Y-55220296D01*
X71951000Y-62549000D02*
X71300000Y-62549000D01*
X72265000Y-62211923D02*
X72265000Y-62235000D01*
X143248000Y-104296495D02*
X143248000Y-97150300D01*
X114900000Y-82750000D02*
X116660000Y-84510000D01*
X80200000Y-84217100D02*
X80451000Y-83966100D01*
X82600000Y-87550000D02*
X82340000Y-87290000D01*
X68210000Y-59459000D02*
X68210000Y-58750000D01*
X63975000Y-133365000D02*
X63975000Y-133385000D01*
X80930000Y-84840000D02*
X80930000Y-82367735D01*
X144690057Y-109990000D02*
X143689000Y-108988943D01*
X113500000Y-85080000D02*
X114960000Y-86540000D01*
X145941000Y-104367815D02*
X147483815Y-102825000D01*
X75614000Y-82602757D02*
X77300000Y-80916757D01*
X150780000Y-136890000D02*
X150780000Y-140880057D01*
X61750000Y-135610000D02*
X61730000Y-135610000D01*
X126800000Y-126397000D02*
X126999000Y-126596000D01*
X126399358Y-54234556D02*
X126394802Y-54230000D01*
X78883522Y-82168735D02*
X78018972Y-83033285D01*
X78170000Y-78230000D02*
X78170000Y-75255000D01*
X116660000Y-86170000D02*
X117110000Y-86620000D01*
X63612250Y-123957750D02*
X62809579Y-123957750D01*
X147680000Y-109990000D02*
X144690057Y-109990000D01*
X64889000Y-131201000D02*
X64889000Y-125234500D01*
X113336393Y-74836450D02*
X113749971Y-75250029D01*
X62391829Y-123540000D02*
X58340000Y-123540000D01*
X123500000Y-54230000D02*
X122921544Y-54230000D01*
X77300000Y-80849943D02*
X77301000Y-80848943D01*
X77300000Y-80350057D02*
X77300000Y-79100000D01*
X64889000Y-125234500D02*
X63612250Y-123957750D01*
X113053550Y-74836450D02*
X113336393Y-74836450D01*
X113749971Y-75250029D02*
X113981000Y-75481057D01*
X63975000Y-133385000D02*
X61750000Y-135610000D01*
X113500000Y-76500000D02*
X113500000Y-85080000D01*
X76880000Y-85863923D02*
X76463943Y-86279980D01*
X80200000Y-85050000D02*
X80200000Y-84217100D01*
X143619966Y-104668461D02*
X143248000Y-104296495D01*
X126999000Y-126596000D02*
X130054000Y-126596000D01*
X143032700Y-96935000D02*
X140650000Y-96935000D01*
X80451000Y-83966100D02*
X80451000Y-82851000D01*
X143689000Y-108988943D02*
X143689000Y-108491057D01*
X77300000Y-79100000D02*
X78170000Y-78230000D01*
X139740000Y-97845000D02*
X139740000Y-98290000D01*
X152391000Y-142491057D02*
X152391000Y-145349000D01*
X113190000Y-73790000D02*
X112901000Y-74079000D01*
X77618000Y-83999943D02*
X77618000Y-84389953D01*
X152391000Y-145349000D02*
X150810000Y-146930000D01*
X77618000Y-84389953D02*
X77217000Y-84790953D01*
X139740000Y-98290000D02*
X139875000Y-98425000D01*
X71300000Y-62549000D02*
X68210000Y-59459000D01*
X143248000Y-97150300D02*
X143032700Y-96935000D01*
X116660000Y-84510000D02*
X116660000Y-86170000D01*
X112901000Y-74079000D02*
X112901000Y-74683900D01*
X75614000Y-85927923D02*
X75614000Y-82602757D01*
X80451000Y-82851000D02*
X79768735Y-82168735D01*
X143689000Y-108491057D02*
X143889000Y-108291057D01*
X76880000Y-85550000D02*
X76880000Y-85863923D01*
X77301000Y-80351057D02*
X77300000Y-80350057D01*
X150780000Y-140880057D02*
X152391000Y-142491057D01*
X126394802Y-54230000D02*
X123500000Y-54230000D01*
X113981000Y-76019000D02*
X113500000Y-76500000D01*
X122685865Y-54669460D02*
X122135029Y-55220296D01*
X72265000Y-62235000D02*
X71951000Y-62549000D01*
X79768735Y-82168735D02*
X78883522Y-82168735D01*
X77301000Y-80848943D02*
X77301000Y-80351057D01*
X130054000Y-126596000D02*
X133350000Y-123300000D01*
X143889000Y-105800000D02*
X143619966Y-105530966D01*
X113981000Y-75481057D02*
X113981000Y-76019000D01*
X77217000Y-84790953D02*
X77217000Y-85213000D01*
X75966058Y-86279980D02*
X75614000Y-85927923D01*
X82340000Y-87290000D02*
X82340000Y-87190000D01*
X83200000Y-88250000D02*
X83200000Y-87110000D01*
X114960000Y-86540000D02*
X115120000Y-86540000D01*
X112901000Y-74683900D02*
X113053550Y-74836450D01*
X82340000Y-87190000D02*
X80200000Y-85050000D01*
X143889000Y-108291057D02*
X143889000Y-105800000D01*
X140650000Y-96935000D02*
X139740000Y-97845000D01*
X78018972Y-83598971D02*
X77618000Y-83999943D01*
X76463943Y-86279980D02*
X75966058Y-86279980D01*
X122921544Y-54230000D02*
X122685865Y-54465679D01*
X78018972Y-83033285D02*
X78018972Y-83598971D01*
X61845000Y-134245000D02*
X64889000Y-131201000D01*
X147483815Y-102825000D02*
X148800000Y-102825000D01*
G04 #@! TO.N,/SEROUT*
X138880000Y-134930000D02*
X138800000Y-135010000D01*
X152450000Y-127534200D02*
X147140000Y-132844200D01*
X147140000Y-132844200D02*
X147140000Y-133630000D01*
X152121700Y-98873000D02*
X152527343Y-98873000D01*
X144238000Y-88696271D02*
X144437000Y-88895271D01*
X153364000Y-99830000D02*
X153377000Y-99817000D01*
X153377000Y-99817000D02*
X153377000Y-99888023D01*
X147140000Y-133630000D02*
X145840000Y-134930000D01*
X152450000Y-127000000D02*
X152450000Y-127534200D01*
X152950256Y-99356173D02*
X152997486Y-99403403D01*
X153232386Y-99661000D02*
X153255083Y-99661000D01*
X144437000Y-88895271D02*
X144437000Y-91205343D01*
X145840000Y-134930000D02*
X138880000Y-134930000D01*
X150829550Y-97580850D02*
X152121700Y-98873000D01*
X153255083Y-99661000D02*
X153302313Y-99708230D01*
X152950256Y-99295913D02*
X152950256Y-99356173D01*
X145141700Y-91910043D02*
X146029745Y-91910043D01*
X152527343Y-98873000D02*
X152950256Y-99295913D01*
X146029745Y-91910043D02*
X150829550Y-96709850D01*
X150829550Y-96709850D02*
X150829550Y-97580850D01*
X144437000Y-91205343D02*
X145141700Y-91910043D01*
X138800000Y-135010000D02*
X138800000Y-135110000D01*
X153364000Y-99708230D02*
X153364000Y-99830000D01*
X152997486Y-99403403D02*
X152997486Y-99426100D01*
X152997486Y-99426100D02*
X153232386Y-99661000D01*
X153302313Y-99708230D02*
X153364000Y-99708230D01*
G04 #@! TO.N,/OE*
X149701000Y-116819000D02*
X150083390Y-116436610D01*
X151085269Y-100700060D02*
X151084269Y-100701060D01*
X151085269Y-100672069D02*
X151085269Y-100700060D01*
X62450636Y-118724364D02*
X62450636Y-121897507D01*
X136870000Y-115500000D02*
X136870000Y-115660000D01*
X84050000Y-57980000D02*
X84215735Y-58145735D01*
X142712877Y-92316720D02*
X144311200Y-93915043D01*
X78378943Y-57981000D02*
X78379943Y-57980000D01*
X65060000Y-116285800D02*
X64561000Y-115786800D01*
X83200451Y-77085351D02*
X83200451Y-72698050D01*
X80650000Y-78850000D02*
X80782000Y-78718000D01*
X151085269Y-101864346D02*
X151085269Y-103224250D01*
X61670000Y-107860500D02*
X61670000Y-56790000D01*
X83200451Y-72698050D02*
X85150060Y-70748441D01*
X137999000Y-116819000D02*
X149701000Y-116819000D01*
X149320000Y-116360000D02*
X140200000Y-116360000D01*
X80782000Y-78718000D02*
X81567802Y-78718000D01*
X151084269Y-100701060D02*
X151084269Y-101863346D01*
X142304664Y-92236327D02*
X142385057Y-92316720D01*
X150083390Y-116436610D02*
X150083390Y-115986610D01*
X67170000Y-129750000D02*
X67747000Y-129750000D01*
X64561000Y-115786800D02*
X64561000Y-115478757D01*
X67251000Y-121751000D02*
X65060000Y-119560000D01*
X61670000Y-56790000D02*
X65180000Y-53280000D01*
X84585735Y-58145735D02*
X84920000Y-58480000D01*
X78379943Y-57980000D02*
X84050000Y-57980000D01*
X140200000Y-116360000D02*
X139330000Y-115490000D01*
X64561000Y-115478757D02*
X63760000Y-114677757D01*
X64561000Y-110751500D02*
X61670000Y-107860500D01*
X63295129Y-122742000D02*
X64097800Y-122742000D01*
X69261000Y-122381057D02*
X68630943Y-121751000D01*
X142385057Y-92316720D02*
X142712877Y-92316720D01*
X68630943Y-121751000D02*
X67251000Y-121751000D01*
X69780370Y-122901842D02*
X69261000Y-122382470D01*
X65180000Y-53280000D02*
X82190000Y-53280000D01*
X82826664Y-53916664D02*
X83099000Y-53916664D01*
X136910000Y-115700000D02*
X136910000Y-115730000D01*
X64097800Y-122742000D02*
X66189000Y-124833200D01*
X138650000Y-79100000D02*
X138650000Y-78980000D01*
X142022297Y-92236327D02*
X142304664Y-92236327D01*
X78111000Y-57981000D02*
X78378943Y-57981000D01*
X82190000Y-53280000D02*
X82826664Y-53916664D01*
X64561000Y-112279000D02*
X64561000Y-110751500D01*
X81567802Y-78718000D02*
X83200451Y-77085351D01*
X84215735Y-58145735D02*
X84585735Y-58145735D01*
X63760000Y-114677757D02*
X63760000Y-113080000D01*
X69261000Y-122382470D02*
X69261000Y-122381057D01*
X63760000Y-113080000D02*
X64561000Y-112279000D01*
X85150060Y-70748441D02*
X85200000Y-70748441D01*
X66189000Y-128769000D02*
X67170000Y-129750000D01*
X66189000Y-124833200D02*
X66189000Y-128769000D01*
X65060000Y-119560000D02*
X65060000Y-116285800D01*
X148824550Y-98411350D02*
X151085269Y-100672069D01*
X62455000Y-118720000D02*
X62450636Y-118724364D01*
X145199243Y-93915043D02*
X148824550Y-97540352D01*
X144311200Y-93915043D02*
X145199243Y-93915043D01*
X62450636Y-121897507D02*
X63295129Y-122742000D01*
X151085269Y-103224250D02*
X151216246Y-103355227D01*
X151084269Y-101863346D02*
X151085269Y-101864346D01*
X148824550Y-97540352D02*
X148824550Y-98411350D01*
X76860000Y-56730000D02*
X78111000Y-57981000D01*
X76860000Y-56560000D02*
X76860000Y-56730000D01*
X136870000Y-115660000D02*
X136910000Y-115700000D01*
X136910000Y-115730000D02*
X137999000Y-116819000D01*
X149430000Y-116250000D02*
X149320000Y-116360000D01*
G04 #@! TO.N,/CLOCK*
X123400000Y-67251300D02*
X123401247Y-67250053D01*
X68030000Y-124020000D02*
X68590000Y-124580000D01*
X82398451Y-76753151D02*
X81950801Y-77200801D01*
X85148495Y-69150000D02*
X84599000Y-69699495D01*
X122801999Y-69201126D02*
X123400000Y-68603125D01*
X66510000Y-124020000D02*
X68030000Y-124020000D01*
X82398451Y-72365850D02*
X82398451Y-76753151D01*
X63457000Y-117758943D02*
X63456000Y-117759943D01*
X151886269Y-101033260D02*
X151887269Y-101032260D01*
X84599000Y-69699495D02*
X84599000Y-69932398D01*
X123400000Y-68603125D02*
X123400000Y-67251300D01*
X145531443Y-93113043D02*
X144643400Y-93113043D01*
X123401247Y-67250053D02*
X123401247Y-66622884D01*
X141245100Y-115448000D02*
X141180000Y-115382900D01*
X68590000Y-124640000D02*
X68450000Y-124500000D01*
X63456000Y-120864057D02*
X63252636Y-121067421D01*
X62761000Y-116565057D02*
X63457000Y-117261057D01*
X149626550Y-97208150D02*
X145531443Y-93113043D01*
X81950801Y-77200801D02*
X80950801Y-77200801D01*
X140810000Y-113552900D02*
X140810000Y-111160000D01*
X143234000Y-91703643D02*
X143234000Y-91210968D01*
X151709694Y-116260306D02*
X151709694Y-115997786D01*
X152174000Y-102066463D02*
X152230000Y-102010463D01*
X124371942Y-65652189D02*
X124371942Y-65508486D01*
X63627329Y-121940000D02*
X64430000Y-121940000D01*
X84198000Y-70566301D02*
X82398451Y-72365850D01*
X148230000Y-115052988D02*
X148230000Y-115120000D01*
X80950801Y-77200801D02*
X80600000Y-76850000D01*
X135960000Y-110440000D02*
X135390000Y-111010000D01*
X64430000Y-121940000D02*
X66510000Y-124020000D01*
X147902000Y-115448000D02*
X141245100Y-115448000D01*
X140100000Y-110450000D02*
X139390000Y-110450000D01*
X143234000Y-91210968D02*
X143035000Y-91011968D01*
X140810000Y-111160000D02*
X140100000Y-110450000D01*
X141180000Y-115382900D02*
X141180000Y-113922900D01*
X68590000Y-124580000D02*
X68590000Y-124640000D01*
X152230000Y-101874877D02*
X151886269Y-101531146D01*
X84198000Y-70333398D02*
X84198000Y-70566301D01*
X62756000Y-116225000D02*
X62761000Y-116230000D01*
X84599000Y-69932398D02*
X84198000Y-70333398D01*
X141180000Y-113922900D02*
X140810000Y-113552900D01*
X151623400Y-100076000D02*
X149626550Y-98079150D01*
X151887269Y-101032260D02*
X151887269Y-100076000D01*
X148230000Y-115120000D02*
X147902000Y-115448000D01*
X152230000Y-102010463D02*
X152230000Y-101874877D01*
X150330000Y-117640000D02*
X151709694Y-116260306D01*
X63457000Y-117261057D02*
X63457000Y-117758943D01*
X151886269Y-101531146D02*
X151886269Y-101033260D01*
X124371942Y-65508486D02*
X124565999Y-65314429D01*
X63252636Y-121565307D02*
X63627329Y-121940000D01*
X85150000Y-69150000D02*
X85148495Y-69150000D01*
X135390000Y-111010000D02*
X135390000Y-116840000D01*
X68450000Y-124500000D02*
X68450000Y-124460000D01*
X144643400Y-93113043D02*
X143234000Y-91703643D01*
X149626550Y-98079150D02*
X149626550Y-97208150D01*
X123401247Y-66622884D02*
X124371942Y-65652189D01*
X63456000Y-117759943D02*
X63456000Y-120864057D01*
X62761000Y-116230000D02*
X62761000Y-116565057D01*
X136850000Y-110440000D02*
X135960000Y-110440000D01*
X135390000Y-116840000D02*
X136190000Y-117640000D01*
X136190000Y-117640000D02*
X150330000Y-117640000D01*
X63252636Y-121067421D02*
X63252636Y-121565307D01*
X151887269Y-100076000D02*
X151623400Y-100076000D01*
G04 #@! TO.N,/SCK(CP)*
X151955600Y-99274000D02*
X152361243Y-99274000D01*
X152596486Y-99592200D02*
X152776000Y-99771714D01*
X143837000Y-89496274D02*
X144036000Y-89695274D01*
X152549256Y-99462013D02*
X152549256Y-99522273D01*
X150428550Y-97746950D02*
X151955600Y-99274000D01*
X145863643Y-92311043D02*
X150428550Y-96875950D01*
X152776000Y-100136966D02*
X152943508Y-100304474D01*
X152549256Y-99522273D02*
X152596486Y-99569503D01*
X144975600Y-92311043D02*
X145863643Y-92311043D01*
X152596486Y-99569503D02*
X152596486Y-99592200D01*
X152943508Y-100304474D02*
X152943508Y-100560398D01*
X152361243Y-99274000D02*
X152549256Y-99462013D01*
X152776000Y-99771714D02*
X152776000Y-100136966D01*
X144036000Y-91371443D02*
X144975600Y-92311043D01*
X144036000Y-89695274D02*
X144036000Y-91371443D01*
X150428550Y-96875950D02*
X150428550Y-97746950D01*
G04 #@! TO.N,Net-(d33-A)*
X77850000Y-146440000D02*
X66285000Y-146440000D01*
X78295793Y-145994207D02*
X77850000Y-146440000D01*
X66285000Y-146440000D02*
X64032500Y-144187500D01*
X79588303Y-145994207D02*
X78295793Y-145994207D01*
G04 #@! TO.N,Net-(d40-A)*
X101820000Y-118920000D02*
X101845000Y-118895000D01*
X101845000Y-115505000D02*
X100610000Y-114270000D01*
X101845000Y-118895000D02*
X101845000Y-115505000D01*
G04 #@! TO.N,/SER1-2*
X149579057Y-118442000D02*
X149580057Y-118441000D01*
X122620000Y-52700000D02*
X123234000Y-52086000D01*
X153965451Y-116812897D02*
X154024510Y-116871955D01*
X145320000Y-88262900D02*
X145239000Y-88343900D01*
X145239000Y-90540943D02*
X145239000Y-90873143D01*
X122630000Y-53920000D02*
X122620000Y-53910000D01*
X145320000Y-87952189D02*
X145320000Y-88262900D01*
X149580057Y-118441000D02*
X150077943Y-118441000D01*
X150078943Y-118442000D02*
X150765100Y-118442000D01*
X122620000Y-53910000D02*
X122620000Y-52700000D01*
X122630000Y-53954444D02*
X122630000Y-53920000D01*
X153467565Y-116812897D02*
X153965451Y-116812897D01*
X153281462Y-116999000D02*
X153467565Y-116812897D01*
X145361830Y-87910359D02*
X145320000Y-87952189D01*
X130865695Y-53017900D02*
X131422313Y-53017900D01*
X146361943Y-91108043D02*
X151648000Y-96394100D01*
X151648000Y-96567800D02*
X151631550Y-96584250D01*
X150077943Y-118441000D02*
X150078943Y-118442000D01*
X127218900Y-52086000D02*
X127723900Y-52591000D01*
X151648000Y-96394100D02*
X151648000Y-96567800D01*
X145239000Y-88343900D02*
X145239000Y-90118000D01*
X153863009Y-98443420D02*
X153863009Y-98370470D01*
X151631550Y-97248650D02*
X152453900Y-98071000D01*
X148058000Y-118442000D02*
X149579057Y-118442000D01*
X145241000Y-90120000D02*
X145241000Y-90538943D01*
X122084865Y-54420517D02*
X122163927Y-54420517D01*
X127723900Y-52591000D02*
X128803900Y-52591000D01*
X145239000Y-90873143D02*
X145473900Y-91108043D01*
X153800199Y-98506230D02*
X153863009Y-98443420D01*
X130464695Y-53418900D02*
X130865695Y-53017900D01*
X150765100Y-118442000D02*
X152208100Y-116999000D01*
X128803900Y-52591000D02*
X129631800Y-53418900D01*
X152208100Y-116999000D02*
X153281462Y-116999000D01*
X145473900Y-91108043D02*
X146361943Y-91108043D01*
X151631550Y-96584250D02*
X151631550Y-97248650D01*
X147750000Y-118750000D02*
X148058000Y-118442000D01*
X153298543Y-98071000D02*
X153298543Y-98510000D01*
X123234000Y-52086000D02*
X127218900Y-52086000D01*
X122163927Y-54420517D02*
X122630000Y-53954444D01*
X153298543Y-98510000D02*
X153302313Y-98506230D01*
X152453900Y-98071000D02*
X153298543Y-98071000D01*
X129631800Y-53418900D02*
X130464695Y-53418900D01*
X145241000Y-90538943D02*
X145239000Y-90540943D01*
X154024510Y-116871955D02*
X154153000Y-116743465D01*
X145239000Y-90118000D02*
X145241000Y-90120000D01*
X153302313Y-98506230D02*
X153800199Y-98506230D01*
G04 #@! TO.N,/SER3-4*
X63158000Y-111049800D02*
X60467000Y-108358800D01*
X75391000Y-52077000D02*
X75590000Y-51878000D01*
X64681700Y-52077000D02*
X75391000Y-52077000D01*
X60467000Y-108358800D02*
X60467000Y-56291700D01*
X63158000Y-111329227D02*
X63158000Y-111049800D01*
X60467000Y-56291700D02*
X64681700Y-52077000D01*
X63157000Y-111330227D02*
X63158000Y-111329227D01*
G04 #@! TO.N,/SER6-7*
X82579057Y-78273845D02*
X82579057Y-78593900D01*
X83601451Y-77251451D02*
X82579057Y-78273845D01*
X83601451Y-72948549D02*
X83601451Y-77251451D01*
X85200000Y-71548444D02*
X85001556Y-71548444D01*
X82579057Y-78593900D02*
X81853957Y-79319000D01*
X85001556Y-71548444D02*
X83601451Y-72948549D01*
X81853957Y-79319000D02*
X81350000Y-79319000D01*
G04 #@! TO.N,/SER7-8*
X83797000Y-70167298D02*
X83797000Y-70400000D01*
X154152256Y-98931166D02*
X154464009Y-98619413D01*
X154010000Y-100400000D02*
X154010000Y-99498429D01*
X154464009Y-98121527D02*
X153914063Y-97571581D01*
X153088269Y-102041731D02*
X153088269Y-101321731D01*
X84198000Y-69242000D02*
X84198000Y-69766298D01*
X85090000Y-68350000D02*
X84198000Y-69242000D01*
X152410000Y-102720000D02*
X153088269Y-102041731D01*
X150540000Y-104920000D02*
X150500000Y-104920000D01*
X84198000Y-69766298D02*
X83797000Y-70167298D01*
X153905197Y-97571581D02*
X153905197Y-97769470D01*
X153088269Y-101321731D02*
X154010000Y-100400000D01*
X81997451Y-72802549D02*
X80700000Y-74100000D01*
X81997451Y-72531950D02*
X81997451Y-72802549D01*
X154152256Y-99356173D02*
X154152256Y-98931166D01*
X153914063Y-97571581D02*
X153905197Y-97571581D01*
X83797000Y-70400201D02*
X82873600Y-71323601D01*
X150500000Y-104920000D02*
X150501416Y-104920000D01*
X154464009Y-98619413D02*
X154464009Y-98121527D01*
X83797000Y-70400000D02*
X83797000Y-70400201D01*
X82873600Y-71323601D02*
X81997451Y-72199750D01*
X154010000Y-99498429D02*
X154152256Y-99356173D01*
X152410000Y-103011416D02*
X152410000Y-102720000D01*
X81997451Y-72199750D02*
X81997451Y-72531950D01*
X150501416Y-104920000D02*
X152410000Y-103011416D01*
G04 #@! TO.N,Net-(a1-D13)*
X152786100Y-97269000D02*
X152433550Y-96916450D01*
X152450000Y-96900000D02*
X152450000Y-80850000D01*
X152450000Y-80850000D02*
X152900000Y-80400000D01*
X153325017Y-97020767D02*
X153076784Y-97269000D01*
X152433550Y-96916450D02*
X152450000Y-96900000D01*
X153076784Y-97269000D02*
X152786100Y-97269000D01*
G04 #@! TO.N,/btn1*
X137650000Y-131860000D02*
X137590000Y-131800000D01*
X144856547Y-131860000D02*
X137650000Y-131860000D01*
X145337000Y-132340453D02*
X144856547Y-131860000D01*
G04 #@! TO.N,/btn2*
X137838943Y-132401000D02*
X136541000Y-132401000D01*
X144870000Y-132990000D02*
X144830000Y-132990000D01*
X136541000Y-132401000D02*
X136300000Y-132160000D01*
X137978943Y-132261000D02*
X137838943Y-132401000D01*
X136300000Y-132160000D02*
X136300000Y-131810000D01*
X144830000Y-132990000D02*
X144101000Y-132261000D01*
X144101000Y-132261000D02*
X137978943Y-132261000D01*
G04 #@! TO.N,/btn5*
X133730000Y-137950000D02*
X134150000Y-137950000D01*
X139168000Y-139450000D02*
X139270000Y-139552000D01*
X135650000Y-139450000D02*
X139168000Y-139450000D01*
X134150000Y-137950000D02*
X135650000Y-139450000D01*
G04 #@! TO.N,/btn6*
X140299000Y-139393200D02*
X140299000Y-141796943D01*
X135040000Y-137940000D02*
X135040000Y-138272900D01*
X140800000Y-142297943D02*
X140800000Y-142320000D01*
X141220000Y-142740000D02*
X141870000Y-142740000D01*
X139857800Y-138952000D02*
X140299000Y-139393200D01*
X140800000Y-142320000D02*
X141220000Y-142740000D01*
X135719100Y-138952000D02*
X139857800Y-138952000D01*
X140299000Y-141796943D02*
X140800000Y-142297943D01*
X135040000Y-138272900D02*
X135719100Y-138952000D01*
G04 #@! TO.N,/btn7*
X140700000Y-141630843D02*
X141129157Y-142060000D01*
X140700000Y-139227100D02*
X140700000Y-141630843D01*
X141129157Y-142060000D02*
X146110000Y-142060000D01*
X136250000Y-138450000D02*
X136351000Y-138551000D01*
X136250000Y-137920000D02*
X136250000Y-138450000D01*
X140023900Y-138551000D02*
X140700000Y-139227100D01*
X136351000Y-138551000D02*
X140023900Y-138551000D01*
X146110000Y-142060000D02*
X146820000Y-142770000D01*
G04 #@! TO.N,/btn8*
X141101000Y-141464743D02*
X141295257Y-141659000D01*
X141295257Y-141659000D02*
X150991843Y-141659000D01*
X137310159Y-138150000D02*
X140190000Y-138150000D01*
X151790000Y-142457157D02*
X151790000Y-142740000D01*
X140190000Y-138150000D02*
X141101000Y-139061000D01*
X141101000Y-139061000D02*
X141101000Y-141464743D01*
X137049412Y-137889253D02*
X137310159Y-138150000D01*
X150991843Y-141659000D02*
X151790000Y-142457157D01*
G04 #@! TO.N,/ICD3*
X122218000Y-127188000D02*
X122219000Y-127189000D01*
X118749000Y-127188000D02*
X122218000Y-127188000D01*
X123712957Y-127190000D02*
X123714957Y-127188000D01*
X118550000Y-126989000D02*
X118749000Y-127188000D01*
X124755043Y-127398000D02*
X137355946Y-127398000D01*
X137355946Y-127398000D02*
X137909144Y-126844802D01*
X123714957Y-127188000D02*
X124545043Y-127188000D01*
X124545043Y-127188000D02*
X124755043Y-127398000D01*
X122219000Y-127189000D02*
X122220000Y-127188000D01*
X122220000Y-127188000D02*
X122220000Y-127190000D01*
X122220000Y-127190000D02*
X123712957Y-127190000D01*
G04 #@! TO.N,/ICD7*
X146433900Y-124199000D02*
X146151057Y-124199000D01*
X146151057Y-124199000D02*
X145640147Y-124709910D01*
X138418615Y-108262815D02*
X131015800Y-100860000D01*
X145750000Y-118641000D02*
X145988115Y-118641000D01*
X146640000Y-123992900D02*
X146433900Y-124199000D01*
X145640147Y-124709910D02*
X145640147Y-125050255D01*
X146640000Y-123250000D02*
X146640000Y-123600000D01*
X146640000Y-119500000D02*
X146640000Y-123250000D01*
X146640000Y-119292885D02*
X146640000Y-119500000D01*
X145988115Y-118641000D02*
X146640000Y-119292885D01*
X138418615Y-108822855D02*
X138418615Y-108262815D01*
X131015800Y-100860000D02*
X126060000Y-100860000D01*
X146640000Y-123600000D02*
X146640000Y-123992900D01*
G04 #@! TO.N,/ICD6*
X131136100Y-114366100D02*
X131090000Y-114320000D01*
X137888922Y-124162551D02*
X137888922Y-124075122D01*
X137850000Y-124036200D02*
X137850000Y-121322900D01*
X137888922Y-124075122D02*
X137850000Y-124036200D01*
X137850000Y-121322900D02*
X131136100Y-114609000D01*
X131136100Y-114609000D02*
X131136100Y-114366100D01*
G04 #@! TO.N,/ICD1*
X140090000Y-123164373D02*
X140090000Y-121788280D01*
X122386100Y-126787000D02*
X122387100Y-126788000D01*
X118301057Y-126388000D02*
X118798943Y-126388000D01*
X122387100Y-126788000D02*
X123547857Y-126788000D01*
X116112000Y-127188000D02*
X117501057Y-127188000D01*
X123547857Y-126788000D02*
X123548857Y-126787000D01*
X137523265Y-126373266D02*
X137523265Y-125731109D01*
X118798943Y-126388000D02*
X119151000Y-126740057D01*
X119151000Y-126740057D02*
X119151000Y-126787000D01*
X124921143Y-126997000D02*
X136899531Y-126997000D01*
X136899531Y-126997000D02*
X137523265Y-126373266D01*
X123548857Y-126787000D02*
X124711143Y-126787000D01*
X137523265Y-125731109D02*
X140090000Y-123164373D01*
X117501057Y-127188000D02*
X118301057Y-126388000D01*
X119151000Y-126787000D02*
X122386100Y-126787000D01*
X124711143Y-126787000D02*
X124921143Y-126997000D01*
X140090000Y-121788280D02*
X139495403Y-121193683D01*
X107460000Y-135840000D02*
X116112000Y-127188000D01*
X107460000Y-137120000D02*
X107460000Y-135840000D01*
G04 #@! TO.N,/ICD4*
X140700000Y-128200000D02*
X141300000Y-127600000D01*
X124737000Y-126387000D02*
X123750000Y-125400000D01*
X124878243Y-126387000D02*
X124737000Y-126387000D01*
X125800997Y-126596000D02*
X125087243Y-126596000D01*
X124129000Y-128189000D02*
X124140000Y-128200000D01*
X124140000Y-128200000D02*
X140700000Y-128200000D01*
X125087243Y-126596000D02*
X124878243Y-126387000D01*
X125999997Y-126397000D02*
X125800997Y-126596000D01*
X124095707Y-128189000D02*
X124129000Y-128189000D01*
X123750000Y-125400000D02*
X123750000Y-121200000D01*
G04 #@! TO.N,/ICD2*
X139242500Y-126751314D02*
X138194814Y-127799000D01*
X124378943Y-127589000D02*
X123881057Y-127589000D01*
X122051900Y-127589000D02*
X116378100Y-127589000D01*
X113144531Y-131084531D02*
X112944531Y-131284531D01*
X123879057Y-127591000D02*
X122053900Y-127591000D01*
X123881057Y-127589000D02*
X123879057Y-127591000D01*
X138124265Y-126074265D02*
X138124265Y-126125735D01*
X138194814Y-127799000D02*
X124588943Y-127799000D01*
X113144531Y-130822569D02*
X113144531Y-131084531D01*
X116378100Y-127589000D02*
X113144531Y-130822569D01*
X124588943Y-127799000D02*
X124378943Y-127589000D01*
X122053900Y-127591000D02*
X122051900Y-127589000D01*
G04 #@! TO.N,/ICD8*
X126064000Y-97992000D02*
X126064000Y-99794000D01*
X147041000Y-124159000D02*
X146400000Y-124800000D01*
X139265735Y-108824265D02*
X139210000Y-108768530D01*
X126729000Y-100459000D02*
X131181900Y-100459000D01*
X131181900Y-100459000D02*
X139265735Y-108542835D01*
X139210000Y-108768530D02*
X139210000Y-108487100D01*
X147041000Y-118843942D02*
X146950004Y-118752946D01*
X126064000Y-99794000D02*
X126729000Y-100459000D01*
X139265735Y-108542835D02*
X139265735Y-108824265D01*
X147041000Y-124159000D02*
X147041000Y-118843942D01*
G04 #@! TO.N,/ICD5*
X130970000Y-115010000D02*
X129830000Y-115010000D01*
X139434133Y-125006948D02*
X139434133Y-124387340D01*
X140680000Y-121949943D02*
X140691000Y-121938943D01*
X134864285Y-118904285D02*
X130970000Y-115010000D01*
X134864285Y-119185715D02*
X134864285Y-118904285D01*
X140680000Y-123141473D02*
X140680000Y-121949943D01*
X140691000Y-121938943D02*
X140691000Y-121441057D01*
X140691000Y-121441057D02*
X140680000Y-121430057D01*
X140680000Y-121430057D02*
X140680000Y-118455992D01*
X140464008Y-118240000D02*
X140016026Y-118240000D01*
X140680000Y-118455992D02*
X140464008Y-118240000D01*
X139434133Y-124387340D02*
X140680000Y-123141473D01*
G04 #@! TO.N,/ICD16*
X121290000Y-54435222D02*
X121290000Y-54230000D01*
X121285102Y-54440120D02*
X121290000Y-54435222D01*
G04 #@! TO.N,/ICD14*
X123010000Y-61480000D02*
X123840000Y-60650000D01*
X122599247Y-67600753D02*
X121908672Y-68291328D01*
X122998250Y-65884650D02*
X122599247Y-66283653D01*
X123840000Y-60650000D02*
X124530000Y-60650000D01*
X122599247Y-66283653D02*
X122599247Y-67600753D01*
X121908672Y-68291328D02*
X121908672Y-68359578D01*
X122998250Y-65195999D02*
X122998250Y-65884650D01*
X124530000Y-60650000D02*
X124560000Y-60620000D01*
G04 #@! TO.N,/ICD13*
X123770942Y-65403246D02*
X123770942Y-65679058D01*
X123000247Y-66449753D02*
X123000247Y-68149753D01*
X123000247Y-68149753D02*
X122750000Y-68400000D01*
X123770942Y-65679058D02*
X123000247Y-66449753D01*
G04 #@! TO.N,/ICD19*
X78303040Y-119931208D02*
X78183832Y-119812000D01*
X82720000Y-125440000D02*
X82720000Y-123670000D01*
X80180000Y-121130000D02*
X79130000Y-121130000D01*
X82720000Y-123670000D02*
X80180000Y-121130000D01*
X78603415Y-121130000D02*
X78519280Y-121214135D01*
X79130000Y-121130000D02*
X78603415Y-121130000D01*
X82830000Y-125550000D02*
X82720000Y-125440000D01*
G04 #@! TO.N,/ICD18*
X86460000Y-131950000D02*
X86530000Y-131880000D01*
G04 #@! TO.N,/ICD17*
X61354000Y-112250000D02*
X61354000Y-111795630D01*
X61052000Y-118850000D02*
X61052000Y-118138857D01*
X63678305Y-108453175D02*
X63678305Y-108734605D01*
X65400000Y-112574200D02*
X64962100Y-113012100D01*
X64446850Y-109503150D02*
X65400000Y-110456300D01*
X61052000Y-118138857D02*
X61354000Y-117836857D01*
X61354000Y-117836857D02*
X61354000Y-115550000D01*
X61354000Y-115550000D02*
X61354000Y-112250000D01*
X64562000Y-114204900D02*
X64853550Y-114496450D01*
X60150000Y-121000000D02*
X61052000Y-120098000D01*
X65400000Y-110456300D02*
X65400000Y-112574200D01*
X61052000Y-120098000D02*
X61052000Y-118850000D01*
X64853550Y-114496450D02*
X64930049Y-114572949D01*
X64562000Y-113750000D02*
X64562000Y-114204900D01*
X61354000Y-111795630D02*
X61154185Y-111595815D01*
X64930049Y-114572949D02*
X65211476Y-114572949D01*
X64562000Y-113412200D02*
X64562000Y-113750000D01*
X64962100Y-113012100D02*
X64562000Y-113412200D01*
X63678305Y-108734605D02*
X64446850Y-109503150D01*
G04 #@! TO.N,/ICD20*
X68639591Y-121089591D02*
X68973001Y-121423001D01*
X70000000Y-121423001D02*
X70086999Y-121510000D01*
X68973001Y-121423001D02*
X70000000Y-121423001D01*
X68639591Y-120738184D02*
X68639591Y-121089591D01*
G04 #@! TO.N,/ICD24*
X62071000Y-93959000D02*
X62270000Y-93760000D01*
X62071000Y-107694400D02*
X62071000Y-93959000D01*
X64161000Y-114371000D02*
X64161000Y-113246100D01*
X67950000Y-114955000D02*
X67706000Y-115199000D01*
X64962000Y-112445100D02*
X64962000Y-110585400D01*
X67706000Y-115199000D02*
X64989000Y-115199000D01*
X64962000Y-110585400D02*
X62071000Y-107694400D01*
X64989000Y-115199000D02*
X64161000Y-114371000D01*
X64161000Y-113246100D02*
X64962000Y-112445100D01*
G04 #@! TO.N,/ICD26*
X72591470Y-62950000D02*
X63002000Y-62950000D01*
X62472000Y-75601589D02*
X62671000Y-75800589D01*
X63002000Y-62950000D02*
X62472000Y-63480000D01*
X72605735Y-62935735D02*
X72591470Y-62950000D01*
X62472000Y-63480000D02*
X62472000Y-75601589D01*
G04 #@! TO.N,/ICD25*
X63108550Y-55918550D02*
X65346100Y-53681000D01*
X73539490Y-53681000D02*
X73738490Y-53880000D01*
X62071000Y-76341000D02*
X62071000Y-74460000D01*
X68140000Y-53681000D02*
X73539490Y-53681000D01*
X62071000Y-56956100D02*
X63108550Y-55918550D01*
X62270000Y-76540000D02*
X62071000Y-76341000D01*
X62071000Y-74460000D02*
X62071000Y-56956100D01*
X65346100Y-53681000D02*
X68140000Y-53681000D01*
G04 #@! TO.N,/ICD29*
X86750000Y-71400000D02*
X87150000Y-71400000D01*
X90890000Y-71880000D02*
X96520000Y-77510000D01*
X87150000Y-71400000D02*
X87630000Y-71880000D01*
X87630000Y-71880000D02*
X90890000Y-71880000D01*
G04 #@! TO.N,/ICD38*
X86859000Y-127279000D02*
X87663900Y-127279000D01*
X86659000Y-127079000D02*
X86859000Y-127279000D01*
X85800000Y-128262904D02*
X85800000Y-127430057D01*
X91620000Y-122050000D02*
X105910000Y-122050000D01*
X87663900Y-127279000D02*
X89240000Y-125702900D01*
X86151057Y-127079000D02*
X86659000Y-127079000D01*
X89240000Y-125702900D02*
X89240000Y-124430000D01*
X85800000Y-127430057D02*
X86151057Y-127079000D01*
X89240000Y-124430000D02*
X91620000Y-122050000D01*
G04 #@! TO.N,/ICD40*
X98240000Y-114790000D02*
X97740000Y-114290000D01*
X84487253Y-129125991D02*
X84951057Y-128662187D01*
X91452900Y-121650000D02*
X92290000Y-121650000D01*
X85020000Y-128180000D02*
X85320000Y-127880000D01*
X98240000Y-119770000D02*
X98240000Y-114790000D01*
X85984957Y-126678000D02*
X86825100Y-126678000D01*
X84951057Y-128662187D02*
X85020000Y-128662187D01*
X98510000Y-121650000D02*
X98930000Y-121230000D01*
X94140000Y-121650000D02*
X98510000Y-121650000D01*
X87497800Y-126878000D02*
X88257900Y-126117900D01*
X85320000Y-127342957D02*
X85956479Y-126706478D01*
X84487253Y-129626498D02*
X84487253Y-129125991D01*
X88839000Y-125536800D02*
X88839000Y-124263900D01*
X85956479Y-126706478D02*
X85984957Y-126678000D01*
X85320000Y-127880000D02*
X85320000Y-127342957D01*
X88839000Y-124263900D02*
X91452900Y-121650000D01*
X92290000Y-121650000D02*
X94140000Y-121650000D01*
X87025100Y-126878000D02*
X87497800Y-126878000D01*
X88257900Y-126117900D02*
X88839000Y-125536800D01*
X85020000Y-128662187D02*
X85020000Y-128180000D01*
X86825100Y-126678000D02*
X87025100Y-126878000D01*
G04 #@! TO.N,/ICD37*
X87830000Y-127680000D02*
X89960000Y-125550000D01*
X86400000Y-127680000D02*
X87830000Y-127680000D01*
G04 #@! TO.N,/ICD39*
X90549943Y-125810000D02*
X94180000Y-125810000D01*
X85200000Y-129263187D02*
X85200000Y-129250000D01*
X86226424Y-128686424D02*
X86243519Y-128686424D01*
X86048943Y-128863904D02*
X86226424Y-128686424D01*
X89926100Y-126151000D02*
X90208943Y-126151000D01*
X85200000Y-129250000D02*
X85586096Y-128863904D01*
X86848943Y-128081000D02*
X87996100Y-128081000D01*
X85586096Y-128863904D02*
X86048943Y-128863904D01*
X87996100Y-128081000D02*
X89926100Y-126151000D01*
X90208943Y-126151000D02*
X90549943Y-125810000D01*
X94180000Y-125810000D02*
X97290000Y-128920000D01*
X86243519Y-128686424D02*
X86848943Y-128081000D01*
G04 #@! TO.N,/ICD47*
X119080000Y-97400000D02*
X123698630Y-97400000D01*
X123698630Y-97400000D02*
X123831914Y-97533284D01*
X118950000Y-97530000D02*
X119080000Y-97400000D01*
G04 #@! TO.N,/ICD43*
X119215299Y-82640601D02*
X119402950Y-82452950D01*
X99178943Y-120629000D02*
X98681057Y-120629000D01*
X100198943Y-121649000D02*
X99178943Y-120629000D01*
X108479449Y-111610551D02*
X109050000Y-111040000D01*
X120213057Y-81360000D02*
X120810000Y-81360000D01*
X98681057Y-120629000D02*
X98061057Y-121249000D01*
X105313352Y-121450000D02*
X105114352Y-121649000D01*
X119402950Y-82452950D02*
X119402950Y-82170107D01*
X105114352Y-121649000D02*
X100198943Y-121649000D01*
X98061057Y-121249000D02*
X95569000Y-121249000D01*
X119402950Y-82170107D02*
X120213057Y-81360000D01*
X116837594Y-82640601D02*
X119215299Y-82640601D01*
X116377500Y-82180507D02*
X116837594Y-82640601D01*
X107161104Y-111610551D02*
X108479449Y-111610551D01*
X95569000Y-121249000D02*
X95370000Y-121050000D01*
G04 #@! TO.N,/ICD42*
X109770000Y-107800000D02*
X119430000Y-107800000D01*
X119430000Y-107800000D02*
X121920000Y-110290000D01*
X116040129Y-83041601D02*
X119381399Y-83041601D01*
X119381399Y-83041601D02*
X120123000Y-82300000D01*
G04 #@! TO.N,/ICD45*
X115150000Y-107150000D02*
X117050000Y-105250000D01*
X117050000Y-105250000D02*
X117050000Y-98450000D01*
G04 #@! TO.N,/ICD44*
X118766356Y-82239601D02*
X119236850Y-81769107D01*
X85470000Y-112280000D02*
X84190000Y-113560000D01*
X90100000Y-112280000D02*
X85470000Y-112280000D01*
X116377500Y-81139922D02*
X116377500Y-81227500D01*
X116377500Y-81227500D02*
X117389601Y-82239601D01*
X119236850Y-81769107D02*
X120855957Y-80150000D01*
X120855957Y-80150000D02*
X121100000Y-80150000D01*
X117700000Y-82239601D02*
X118766356Y-82239601D01*
X107599101Y-112280000D02*
X90100000Y-112280000D01*
X117389601Y-82239601D02*
X117700000Y-82239601D01*
G04 #@! TO.N,/ICD46*
X120460000Y-101760000D02*
X120640001Y-101760000D01*
X120640001Y-101760000D02*
X122243531Y-100156470D01*
X122243531Y-100156470D02*
X122243531Y-98842060D01*
G04 #@! TO.N,/ICD48*
X117526000Y-95326000D02*
X124183815Y-95326000D01*
X124183815Y-95326000D02*
X124382815Y-95127000D01*
X116700000Y-94500000D02*
X117526000Y-95326000D01*
G04 #@! TO.N,/ICD51*
X90409000Y-106489000D02*
X90409000Y-106499000D01*
X87433264Y-97580000D02*
X87433264Y-101493433D01*
X90900000Y-106990000D02*
X93950000Y-106990000D01*
X93950000Y-106990000D02*
X94150000Y-107190000D01*
X87433264Y-101493433D02*
X89980000Y-104040169D01*
X89980000Y-104040169D02*
X89980000Y-106060000D01*
X90409000Y-106499000D02*
X90900000Y-106990000D01*
X89980000Y-106060000D02*
X90409000Y-106489000D01*
G04 #@! TO.N,/ICD56*
X78463857Y-80320000D02*
X76015000Y-82768857D01*
X76015000Y-85478980D02*
X76215000Y-85678980D01*
X82270000Y-80320000D02*
X78463857Y-80320000D01*
X83641500Y-78948500D02*
X82270000Y-80320000D01*
X76015000Y-82768857D02*
X76015000Y-85478980D01*
X84548866Y-78474305D02*
X84074671Y-78948500D01*
X84074671Y-78948500D02*
X83641500Y-78948500D01*
G04 #@! TO.N,/ICD49*
X108208000Y-106920000D02*
X109710000Y-106920000D01*
X87834264Y-101327333D02*
X90381000Y-103874069D01*
X87834264Y-98028943D02*
X87834264Y-101327333D01*
X88125507Y-97179000D02*
X88003857Y-97300650D01*
X91066100Y-106589000D02*
X107877000Y-106589000D01*
X107877000Y-106589000D02*
X108208000Y-106920000D01*
X90810000Y-106322900D02*
X90810000Y-106332900D01*
X88003857Y-97300650D02*
X88034264Y-97331057D01*
X88034264Y-97331057D02*
X88034264Y-97828943D01*
X88034264Y-97828943D02*
X87834264Y-98028943D01*
X90381000Y-105893900D02*
X90810000Y-106322900D01*
X90810000Y-106332900D02*
X91066100Y-106589000D01*
X90381000Y-103874069D02*
X90381000Y-105893900D01*
G04 #@! TO.N,/ICD50*
X84681676Y-83168324D02*
X84800000Y-83050000D01*
X81577524Y-83168324D02*
X84681676Y-83168324D01*
X82689031Y-93137561D02*
X82689031Y-93330039D01*
X81530000Y-83120800D02*
X81577524Y-83168324D01*
G04 #@! TO.N,/ICD52*
X82349000Y-96031900D02*
X78577477Y-92260377D01*
X78577477Y-92260377D02*
X78577477Y-91727477D01*
X83408469Y-97755708D02*
X83298245Y-97865932D01*
X83298245Y-97865932D02*
X82800359Y-97865932D01*
X78577477Y-91727477D02*
X78571924Y-91721924D01*
X89579000Y-106011000D02*
X89380000Y-106210000D01*
X83408469Y-97979775D02*
X83408469Y-97755708D01*
X78571924Y-91721924D02*
X78571924Y-91385798D01*
X89579000Y-104569000D02*
X89579000Y-106011000D01*
X86741021Y-101731021D02*
X89579000Y-104569000D01*
X86741021Y-97980999D02*
X86741021Y-101731021D01*
X82349000Y-97414573D02*
X82349000Y-96031900D01*
X82800359Y-97865932D02*
X82349000Y-97414573D01*
G04 #@! TO.N,/ICD55*
X75213000Y-86094023D02*
X75799958Y-86680980D01*
X79602635Y-82569735D02*
X80050000Y-83017100D01*
X82937974Y-92536561D02*
X82303661Y-92536561D01*
X82980057Y-78760000D02*
X82336450Y-79403607D01*
X82950000Y-93726535D02*
X83290031Y-93386504D01*
X82336450Y-79403607D02*
X82336450Y-79686450D01*
X76649829Y-80999828D02*
X76700000Y-80949657D01*
X77281000Y-85716100D02*
X77618000Y-85379100D01*
X78019000Y-84556053D02*
X78019000Y-84166043D01*
X75700000Y-81949657D02*
X75213000Y-82436657D01*
X76700000Y-80949657D02*
X76700000Y-80600000D01*
X78419972Y-83765071D02*
X78419972Y-83199385D01*
X77618000Y-84957053D02*
X78019000Y-84556053D01*
X84760001Y-76660001D02*
X82980057Y-78439945D01*
X83290031Y-92888618D02*
X82937974Y-92536561D01*
X82303661Y-92536561D02*
X81180795Y-91413695D01*
X82103900Y-79919000D02*
X78016329Y-79919000D01*
X80050000Y-83017100D02*
X80050000Y-83800000D01*
X76630043Y-86680980D02*
X77281000Y-86030023D01*
X83290031Y-93386504D02*
X83290031Y-92888618D01*
X77281000Y-86030023D02*
X77281000Y-85716100D01*
X75700000Y-81949657D02*
X76649829Y-80999828D01*
X78419972Y-83199385D02*
X79049622Y-82569735D01*
X82980057Y-78439945D02*
X82980057Y-78760000D01*
X75799958Y-86680980D02*
X76630043Y-86680980D01*
X75213000Y-82436657D02*
X75213000Y-86094023D01*
X82336450Y-79686450D02*
X82103900Y-79919000D01*
X81180795Y-91413695D02*
X81180795Y-91022374D01*
X78016329Y-79919000D02*
X77900000Y-80035329D01*
X83816740Y-95768210D02*
X82950000Y-94901470D01*
X80050000Y-83800000D02*
X79450000Y-84400000D01*
X78019000Y-84166043D02*
X78419972Y-83765071D01*
X79049622Y-82569735D02*
X79602635Y-82569735D01*
X77618000Y-85379100D02*
X77618000Y-84957053D01*
X81180795Y-91022374D02*
X80954271Y-90795850D01*
X80954271Y-90795850D02*
X80954271Y-90564372D01*
X82950000Y-94901470D02*
X82950000Y-93726535D01*
G04 #@! TO.N,/ICD54*
X76416000Y-82934957D02*
X76416000Y-84738299D01*
X84441829Y-79431285D02*
X85149866Y-78723248D01*
X76416000Y-84738299D02*
X76616000Y-84938299D01*
X85149866Y-78723248D02*
X85149866Y-78099866D01*
X84212773Y-79431285D02*
X82884762Y-80759296D01*
X84212773Y-79431285D02*
X84441829Y-79431285D01*
X82884762Y-80759296D02*
X78591661Y-80759296D01*
X85149866Y-78099866D02*
X84750000Y-77700000D01*
X78591661Y-80759296D02*
X76416000Y-82934957D01*
G04 #@! TO.N,/ICD64*
X131348000Y-100058000D02*
X126895100Y-100058000D01*
X141215000Y-109925000D02*
X131348000Y-100058000D01*
X125288728Y-94992743D02*
X125601471Y-94680000D01*
X113468000Y-72321000D02*
X113468000Y-60048000D01*
X127304870Y-94128000D02*
X127503870Y-93929000D01*
X126605915Y-94271015D02*
X126748930Y-94128000D01*
X126465000Y-98439527D02*
X126912527Y-97992000D01*
X113269000Y-72520000D02*
X113468000Y-72321000D01*
X141525000Y-109925000D02*
X141215000Y-109925000D01*
X125802957Y-94680000D02*
X126211942Y-94271015D01*
X126211942Y-94271015D02*
X126605915Y-94271015D01*
X126895100Y-100058000D02*
X126465000Y-99627900D01*
X113468000Y-60048000D02*
X111800000Y-58380000D01*
X126748930Y-94128000D02*
X127304870Y-94128000D01*
X125601471Y-94680000D02*
X125802957Y-94680000D01*
X126465000Y-99627900D02*
X126465000Y-98439527D01*
X111800000Y-58380000D02*
X103040000Y-58380000D01*
G04 #@! TO.N,/ICD58*
X118534957Y-98532000D02*
X119385100Y-98532000D01*
X144954000Y-95904000D02*
X144381000Y-95331000D01*
X111060000Y-98000000D02*
X111203836Y-98000000D01*
X111203836Y-98000000D02*
X111423836Y-97780000D01*
X119385100Y-98532000D02*
X119715100Y-98202000D01*
X145051000Y-101627000D02*
X144954000Y-101530000D01*
X144381000Y-95331000D02*
X127571900Y-95331000D01*
X108414275Y-102304825D02*
X108742000Y-102304825D01*
X122850000Y-98600000D02*
X122850000Y-98999943D01*
X122452000Y-98202000D02*
X122850000Y-98600000D01*
X145051000Y-102190735D02*
X145051000Y-101627000D01*
X117782957Y-97780000D02*
X118534957Y-98532000D01*
X124705000Y-99213473D02*
X124705000Y-99207027D01*
X122850000Y-98999943D02*
X123635322Y-99785265D01*
X105302144Y-103696572D02*
X106103371Y-103696572D01*
X111423836Y-97780000D02*
X117782957Y-97780000D01*
X107329129Y-103389971D02*
X107569550Y-103149550D01*
X106103371Y-103696572D02*
X106409972Y-103389971D01*
X124133208Y-99785265D02*
X124705000Y-99213473D01*
X119715100Y-98202000D02*
X122452000Y-98202000D01*
X123635322Y-99785265D02*
X124133208Y-99785265D01*
X106409972Y-103389971D02*
X107329129Y-103389971D01*
X127571900Y-95331000D02*
X126918635Y-95984265D01*
X107569550Y-103149550D02*
X108414275Y-102304825D01*
X144954000Y-101530000D02*
X144954000Y-95904000D01*
X126918635Y-95984265D02*
X126184265Y-95984265D01*
G04 #@! TO.N,/ICD59*
X143531000Y-95732000D02*
X127738000Y-95732000D01*
X111906033Y-96128000D02*
X111577561Y-95799528D01*
X104310000Y-94880000D02*
X103310000Y-94880000D01*
X126880000Y-96590000D02*
X125940057Y-96590000D01*
X111577561Y-95799528D02*
X110415275Y-95799528D01*
X110086803Y-96128000D02*
X105558000Y-96128000D01*
X144920000Y-103000000D02*
X144451000Y-102531000D01*
X125478057Y-96128000D02*
X111906033Y-96128000D01*
X125940057Y-96590000D02*
X125478057Y-96128000D01*
X127738000Y-95732000D02*
X126880000Y-96590000D01*
X105558000Y-96128000D02*
X104310000Y-94880000D01*
X144451000Y-96652000D02*
X143531000Y-95732000D01*
X144451000Y-102531000D02*
X144451000Y-96652000D01*
X110415275Y-95799528D02*
X110086803Y-96128000D01*
G04 #@! TO.N,/ICD57*
X111192890Y-97399000D02*
X110996418Y-97202528D01*
X123551000Y-98851000D02*
X123551000Y-98201000D01*
X148022550Y-98272550D02*
X148022550Y-98743550D01*
X106010000Y-102940000D02*
X105920000Y-103030000D01*
X118701057Y-98131000D02*
X117949057Y-97379000D01*
X144680000Y-94930000D02*
X148022550Y-98272550D01*
X123151000Y-97801000D02*
X119549000Y-97801000D01*
X126626985Y-95273015D02*
X127062785Y-95273015D01*
X111237736Y-97399000D02*
X111192890Y-97399000D01*
X127062785Y-95273015D02*
X127405800Y-94930000D01*
X123551000Y-98201000D02*
X123151000Y-97801000D01*
X111257736Y-97379000D02*
X111237736Y-97399000D01*
X106010000Y-102940000D02*
X107212000Y-102940000D01*
X107212000Y-102940000D02*
X108742000Y-101410000D01*
X148022550Y-98743550D02*
X150015246Y-100736246D01*
X117949057Y-97379000D02*
X111257736Y-97379000D01*
X150015246Y-100736246D02*
X150015246Y-103146104D01*
X119219000Y-98131000D02*
X118701057Y-98131000D01*
X127405800Y-94930000D02*
X144680000Y-94930000D01*
X123884265Y-99184265D02*
X123551000Y-98851000D01*
X119549000Y-97801000D02*
X119219000Y-98131000D01*
G04 #@! TO.N,/ICD63*
X122318943Y-63971000D02*
X122319943Y-63972000D01*
X127272098Y-64542098D02*
X127966511Y-64542098D01*
X111795476Y-70286537D02*
X111738939Y-70230000D01*
X144290000Y-107689943D02*
X144290000Y-108740000D01*
X111738939Y-70230000D02*
X104990000Y-70230000D01*
X121850469Y-63971000D02*
X122318943Y-63971000D01*
X144940000Y-103800000D02*
X144940000Y-104890000D01*
X145652000Y-101247000D02*
X145652000Y-103117943D01*
X145554000Y-97690628D02*
X145355000Y-97889628D01*
X126744957Y-63972000D02*
X127020000Y-64247043D01*
X144970000Y-103800000D02*
X144969943Y-103800000D01*
X127020000Y-64290000D02*
X127272098Y-64542098D01*
X121826470Y-63994999D02*
X121850469Y-63971000D01*
X127966511Y-64542098D02*
X128508609Y-64000000D01*
X104990000Y-70230000D02*
X102750000Y-67990000D01*
X127020000Y-64247043D02*
X127020000Y-64290000D01*
X128508609Y-64000000D02*
X130180000Y-64000000D01*
X145355000Y-97889628D02*
X145355000Y-100950000D01*
X144289000Y-107688943D02*
X144290000Y-107689943D01*
X144289000Y-107191057D02*
X144289000Y-107688943D01*
X144290000Y-107190057D02*
X144289000Y-107191057D01*
X144940000Y-104890000D02*
X144290000Y-105540000D01*
X144969943Y-103800000D02*
X144940000Y-103800000D01*
X145652000Y-103118000D02*
X144970000Y-103800000D01*
X144290000Y-105540000D02*
X144290000Y-107190057D01*
X145355000Y-100950000D02*
X145652000Y-101247000D01*
X130180000Y-64000000D02*
X131350000Y-62830000D01*
X122319943Y-63972000D02*
X126744957Y-63972000D01*
X145652000Y-103117943D02*
X144969943Y-103800000D01*
G04 #@! TO.N,/ICD61*
X104177800Y-95882000D02*
X101414900Y-95882000D01*
X143649000Y-96984200D02*
X143198800Y-96534000D01*
X98500000Y-84150000D02*
X97510000Y-83160000D01*
X98621057Y-93371000D02*
X98269000Y-93018943D01*
X127212200Y-97392000D02*
X125607857Y-97392000D01*
X143649000Y-104130395D02*
X143649000Y-96984200D01*
X144220966Y-104702361D02*
X143649000Y-104130395D01*
X110419003Y-96930000D02*
X105225800Y-96930000D01*
X111573833Y-96930000D02*
X111245361Y-96601528D01*
X105225800Y-96930000D02*
X104177800Y-95882000D01*
X98269000Y-92521057D02*
X98500000Y-92290056D01*
X111245361Y-96601528D02*
X110747475Y-96601528D01*
X143198800Y-96534000D02*
X128070200Y-96534000D01*
X128070200Y-96534000D02*
X127212200Y-97392000D01*
X98500000Y-92290056D02*
X98500000Y-84150000D01*
X125607857Y-97392000D02*
X125145857Y-96930000D01*
X125145857Y-96930000D02*
X111573833Y-96930000D01*
X110747475Y-96601528D02*
X110419003Y-96930000D01*
X98903900Y-93371000D02*
X98621057Y-93371000D01*
X101414900Y-95882000D02*
X98903900Y-93371000D01*
X98269000Y-93018943D02*
X98269000Y-92521057D01*
G04 #@! TO.N,/ICD62*
X145341000Y-105056100D02*
X144743550Y-105653550D01*
X145756000Y-98291628D02*
X145756000Y-100783900D01*
X145835428Y-97122113D02*
X146155000Y-97441685D01*
X146155000Y-97441685D02*
X146155000Y-97939571D01*
X145554000Y-96700000D02*
X145835428Y-96981428D01*
X145802943Y-98291628D02*
X145756000Y-98291628D01*
X145756000Y-100783900D02*
X146053000Y-101080900D01*
X146155000Y-97939571D02*
X145802943Y-98291628D01*
X146053000Y-103284100D02*
X145341000Y-103996100D01*
X145835428Y-96981428D02*
X145835428Y-97122113D01*
X144890000Y-105800000D02*
X144890000Y-107440000D01*
X144743550Y-105653550D02*
X144890000Y-105800000D01*
X146053000Y-101080900D02*
X146053000Y-103284100D01*
X145341000Y-103996100D02*
X145341000Y-105056100D01*
G04 #@! TO.N,/ICD60*
X104343900Y-95481000D02*
X101581000Y-95481000D01*
X110581375Y-96200528D02*
X110252903Y-96529000D01*
X101581000Y-95481000D02*
X98870000Y-92770000D01*
X105391900Y-96529000D02*
X104343900Y-95481000D01*
X111739933Y-96529000D02*
X111411461Y-96200528D01*
X144050000Y-96818100D02*
X143364900Y-96133000D01*
X127904100Y-96133000D02*
X127046100Y-96991000D01*
X125311957Y-96529000D02*
X111739933Y-96529000D01*
X125773957Y-96991000D02*
X125311957Y-96529000D01*
X144050000Y-103406000D02*
X144050000Y-96818100D01*
X143364900Y-96133000D02*
X127904100Y-96133000D01*
X127046100Y-96991000D02*
X125773957Y-96991000D01*
X110252903Y-96529000D02*
X105391900Y-96529000D01*
X144250000Y-103606000D02*
X144050000Y-103406000D01*
X111411461Y-96200528D02*
X110581375Y-96200528D01*
G04 #@! TO.N,+5V*
X83200000Y-87110000D02*
X80930000Y-84840000D01*
G04 #@! TO.N,/ICD53*
X78757761Y-81160296D02*
X76817000Y-83101057D01*
X83602428Y-81160296D02*
X78757761Y-81160296D01*
X76817000Y-83101057D02*
X76817000Y-83941010D01*
X76817000Y-83941010D02*
X77017000Y-84141010D01*
G04 #@! TO.N,/ICD32*
X89201000Y-60247587D02*
X87180587Y-62268000D01*
G04 #@! TD*
G04 #@! TA.AperFunction,Conductor*
G04 #@! TO.N,/LATCH*
G36*
X136135769Y-58859685D02*
G01*
X136181524Y-58912489D01*
X136192728Y-58963357D01*
X136202791Y-60905357D01*
X136183454Y-60972498D01*
X136130888Y-61018526D01*
X136078793Y-61030000D01*
X131319946Y-61030000D01*
X131252907Y-61010315D01*
X131207152Y-60957511D01*
X131195946Y-60906000D01*
X131195946Y-58964000D01*
X131215631Y-58896961D01*
X131268435Y-58851206D01*
X131319946Y-58840000D01*
X136068730Y-58840000D01*
X136135769Y-58859685D01*
G37*
G04 #@! TD.AperFunction*
G04 #@! TD*
G04 #@! TA.AperFunction,Conductor*
G04 #@! TO.N,/CLOCK*
G36*
X137960732Y-109479685D02*
G01*
X137962578Y-109480894D01*
X138039436Y-109532249D01*
X138039438Y-109532250D01*
X138039442Y-109532252D01*
X138164375Y-109584000D01*
X138185118Y-109592592D01*
X138339768Y-109623354D01*
X138339771Y-109623355D01*
X138339773Y-109623355D01*
X138497459Y-109623355D01*
X138497460Y-109623354D01*
X138652112Y-109592592D01*
X138793021Y-109534225D01*
X138862488Y-109526757D01*
X138887924Y-109534226D01*
X139028834Y-109592592D01*
X139032238Y-109594002D01*
X139186888Y-109624764D01*
X139186891Y-109624765D01*
X139186893Y-109624765D01*
X139344579Y-109624765D01*
X139344580Y-109624764D01*
X139499232Y-109594002D01*
X139644914Y-109533659D01*
X139723877Y-109480897D01*
X139741923Y-109475246D01*
X139757832Y-109465023D01*
X139788791Y-109460571D01*
X139790553Y-109460020D01*
X139792767Y-109460000D01*
X139849403Y-109460000D01*
X139916442Y-109479685D01*
X139937084Y-109496319D01*
X140126390Y-109685625D01*
X140159875Y-109746948D01*
X140162707Y-109772664D01*
X140170389Y-111255358D01*
X140151052Y-111322498D01*
X140098486Y-111368526D01*
X140046391Y-111380000D01*
X136421342Y-111380000D01*
X136354303Y-111360315D01*
X136308548Y-111307511D01*
X136297342Y-111256000D01*
X136297342Y-109584000D01*
X136317027Y-109516961D01*
X136369831Y-109471206D01*
X136421342Y-109460000D01*
X137893693Y-109460000D01*
X137960732Y-109479685D01*
G37*
G04 #@! TD.AperFunction*
G04 #@! TD*
G04 #@! TA.AperFunction,Conductor*
G04 #@! TO.N,/CLOCK*
G36*
X88383925Y-51721185D02*
G01*
X88429680Y-51773989D01*
X88440884Y-51824858D01*
X88449228Y-53435358D01*
X88429891Y-53502498D01*
X88377325Y-53548526D01*
X88325230Y-53560000D01*
X84832240Y-53560000D01*
X84765201Y-53540315D01*
X84719446Y-53487511D01*
X84709502Y-53418353D01*
X84712465Y-53403907D01*
X84713879Y-53398626D01*
X84750500Y-53261958D01*
X84750500Y-53103843D01*
X84750500Y-51900098D01*
X84759144Y-51870660D01*
X84765668Y-51840670D01*
X84769423Y-51835653D01*
X84770185Y-51833059D01*
X84786819Y-51812416D01*
X84861418Y-51737818D01*
X84922742Y-51704334D01*
X84949099Y-51701500D01*
X88316886Y-51701500D01*
X88383925Y-51721185D01*
G37*
G04 #@! TD.AperFunction*
G04 #@! TD*
G04 #@! TA.AperFunction,Conductor*
G04 #@! TO.N,+5V*
G36*
X85428090Y-86773189D02*
G01*
X85495070Y-86793068D01*
X85540671Y-86846004D01*
X85551727Y-86896606D01*
X85560602Y-88786742D01*
X85541232Y-88853873D01*
X85488644Y-88899875D01*
X85437929Y-88911317D01*
X81009745Y-88958660D01*
X80942499Y-88939693D01*
X80896182Y-88887381D01*
X80884419Y-88834667D01*
X80884419Y-86884360D01*
X80904104Y-86817321D01*
X80956908Y-86771566D01*
X81008778Y-86760361D01*
X85428090Y-86773189D01*
G37*
G04 #@! TD.AperFunction*
G04 #@! TD*
G04 #@! TA.AperFunction,Conductor*
G04 #@! TO.N,+5V*
G36*
X134144430Y-119609502D02*
G01*
X134177026Y-119618375D01*
X134178322Y-119619454D01*
X134179108Y-119619685D01*
X134181928Y-119622455D01*
X134204153Y-119640954D01*
X134210172Y-119647628D01*
X134242496Y-119696004D01*
X134353996Y-119807504D01*
X134354901Y-119808108D01*
X134359792Y-119813532D01*
X134373603Y-119842252D01*
X134388874Y-119870219D01*
X134388638Y-119873518D01*
X134390072Y-119876500D01*
X134391707Y-119896938D01*
X134380357Y-123806938D01*
X134360478Y-123873920D01*
X134307542Y-123919521D01*
X134256940Y-123930577D01*
X132374582Y-123939415D01*
X132307451Y-123920045D01*
X132261449Y-123867456D01*
X132250000Y-123815416D01*
X132250000Y-119724000D01*
X132269685Y-119656961D01*
X132322489Y-119611206D01*
X132374000Y-119600000D01*
X134112069Y-119600000D01*
X134144430Y-119609502D01*
G37*
G04 #@! TD.AperFunction*
G04 #@! TD*
G04 #@! TA.AperFunction,Conductor*
G04 #@! TO.N,/LATCH*
G36*
X70177126Y-126039685D02*
G01*
X70222881Y-126092489D01*
X70234085Y-126143357D01*
X70244148Y-128085357D01*
X70224811Y-128152498D01*
X70172245Y-128198526D01*
X70120150Y-128210000D01*
X66971550Y-128210000D01*
X66904511Y-128190315D01*
X66858756Y-128137511D01*
X66847550Y-128086000D01*
X66847550Y-126144000D01*
X66867235Y-126076961D01*
X66920039Y-126031206D01*
X66971550Y-126020000D01*
X70110087Y-126020000D01*
X70177126Y-126039685D01*
G37*
G04 #@! TD.AperFunction*
G04 #@! TD*
G04 #@! TA.AperFunction,Conductor*
G04 #@! TO.N,/OE*
G36*
X140106442Y-114269685D02*
G01*
X140127084Y-114286319D01*
X140140371Y-114299606D01*
X140173856Y-114360929D01*
X140176688Y-114386644D01*
X140178498Y-114735814D01*
X140178500Y-114736457D01*
X140178500Y-115469939D01*
X140178499Y-115469943D01*
X140178499Y-115628057D01*
X140182903Y-115644495D01*
X140183259Y-115659311D01*
X140183073Y-115660004D01*
X140183293Y-115661641D01*
X140186785Y-116335357D01*
X140167449Y-116402498D01*
X140114882Y-116448526D01*
X140062787Y-116460000D01*
X136515500Y-116460000D01*
X136448461Y-116440315D01*
X136402706Y-116387511D01*
X136391500Y-116336000D01*
X136391500Y-114374000D01*
X136411185Y-114306961D01*
X136463989Y-114261206D01*
X136515500Y-114250000D01*
X140039403Y-114250000D01*
X140106442Y-114269685D01*
G37*
G04 #@! TD.AperFunction*
G04 #@! TD*
G04 #@! TA.AperFunction,Conductor*
G04 #@! TO.N,+5V*
G36*
X130346940Y-128919642D02*
G01*
X130413920Y-128939521D01*
X130459521Y-128992457D01*
X130470577Y-129043059D01*
X130479415Y-130925418D01*
X130460045Y-130992549D01*
X130407456Y-131038551D01*
X130355416Y-131050000D01*
X126544000Y-131050000D01*
X126476961Y-131030315D01*
X126431206Y-130977511D01*
X126420000Y-130926000D01*
X126420000Y-129032603D01*
X126439685Y-128965564D01*
X126492489Y-128919809D01*
X126544359Y-128908604D01*
X130346940Y-128919642D01*
G37*
G04 #@! TD.AperFunction*
G04 #@! TD*
G04 #@! TA.AperFunction,Conductor*
G04 #@! TO.N,/LATCH*
G36*
X136421342Y-111885500D02*
G01*
X136421345Y-111885500D01*
X140046878Y-111885500D01*
X140113917Y-111905185D01*
X140159672Y-111957989D01*
X140170876Y-112008858D01*
X140179228Y-113620858D01*
X140159891Y-113687998D01*
X140107325Y-113734026D01*
X140043913Y-113743479D01*
X140043818Y-113744816D01*
X140039405Y-113744500D01*
X140039403Y-113744500D01*
X136515500Y-113744500D01*
X136410540Y-113755784D01*
X136341783Y-113743379D01*
X136290646Y-113695768D01*
X136273288Y-113632495D01*
X136273288Y-112007316D01*
X136292973Y-111940277D01*
X136345777Y-111894522D01*
X136414932Y-111884578D01*
X136421342Y-111885500D01*
G37*
G04 #@! TD.AperFunction*
G04 #@! TD*
G04 #@! TA.AperFunction,Conductor*
G04 #@! TO.N,/OE*
G36*
X136143228Y-61555185D02*
G01*
X136188983Y-61607989D01*
X136200187Y-61658858D01*
X136209443Y-63445358D01*
X136190106Y-63512498D01*
X136137540Y-63558526D01*
X136085445Y-63570000D01*
X132041441Y-63570000D01*
X131974402Y-63550315D01*
X131928647Y-63497511D01*
X131918703Y-63428353D01*
X131947728Y-63364797D01*
X131953760Y-63358319D01*
X131971786Y-63340292D01*
X131971789Y-63340289D01*
X132059394Y-63209179D01*
X132119737Y-63063497D01*
X132150500Y-62908842D01*
X132150500Y-62751158D01*
X132150500Y-62751155D01*
X132150499Y-62751153D01*
X132119738Y-62596510D01*
X132119737Y-62596503D01*
X132119735Y-62596498D01*
X132059397Y-62450827D01*
X132059390Y-62450814D01*
X131971789Y-62319711D01*
X131971786Y-62319707D01*
X131860292Y-62208213D01*
X131860288Y-62208210D01*
X131724114Y-62117221D01*
X131725461Y-62115204D01*
X131683243Y-62073711D01*
X131667556Y-62013344D01*
X131667556Y-61659500D01*
X131687241Y-61592461D01*
X131740045Y-61546706D01*
X131791556Y-61535500D01*
X136076189Y-61535500D01*
X136143228Y-61555185D01*
G37*
G04 #@! TD.AperFunction*
G04 #@! TD*
G04 #@! TA.AperFunction,Conductor*
G04 #@! TO.N,+5V*
G36*
X142663262Y-97380194D02*
G01*
X142709017Y-97432998D01*
X142720223Y-97484509D01*
X142720223Y-99386149D01*
X142700538Y-99453188D01*
X142647734Y-99498943D01*
X142595863Y-99510148D01*
X137828433Y-99496309D01*
X137761451Y-99476430D01*
X137715850Y-99423494D01*
X137704794Y-99372892D01*
X137695931Y-97485091D01*
X137715301Y-97417960D01*
X137767890Y-97371958D01*
X137819930Y-97360509D01*
X142596223Y-97360509D01*
X142663262Y-97380194D01*
G37*
G04 #@! TD.AperFunction*
G04 #@! TD*
G04 #@! TA.AperFunction,Conductor*
G04 #@! TO.N,+5V*
G36*
X60902549Y-123939954D02*
G01*
X60948551Y-123992543D01*
X60960000Y-124044583D01*
X60960000Y-128236000D01*
X60940315Y-128303039D01*
X60887511Y-128348794D01*
X60836000Y-128360000D01*
X58941500Y-128360000D01*
X58874461Y-128340315D01*
X58828706Y-128287511D01*
X58817501Y-128235640D01*
X58829642Y-124053058D01*
X58849521Y-123986079D01*
X58902457Y-123940478D01*
X58953057Y-123929422D01*
X60835421Y-123920584D01*
X60902549Y-123939954D01*
G37*
G04 #@! TD.AperFunction*
G04 #@! TD*
G04 #@! TA.AperFunction,Conductor*
G04 #@! TO.N,/OE*
G36*
X88142539Y-56739685D02*
G01*
X88188294Y-56792489D01*
X88199500Y-56844000D01*
X88199500Y-58806000D01*
X88179815Y-58873039D01*
X88127011Y-58918794D01*
X88075500Y-58930000D01*
X84622152Y-58930000D01*
X84555113Y-58910315D01*
X84509358Y-58857511D01*
X84498152Y-58806000D01*
X84498152Y-56951445D01*
X84506796Y-56922004D01*
X84513320Y-56892018D01*
X84517074Y-56887002D01*
X84517837Y-56884406D01*
X84534471Y-56863764D01*
X84641916Y-56756319D01*
X84703239Y-56722834D01*
X84729597Y-56720000D01*
X88075500Y-56720000D01*
X88142539Y-56739685D01*
G37*
G04 #@! TD.AperFunction*
G04 #@! TD*
G04 #@! TA.AperFunction,Conductor*
G04 #@! TO.N,+5V*
G36*
X118508533Y-85858659D02*
G01*
X118575513Y-85878538D01*
X118621114Y-85931474D01*
X118632170Y-85982076D01*
X118641012Y-87865418D01*
X118621642Y-87932549D01*
X118569053Y-87978551D01*
X118517013Y-87990000D01*
X114424000Y-87990000D01*
X114356961Y-87970315D01*
X114311206Y-87917511D01*
X114300000Y-87866000D01*
X114300000Y-85970803D01*
X114319685Y-85903764D01*
X114372489Y-85858009D01*
X114424355Y-85846804D01*
X118508533Y-85858659D01*
G37*
G04 #@! TD.AperFunction*
G04 #@! TD*
G04 #@! TA.AperFunction,Conductor*
G04 #@! TO.N,+5V*
G36*
X69122679Y-54659685D02*
G01*
X69168434Y-54712489D01*
X69179639Y-54764360D01*
X69166460Y-59304473D01*
X69146581Y-59371455D01*
X69093645Y-59417056D01*
X69043043Y-59428112D01*
X67154582Y-59436979D01*
X67087451Y-59417609D01*
X67041449Y-59365020D01*
X67030000Y-59312980D01*
X67030000Y-54764000D01*
X67049685Y-54696961D01*
X67102489Y-54651206D01*
X67154000Y-54640000D01*
X69055640Y-54640000D01*
X69122679Y-54659685D01*
G37*
G04 #@! TD.AperFunction*
G04 #@! TD*
G04 #@! TA.AperFunction,Conductor*
G04 #@! TO.N,+5V*
G36*
X115594996Y-54119685D02*
G01*
X115640751Y-54172489D01*
X115651956Y-54224360D01*
X115642197Y-57586231D01*
X115622318Y-57653213D01*
X115569382Y-57698814D01*
X115500195Y-57708557D01*
X115494008Y-57707489D01*
X115453842Y-57699500D01*
X115296158Y-57699500D01*
X115296155Y-57699500D01*
X115141510Y-57730261D01*
X115141498Y-57730264D01*
X114995827Y-57790602D01*
X114995814Y-57790609D01*
X114864711Y-57878210D01*
X114864707Y-57878213D01*
X114753213Y-57989707D01*
X114753210Y-57989711D01*
X114665609Y-58120814D01*
X114665602Y-58120827D01*
X114605264Y-58266498D01*
X114605261Y-58266507D01*
X114591184Y-58337276D01*
X114558798Y-58399187D01*
X114498082Y-58433760D01*
X114470149Y-58437082D01*
X113895162Y-58439782D01*
X113865405Y-58431196D01*
X113835153Y-58424615D01*
X113830484Y-58421119D01*
X113828031Y-58420412D01*
X113806899Y-58403464D01*
X113786819Y-58383384D01*
X113753334Y-58322061D01*
X113750500Y-58295703D01*
X113750500Y-55729765D01*
X113770185Y-55662726D01*
X113771398Y-55660874D01*
X113859390Y-55529185D01*
X113859390Y-55529184D01*
X113859394Y-55529179D01*
X113919737Y-55383497D01*
X113950500Y-55228842D01*
X113950500Y-55071158D01*
X113950500Y-55071155D01*
X113950499Y-55071153D01*
X113919738Y-54916510D01*
X113919737Y-54916503D01*
X113919735Y-54916498D01*
X113859397Y-54770827D01*
X113859390Y-54770814D01*
X113771789Y-54639711D01*
X113771786Y-54639707D01*
X113660292Y-54528213D01*
X113660288Y-54528210D01*
X113563870Y-54463785D01*
X113558779Y-54457693D01*
X113551558Y-54454396D01*
X113536694Y-54431268D01*
X113519065Y-54410173D01*
X113517113Y-54400798D01*
X113513784Y-54395618D01*
X113508761Y-54360683D01*
X113508761Y-54275500D01*
X113528446Y-54208461D01*
X113581250Y-54162706D01*
X113632761Y-54151500D01*
X113712331Y-54151500D01*
X113712347Y-54151501D01*
X113719943Y-54151501D01*
X113878054Y-54151501D01*
X113878057Y-54151501D01*
X114030785Y-54110577D01*
X114030792Y-54110572D01*
X114033530Y-54109440D01*
X114080985Y-54100000D01*
X115527957Y-54100000D01*
X115594996Y-54119685D01*
G37*
G04 #@! TD.AperFunction*
G04 #@! TD*
G04 #@! TA.AperFunction,Conductor*
G04 #@! TO.N,/CLOCK*
G36*
X136127011Y-56509685D02*
G01*
X136172766Y-56562489D01*
X136183970Y-56613358D01*
X136192241Y-58209858D01*
X136172904Y-58276998D01*
X136120338Y-58323026D01*
X136068243Y-58334500D01*
X131319946Y-58334500D01*
X131319937Y-58334500D01*
X131319936Y-58334501D01*
X131212495Y-58346052D01*
X131212483Y-58346054D01*
X131160973Y-58357260D01*
X131058448Y-58391383D01*
X131058442Y-58391386D01*
X130935628Y-58470315D01*
X130868588Y-58490000D01*
X129774000Y-58490000D01*
X129706961Y-58470315D01*
X129661206Y-58417511D01*
X129650000Y-58366000D01*
X129650000Y-56614000D01*
X129669685Y-56546961D01*
X129722489Y-56501206D01*
X129774000Y-56490000D01*
X136059972Y-56490000D01*
X136127011Y-56509685D01*
G37*
G04 #@! TD.AperFunction*
G04 #@! TD*
G04 #@! TA.AperFunction,Conductor*
G04 #@! TO.N,/CLOCK*
G36*
X68384622Y-123689685D02*
G01*
X68386474Y-123690898D01*
X68490079Y-123760125D01*
X68490092Y-123760132D01*
X68571858Y-123794000D01*
X68635768Y-123820472D01*
X68790418Y-123851234D01*
X68790421Y-123851235D01*
X68790423Y-123851235D01*
X68948109Y-123851235D01*
X68948110Y-123851234D01*
X69102762Y-123820472D01*
X69248444Y-123760129D01*
X69274844Y-123742489D01*
X69352056Y-123690898D01*
X69370102Y-123685247D01*
X69386012Y-123675023D01*
X69416971Y-123670571D01*
X69418733Y-123670020D01*
X69420947Y-123670000D01*
X69526721Y-123670000D01*
X69550912Y-123672383D01*
X69701523Y-123702341D01*
X69701526Y-123702342D01*
X69701528Y-123702342D01*
X69859214Y-123702342D01*
X69859215Y-123702341D01*
X69898082Y-123694610D01*
X70009828Y-123672383D01*
X70034019Y-123670000D01*
X70043903Y-123670000D01*
X70110942Y-123689685D01*
X70156697Y-123742489D01*
X70167901Y-123793358D01*
X70176172Y-125389858D01*
X70156835Y-125456998D01*
X70104269Y-125503026D01*
X70052174Y-125514500D01*
X67314500Y-125514500D01*
X67247461Y-125494815D01*
X67201706Y-125442011D01*
X67190500Y-125390500D01*
X67190500Y-124588045D01*
X67190500Y-124588043D01*
X67149577Y-124435316D01*
X67149577Y-124435315D01*
X67149577Y-124435314D01*
X67120639Y-124385195D01*
X67120637Y-124385192D01*
X67070520Y-124298384D01*
X66958716Y-124186580D01*
X66958715Y-124186579D01*
X66954385Y-124182249D01*
X66954374Y-124182239D01*
X66887923Y-124115788D01*
X66854438Y-124054465D01*
X66851604Y-124028107D01*
X66851604Y-123794000D01*
X66871289Y-123726961D01*
X66924093Y-123681206D01*
X66975604Y-123670000D01*
X68317583Y-123670000D01*
X68384622Y-123689685D01*
G37*
G04 #@! TD.AperFunction*
G04 #@! TD*
G04 #@! TA.AperFunction,Conductor*
G04 #@! TO.N,+5V*
G36*
X151652830Y-62319798D02*
G01*
X151698691Y-62372511D01*
X151710000Y-62424248D01*
X151710000Y-86538821D01*
X151690315Y-86605860D01*
X151637511Y-86651615D01*
X151586000Y-86662821D01*
X146844000Y-86662821D01*
X146776961Y-86643136D01*
X146731206Y-86590332D01*
X146720000Y-86538821D01*
X146720000Y-62433752D01*
X146739685Y-62366713D01*
X146792489Y-62320958D01*
X146843750Y-62309752D01*
X151585754Y-62300248D01*
X151652830Y-62319798D01*
G37*
G04 #@! TD.AperFunction*
G04 #@! TD*
G04 #@! TA.AperFunction,Conductor*
G04 #@! TO.N,/OE*
G36*
X70181717Y-128735185D02*
G01*
X70227472Y-128787989D01*
X70238676Y-128838858D01*
X70247932Y-130625358D01*
X70228595Y-130692498D01*
X70176029Y-130738526D01*
X70123934Y-130750000D01*
X69562380Y-130750000D01*
X69514929Y-130740561D01*
X69393497Y-130690263D01*
X69393489Y-130690261D01*
X69238845Y-130659500D01*
X69238842Y-130659500D01*
X69081158Y-130659500D01*
X69081155Y-130659500D01*
X68926510Y-130690261D01*
X68926502Y-130690263D01*
X68880835Y-130709179D01*
X68805070Y-130740561D01*
X68757620Y-130750000D01*
X67024064Y-130750000D01*
X66957025Y-130730315D01*
X66911270Y-130677511D01*
X66901326Y-130608353D01*
X66909503Y-130578548D01*
X66915735Y-130563501D01*
X66915737Y-130563497D01*
X66946500Y-130408842D01*
X66946500Y-130251158D01*
X66946500Y-130251155D01*
X66946499Y-130251153D01*
X66915739Y-130096511D01*
X66915736Y-130096501D01*
X66878599Y-130006843D01*
X66869160Y-129959391D01*
X66869160Y-128839500D01*
X66888845Y-128772461D01*
X66941649Y-128726706D01*
X66993160Y-128715500D01*
X70114678Y-128715500D01*
X70181717Y-128735185D01*
G37*
G04 #@! TD.AperFunction*
G04 #@! TD*
G04 #@! TA.AperFunction,Conductor*
G04 #@! TO.N,+5V*
G36*
X62832549Y-131789954D02*
G01*
X62878551Y-131842543D01*
X62890000Y-131894583D01*
X62890000Y-138546000D01*
X62870315Y-138613039D01*
X62817511Y-138658794D01*
X62766000Y-138670000D01*
X60864360Y-138670000D01*
X60797321Y-138650315D01*
X60751566Y-138597511D01*
X60740361Y-138545640D01*
X60740677Y-138436745D01*
X60759642Y-131903058D01*
X60779521Y-131836079D01*
X60832457Y-131790478D01*
X60883057Y-131779422D01*
X62765421Y-131770584D01*
X62832549Y-131789954D01*
G37*
G04 #@! TD.AperFunction*
G04 #@! TD*
G04 #@! TA.AperFunction,Conductor*
G04 #@! TO.N,/LATCH*
G36*
X88389118Y-54085185D02*
G01*
X88434873Y-54137989D01*
X88446077Y-54188858D01*
X88453106Y-55545651D01*
X88433769Y-55612791D01*
X88416789Y-55633974D01*
X87987084Y-56063681D01*
X87925761Y-56097166D01*
X87899403Y-56100000D01*
X84651550Y-56100000D01*
X84584511Y-56080315D01*
X84538756Y-56027511D01*
X84527550Y-55976000D01*
X84527550Y-55393048D01*
X84547235Y-55326009D01*
X84548515Y-55324057D01*
X84555275Y-55313960D01*
X84580520Y-55288716D01*
X84630639Y-55201904D01*
X84659577Y-55151785D01*
X84700500Y-54999058D01*
X84700500Y-54840943D01*
X84700500Y-54189263D01*
X84720185Y-54122224D01*
X84772989Y-54076469D01*
X84827811Y-54066578D01*
X84827811Y-54065500D01*
X88322079Y-54065500D01*
X88389118Y-54085185D01*
G37*
G04 #@! TD.AperFunction*
G04 #@! TD*
G04 #@! TA.AperFunction,Conductor*
G04 #@! TO.N,+5V*
G36*
X117729678Y-60601610D02*
G01*
X117796519Y-60621958D01*
X117841748Y-60675213D01*
X117852443Y-60724360D01*
X117883080Y-63777058D01*
X117865264Y-63840061D01*
X117865980Y-63840444D01*
X117864231Y-63843714D01*
X117864069Y-63844291D01*
X117863242Y-63845567D01*
X117863104Y-63845825D01*
X117802764Y-63991498D01*
X117802761Y-63991510D01*
X117772000Y-64146153D01*
X117772000Y-64303846D01*
X117802761Y-64458489D01*
X117802764Y-64458501D01*
X117863102Y-64604172D01*
X117863108Y-64604183D01*
X117871292Y-64616431D01*
X117892169Y-64683109D01*
X117892183Y-64684074D01*
X117892747Y-64740189D01*
X117937544Y-66853943D01*
X117937545Y-66853944D01*
X123219305Y-71243211D01*
X127216584Y-74565045D01*
X127255562Y-74623032D01*
X127259949Y-74678875D01*
X126898713Y-77078133D01*
X126898713Y-77078134D01*
X136838283Y-77064009D01*
X136905347Y-77083598D01*
X136951177Y-77136337D01*
X136962444Y-77189716D01*
X136917067Y-80486048D01*
X136896462Y-80552810D01*
X136843033Y-80597834D01*
X136793449Y-80608340D01*
X126668548Y-80638549D01*
X126668547Y-80638550D01*
X125797106Y-86365500D01*
X125797107Y-86365500D01*
X125797107Y-86365501D01*
X135228150Y-86386117D01*
X135295144Y-86405948D01*
X135340784Y-86458852D01*
X135351803Y-86505841D01*
X135424093Y-88601178D01*
X135424115Y-88609036D01*
X135281046Y-93560284D01*
X135259434Y-93626726D01*
X135205330Y-93670937D01*
X135157264Y-93680702D01*
X133279579Y-93683210D01*
X133212513Y-93663615D01*
X133166688Y-93610872D01*
X133155413Y-93558978D01*
X133164697Y-88606745D01*
X133020176Y-88605863D01*
X128104730Y-88575889D01*
X128104438Y-88575887D01*
X125605836Y-88554764D01*
X125400097Y-88553025D01*
X125400096Y-88553025D01*
X125400095Y-88553025D01*
X124847173Y-90923777D01*
X124812776Y-90984594D01*
X124750960Y-91017159D01*
X124727167Y-91019611D01*
X107626021Y-91123513D01*
X107558864Y-91104236D01*
X107512789Y-91051711D01*
X107502257Y-91015143D01*
X107196577Y-88609036D01*
X105700000Y-76829004D01*
X105699998Y-76829003D01*
X105699998Y-76829002D01*
X90746528Y-67099600D01*
X76255265Y-67086602D01*
X67098591Y-77215271D01*
X67098590Y-77215273D01*
X66991037Y-87673874D01*
X67686447Y-108726447D01*
X68872154Y-109884848D01*
X68906351Y-109945777D01*
X68909500Y-109973545D01*
X68909500Y-109978846D01*
X68940261Y-110133489D01*
X68940264Y-110133501D01*
X69000602Y-110279172D01*
X69000609Y-110279185D01*
X69088210Y-110410288D01*
X69088213Y-110410292D01*
X69199707Y-110521786D01*
X69199711Y-110521789D01*
X69330814Y-110609390D01*
X69330827Y-110609397D01*
X69475156Y-110669179D01*
X69476503Y-110669737D01*
X69631153Y-110700499D01*
X69631156Y-110700500D01*
X69656513Y-110700500D01*
X69723552Y-110720185D01*
X69743166Y-110735802D01*
X74200000Y-115090000D01*
X97516352Y-115249237D01*
X97583250Y-115269378D01*
X97628644Y-115322493D01*
X97639500Y-115373233D01*
X97639500Y-117411123D01*
X97619815Y-117478162D01*
X97567011Y-117523917D01*
X97516223Y-117535121D01*
X77820000Y-117649999D01*
X77820000Y-117650000D01*
X77819824Y-117865094D01*
X77800085Y-117932117D01*
X77764716Y-117968093D01*
X77689711Y-118018211D01*
X77689704Y-118018217D01*
X77578213Y-118129707D01*
X77578210Y-118129711D01*
X77490609Y-118260814D01*
X77490602Y-118260827D01*
X77430264Y-118406498D01*
X77430261Y-118406510D01*
X77399500Y-118561153D01*
X77399500Y-118718844D01*
X77400097Y-118724907D01*
X77399724Y-118724943D01*
X77401218Y-118740847D01*
X77401089Y-118755008D01*
X77399499Y-118760943D01*
X77399499Y-118919057D01*
X77399500Y-118919060D01*
X77399500Y-118929637D01*
X77399500Y-119313330D01*
X77399499Y-119313348D01*
X77399499Y-119479054D01*
X77399498Y-119479054D01*
X77440424Y-119631789D01*
X77440425Y-119631790D01*
X77457740Y-119661780D01*
X77457744Y-119661785D01*
X77495921Y-119727911D01*
X77512392Y-119795811D01*
X77510151Y-119814099D01*
X77502540Y-119852365D01*
X77502540Y-120010054D01*
X77533301Y-120164697D01*
X77533304Y-120164709D01*
X77593642Y-120310380D01*
X77593649Y-120310393D01*
X77681250Y-120441496D01*
X77681253Y-120441500D01*
X77781254Y-120541501D01*
X77795979Y-120568468D01*
X77812579Y-120594344D01*
X77813454Y-120600472D01*
X77814739Y-120602824D01*
X77817573Y-120629283D01*
X77817440Y-120792154D01*
X77808001Y-120839505D01*
X77749544Y-120980633D01*
X77749541Y-120980645D01*
X77718780Y-121135288D01*
X77718780Y-121292981D01*
X77749541Y-121447624D01*
X77749544Y-121447636D01*
X77807315Y-121587109D01*
X77816754Y-121634662D01*
X77800000Y-142210050D01*
X77800000Y-142210051D01*
X91613728Y-142065376D01*
X92357716Y-141240662D01*
X92778805Y-140773885D01*
X92778806Y-140773883D01*
X92778809Y-140773880D01*
X94315930Y-137464294D01*
X94339394Y-137429179D01*
X94398384Y-137286762D01*
X98402089Y-128666362D01*
X98439740Y-128619706D01*
X98465789Y-128600000D01*
X106070611Y-122846890D01*
X106121226Y-122824166D01*
X106143497Y-122819737D01*
X106289179Y-122759394D01*
X106420289Y-122671789D01*
X106531789Y-122560289D01*
X106604329Y-122451724D01*
X106632615Y-122421729D01*
X107140286Y-122037673D01*
X115706784Y-114351840D01*
X115738718Y-114331055D01*
X134572883Y-105858552D01*
X134642094Y-105849002D01*
X134705484Y-105878387D01*
X134709836Y-105882389D01*
X136988872Y-108080646D01*
X137023458Y-108141355D01*
X137019732Y-108211126D01*
X136978876Y-108267805D01*
X136953377Y-108283106D01*
X121087020Y-115373233D01*
X118752071Y-116416641D01*
X117896292Y-117004692D01*
X116899995Y-117689301D01*
X109388646Y-124810609D01*
X109378038Y-124819593D01*
X102298504Y-130163447D01*
X101424447Y-132243310D01*
X101420001Y-132249926D01*
X101418964Y-132254695D01*
X101397813Y-132282950D01*
X101351096Y-132329668D01*
X101231285Y-132449479D01*
X101231284Y-132449479D01*
X101231283Y-132449480D01*
X101119481Y-132561282D01*
X101119479Y-132561285D01*
X101069361Y-132648094D01*
X101069359Y-132648096D01*
X101040425Y-132698209D01*
X101040424Y-132698210D01*
X101026687Y-132749479D01*
X100999499Y-132850943D01*
X100999499Y-132850945D01*
X100999499Y-133019046D01*
X100999500Y-133019059D01*
X100999500Y-133229501D01*
X100989816Y-133277542D01*
X97339583Y-141963472D01*
X112586793Y-141845720D01*
X123600838Y-128943245D01*
X123659333Y-128905038D01*
X123729201Y-128904522D01*
X123742595Y-128909191D01*
X123862210Y-128958737D01*
X123970428Y-128980263D01*
X124016860Y-128989499D01*
X124016863Y-128989500D01*
X124016865Y-128989500D01*
X124174551Y-128989500D01*
X124174552Y-128989499D01*
X124329204Y-128958737D01*
X124474886Y-128898394D01*
X124590119Y-128821398D01*
X124656796Y-128800520D01*
X124659010Y-128800500D01*
X125302972Y-128800500D01*
X125370011Y-128820185D01*
X125415766Y-128872989D01*
X125426970Y-128924996D01*
X125426835Y-128958735D01*
X125413262Y-132329668D01*
X125393308Y-132396628D01*
X125340320Y-132442170D01*
X125292486Y-132453127D01*
X123950000Y-132488032D01*
X123949999Y-132488033D01*
X115205378Y-143707481D01*
X115148640Y-143748256D01*
X115107576Y-143755253D01*
X115103895Y-143755253D01*
X113931540Y-145016150D01*
X113565902Y-145409404D01*
X113505837Y-145445097D01*
X113474654Y-145448968D01*
X81248723Y-145335717D01*
X81181753Y-145315797D01*
X81161478Y-145299399D01*
X81060292Y-145198213D01*
X81060288Y-145198210D01*
X80929185Y-145110609D01*
X80929172Y-145110602D01*
X80783501Y-145050264D01*
X80783489Y-145050261D01*
X80628845Y-145019500D01*
X80628842Y-145019500D01*
X80471158Y-145019500D01*
X80471155Y-145019500D01*
X80316510Y-145050261D01*
X80316498Y-145050264D01*
X80170827Y-145110602D01*
X80170814Y-145110609D01*
X80039125Y-145198602D01*
X80021078Y-145204252D01*
X80005169Y-145214477D01*
X79974207Y-145218928D01*
X79972447Y-145219480D01*
X79970234Y-145219500D01*
X79849179Y-145219500D01*
X79849163Y-145219499D01*
X79841567Y-145219499D01*
X79683453Y-145219499D01*
X79530725Y-145260423D01*
X79530723Y-145260423D01*
X79530723Y-145260424D01*
X79480607Y-145289359D01*
X79480603Y-145289361D01*
X79440464Y-145312534D01*
X79378031Y-145329144D01*
X77222031Y-145321567D01*
X77172902Y-145306953D01*
X74157532Y-145317536D01*
X74090424Y-145298087D01*
X74044484Y-145245444D01*
X74033150Y-145189930D01*
X74336409Y-134774470D01*
X74358035Y-134708037D01*
X74372670Y-134690407D01*
X74426554Y-134636524D01*
X74514159Y-134505414D01*
X74517141Y-134498216D01*
X74527832Y-134472401D01*
X74574502Y-134359732D01*
X74605265Y-134205077D01*
X74605265Y-134047393D01*
X74605265Y-134047390D01*
X74605264Y-134047388D01*
X74574503Y-133892745D01*
X74574502Y-133892738D01*
X74515719Y-133750821D01*
X74514162Y-133747062D01*
X74514155Y-133747049D01*
X74426554Y-133615946D01*
X74426552Y-133615943D01*
X74409561Y-133598953D01*
X74376074Y-133537631D01*
X74373293Y-133507670D01*
X74771944Y-119815985D01*
X74792786Y-119750709D01*
X74864394Y-119643542D01*
X74924737Y-119497860D01*
X74955500Y-119343205D01*
X74955500Y-119185521D01*
X74955500Y-119185518D01*
X74955499Y-119185516D01*
X74930788Y-119061286D01*
X74924737Y-119030866D01*
X74864394Y-118885184D01*
X74852943Y-118868047D01*
X74832065Y-118801371D01*
X74841482Y-118751709D01*
X74869737Y-118683497D01*
X74900500Y-118528842D01*
X74900500Y-118371158D01*
X74900500Y-118371155D01*
X74900499Y-118371153D01*
X74898961Y-118363422D01*
X74869737Y-118216503D01*
X74832036Y-118125485D01*
X74822651Y-118074429D01*
X74842935Y-117377797D01*
X72840000Y-117048448D01*
X72824836Y-117045955D01*
X72799793Y-117057655D01*
X72730551Y-117048310D01*
X72694503Y-117023841D01*
X66037919Y-110531168D01*
X66003673Y-110470267D01*
X66000501Y-110442401D01*
X66000501Y-110377244D01*
X65998250Y-110368842D01*
X65959577Y-110224516D01*
X65951865Y-110211158D01*
X65880524Y-110087590D01*
X65880518Y-110087582D01*
X64934440Y-109141505D01*
X64927370Y-109134435D01*
X64927370Y-109134434D01*
X64761991Y-108969055D01*
X64728506Y-108907732D01*
X64725708Y-108884324D01*
X63962535Y-76657804D01*
X63980627Y-76590320D01*
X63991394Y-76575305D01*
X70870574Y-68353844D01*
X70879305Y-68344446D01*
X74554827Y-64777979D01*
X74616646Y-64745423D01*
X74641321Y-64742972D01*
X80062098Y-64749483D01*
X80129111Y-64769248D01*
X80130754Y-64770326D01*
X80145821Y-64780394D01*
X80291503Y-64840737D01*
X80446153Y-64871499D01*
X80446156Y-64871500D01*
X80446158Y-64871500D01*
X80603844Y-64871500D01*
X80603845Y-64871499D01*
X80758497Y-64840737D01*
X80904179Y-64780394D01*
X80917499Y-64771493D01*
X80984175Y-64750614D01*
X80986499Y-64750594D01*
X92452911Y-64764367D01*
X92519925Y-64784132D01*
X92521650Y-64785264D01*
X103022197Y-71810200D01*
X108101414Y-75208231D01*
X108146188Y-75261869D01*
X108155843Y-75298899D01*
X109494671Y-88624999D01*
X109494672Y-88625000D01*
X122008892Y-88651875D01*
X124188609Y-75200000D01*
X114917662Y-67880454D01*
X114877242Y-67823462D01*
X114870500Y-67783130D01*
X114870500Y-60698504D01*
X114890185Y-60631465D01*
X114942989Y-60585710D01*
X114995723Y-60574511D01*
X117729678Y-60601610D01*
G37*
G04 #@! TD.AperFunction*
G04 #@! TD*
M02*
