M48
; DRILL file {KiCad 9.0.5} date 2025-11-18T13:53:27-0600
; FORMAT={-:-/ absolute / metric / decimal}
; #@! TF.CreationDate,2025-11-18T13:53:27-06:00
; #@! TF.GenerationSoftware,Kicad,Pcbnew,9.0.5
; #@! TF.FileFunction,Plated,1,2,PTH
FMAT,2
METRIC
; #@! TA.AperFunction,Plated,PTH,ViaDrill
T1C0.300
; #@! TA.AperFunction,Plated,PTH,ComponentDrill
T2C0.800
; #@! TA.AperFunction,Plated,PTH,ComponentDrill
T3C1.000
%
G90
G05
T1
X58.34Y-123.54
X59.74Y-124.53
X59.76Y-125.51
X59.78Y-126.65
X59.82Y-127.62
X60.15Y-121.0
X61.154Y-111.596
X61.7Y-136.61
X61.73Y-135.61
X61.75Y-137.69
X61.845Y-134.245
X62.27Y-76.54
X62.27Y-93.76
X62.455Y-118.72
X62.671Y-75.801
X62.756Y-116.225
X62.856Y-117.51
X63.157Y-111.33
X63.678Y-108.453
X63.854Y-121.316
X63.975Y-133.365
X64.032Y-144.188
X65.211Y-114.573
X65.65Y-87.45
X66.1Y-108.15
X66.146Y-130.33
X66.2Y-107.275
X67.71Y-124.62
X67.73Y-127.17
X67.747Y-129.75
X67.849Y-120.858
X67.95Y-114.955
X68.21Y-58.75
X68.24Y-56.58
X68.26Y-57.62
X68.3Y-131.64
X68.305Y-55.345
X68.52Y-127.18
X68.55Y-129.72
X68.59Y-124.64
X68.64Y-120.738
X68.869Y-123.051
X69.16Y-131.46
X69.29Y-127.21
X69.35Y-124.61
X69.35Y-129.71
X69.61Y-66.12
X69.71Y-109.9
X69.746Y-104.4
X69.78Y-122.902
X70.087Y-121.51
X71.152Y-124.468
X71.6Y-120.05
X72.265Y-62.212
X72.606Y-62.936
X73.738Y-53.88
X73.805Y-134.126
X73.893Y-66.505
X74.1Y-118.45
X74.155Y-119.264
X75.59Y-51.878
X75.655Y-62.695
X76.215Y-85.679
X76.616Y-84.938
X76.7Y-80.6
X76.86Y-56.56
X76.883Y-89.817
X76.884Y-63.076
X77.017Y-84.141
X77.418Y-83.35
X77.6Y-107.96
X77.773Y-91.35
X77.9Y-80.035
X78.13Y-56.53
X78.16Y-63.07
X78.17Y-75.255
X78.2Y-118.64
X78.303Y-119.931
X78.519Y-121.214
X78.572Y-91.386
X78.931Y-120.5
X79.179Y-91.907
X79.4Y-56.53
X79.45Y-84.4
X80.04Y-62.44
X80.212Y-90.985
X80.4Y-92.049
X80.525Y-64.071
X80.55Y-145.82
X80.597Y-78.052
X80.6Y-76.85
X80.65Y-78.85
X80.7Y-74.1
X80.93Y-82.368
X80.954Y-90.564
X81.124Y-62.068
X81.3Y-51.06
X81.35Y-79.319
X81.48Y-87.49
X81.53Y-83.121
X81.64Y-132.04
X81.8Y-82.368
X81.9Y-93.6
X82.6Y-87.55
X82.689Y-93.138
X82.83Y-125.55
X83.049Y-97.265
X83.099Y-53.917
X83.2Y-88.25
X83.359Y-53.125
X83.408Y-97.98
X83.47Y-54.63
X83.55Y-52.348
X83.602Y-81.16
X83.817Y-95.768
X84.1Y-98.382
X84.19Y-113.56
X84.487Y-129.626
X84.549Y-78.474
X84.72Y-127.61
X84.75Y-77.7
X84.76Y-76.66
X84.8Y-83.05
X84.92Y-58.48
X84.95Y-57.39
X84.967Y-81.948
X84.999Y-80.782
X85.069Y-55.48
X85.07Y-54.48
X85.09Y-68.35
X85.15Y-69.15
X85.2Y-52.55
X85.2Y-69.948
X85.2Y-70.748
X85.2Y-71.548
X85.2Y-129.263
X85.8Y-128.263
X86.05Y-52.5
X86.4Y-127.68
X86.53Y-131.88
X86.691Y-57.33
X86.691Y-58.13
X86.7Y-54.86
X86.741Y-97.981
X86.75Y-71.4
X86.85Y-52.55
X87.05Y-128.85
X87.092Y-61.508
X87.433Y-97.58
X87.7Y-52.55
X87.78Y-54.84
X88.126Y-97.179
X88.356Y-63.136
X88.512Y-62.352
X88.795Y-61.503
X88.894Y-96.958
X89.38Y-106.21
X89.958Y-51.869
X89.96Y-125.55
X90.277Y-52.726
X90.907Y-53.219
X91.53Y-53.721
X91.95Y-52.459
X92.35Y-53.75
X93.104Y-51.347
X93.63Y-137.05
X93.791Y-50.938
X94.15Y-107.19
X94.486Y-50.542
X95.37Y-121.05
X96.52Y-77.51
X97.29Y-128.92
X97.51Y-83.16
X97.74Y-114.29
X98.24Y-119.77
X98.87Y-92.77
X98.93Y-121.23
X99.019Y-140.18
X100.61Y-114.27
X101.82Y-118.92
X102.75Y-67.99
X103.04Y-58.38
X103.175Y-132.651
X103.31Y-94.88
X105.302Y-103.697
X105.313Y-121.45
X105.525Y-105.989
X105.91Y-122.05
X106.01Y-102.94
X106.068Y-86.312
X107.161Y-111.611
X107.46Y-137.12
X107.599Y-112.28
X107.65Y-53.75
X108.5Y-87.35
X108.742Y-101.41
X108.742Y-102.305
X109.05Y-111.04
X109.71Y-106.92
X109.77Y-107.8
X110.35Y-144.68
X110.996Y-97.203
X111.06Y-98.0
X111.795Y-70.287
X112.5Y-54.65
X112.945Y-131.285
X113.15Y-55.15
X113.19Y-73.79
X113.269Y-72.52
X113.38Y-51.12
X113.38Y-75.73
X114.25Y-57.07
X114.31Y-55.99
X114.581Y-51.323
X114.61Y-54.83
X114.84Y-57.64
X114.9Y-82.75
X114.965Y-72.655
X115.12Y-86.54
X115.15Y-107.15
X115.375Y-58.5
X115.565Y-72.126
X115.98Y-86.55
X116.04Y-83.042
X116.377Y-81.14
X116.377Y-82.181
X116.4Y-61.8
X116.43Y-87.33
X116.7Y-94.5
X117.05Y-98.45
X117.11Y-86.62
X117.69Y-89.85
X117.85Y-94.726
X118.55Y-126.989
X118.572Y-64.225
X118.95Y-97.53
X119.43Y-60.2
X119.6Y-61.674
X120.123Y-82.3
X120.46Y-101.76
X120.493Y-54.804
X120.7Y-60.2
X120.81Y-81.36
X121.1Y-80.15
X121.789Y-67.562
X121.826Y-63.995
X121.909Y-68.36
X121.92Y-110.29
X122.085Y-54.421
X122.104Y-55.22
X122.198Y-65.196
X122.244Y-98.842
X122.725Y-91.975
X122.75Y-68.4
X122.802Y-69.201
X122.975Y-76.65
X122.998Y-65.196
X123.01Y-61.48
X123.357Y-69.902
X123.43Y-147.24
X123.7Y-131.15
X123.75Y-121.2
X123.771Y-65.403
X123.8Y-129.75
X123.832Y-97.533
X123.884Y-99.184
X124.05Y-69.454
X124.096Y-128.189
X124.268Y-64.572
X124.383Y-95.127
X124.56Y-60.62
X124.566Y-65.314
X124.705Y-99.207
X125.02Y-65.998
X125.289Y-94.993
X125.4Y-62.169
X125.819Y-66.041
X126.0Y-126.397
X126.06Y-100.86
X126.064Y-97.992
X126.184Y-95.984
X126.399Y-54.235
X126.627Y-95.273
X126.8Y-126.397
X126.8Y-142.5
X126.913Y-97.992
X127.36Y-63.17
X127.504Y-93.929
X127.88Y-130.13
X128.133Y-63.532
X128.32Y-51.53
X128.84Y-130.11
X128.9Y-63.22
X129.12Y-51.541
X129.79Y-130.05
X129.83Y-115.01
X129.96Y-51.53
X130.13Y-52.312
X130.35Y-139.65
X130.49Y-57.45
X130.926Y-52.39
X131.09Y-114.32
X131.15Y-139.65
X131.35Y-62.83
X131.422Y-53.018
X131.737Y-59.868
X132.349Y-62.59
X132.475Y-135.256
X132.49Y-131.709
X132.68Y-57.44
X133.18Y-62.58
X133.339Y-59.95
X133.35Y-120.5
X133.35Y-121.5
X133.35Y-122.4
X133.35Y-123.3
X133.63Y-132.11
X133.73Y-137.95
X134.14Y-62.52
X134.2Y-87.93
X134.42Y-57.51
X134.42Y-90.71
X134.5Y-132.09
X134.54Y-59.93
X134.8Y-134.13
X134.864Y-119.186
X135.04Y-137.94
X135.07Y-62.58
X135.38Y-57.51
X135.47Y-59.92
X135.71Y-78.21
X135.85Y-140.05
X136.25Y-137.92
X136.3Y-131.81
X136.84Y-112.89
X136.85Y-110.44
X136.87Y-115.5
X137.049Y-137.889
X137.59Y-131.8
X137.64Y-112.89
X137.649Y-115.52
X137.66Y-110.45
X137.889Y-124.163
X137.909Y-126.845
X138.124Y-126.074
X138.419Y-108.823
X138.8Y-135.11
X139.05Y-98.45
X139.243Y-126.751
X139.266Y-108.824
X139.27Y-139.552
X139.33Y-115.49
X139.39Y-110.45
X139.434Y-125.007
X139.495Y-121.194
X139.52Y-112.83
X139.875Y-98.425
X140.016Y-118.24
X140.85Y-98.45
X141.3Y-127.6
X141.35Y-118.24
X141.525Y-109.925
X141.87Y-142.74
X141.9Y-98.45
X142.022Y-92.236
X142.262Y-93.043
X142.634Y-91.716
X142.97Y-94.33
X143.035Y-91.012
X143.436Y-90.296
X143.837Y-89.496
X144.221Y-104.702
X144.238Y-88.696
X144.25Y-103.606
X144.29Y-108.74
X144.513Y-87.628
X144.87Y-132.99
X144.89Y-107.44
X144.92Y-103.0
X145.051Y-102.191
X145.291Y-86.709
X145.337Y-132.34
X145.362Y-87.91
X145.554Y-96.7
X145.554Y-97.691
X145.64Y-125.05
X145.75Y-118.641
X145.941Y-104.368
X146.4Y-124.8
X146.82Y-142.77
X146.95Y-118.753
X147.68Y-109.99
X147.75Y-118.75
X148.23Y-115.053
X148.6Y-85.0
X148.8Y-102.825
X148.83Y-115.65
X149.2Y-63.85
X149.2Y-85.75
X149.43Y-116.25
X149.829Y-119.042
X150.015Y-103.146
X150.02Y-115.189
X150.083Y-115.987
X150.176Y-126.658
X150.5Y-104.92
X150.651Y-103.921
X150.78Y-136.89
X150.81Y-146.93
X150.854Y-127.11
X150.89Y-85.87
X150.91Y-116.02
X151.216Y-103.355
X151.652Y-127.052
X151.71Y-115.998
X151.773Y-102.781
X151.79Y-142.74
X152.174Y-102.066
X152.45Y-127.0
X152.487Y-101.282
X152.737Y-126.253
X152.9Y-80.4
X152.944Y-100.56
X153.325Y-97.021
X153.377Y-99.888
X153.551Y-99.107
X153.717Y-117.414
X153.863Y-98.37
X153.905Y-97.572
X154.153Y-116.743
T2
X118.18Y-145.03
X120.72Y-145.03
X123.26Y-145.03
T3
X138.65Y-56.24
X138.65Y-58.78
X138.65Y-61.32
X138.65Y-63.86
X138.65Y-66.4
X138.65Y-68.94
X138.65Y-71.48
X138.65Y-74.02
X138.65Y-76.56
X138.65Y-79.1
X138.65Y-81.64
X138.65Y-84.18
X138.65Y-86.72
X138.65Y-89.26
X138.65Y-91.8
X141.26Y-53.6
X143.8Y-53.6
X146.34Y-53.6
X148.88Y-53.6
X151.42Y-53.6
X153.89Y-56.24
X153.89Y-58.78
X153.89Y-61.32
X153.89Y-63.86
X153.89Y-66.4
X153.89Y-68.94
X153.89Y-71.48
X153.89Y-74.02
X153.89Y-76.56
X153.89Y-79.1
X153.89Y-81.64
X153.89Y-84.18
X153.89Y-86.72
X153.89Y-89.26
X153.89Y-91.8
M30
